M48
; DRILL file KiCad 10.0.6 date 2026-09-29T22:27:02
; FORMAT={-:-/ absolute / metric / decimal}
; #@! TF.CreationDate,2026-09-29T22:27:02+02:00
; #@! TF.GenerationSoftware,Kicad,Pcbnew,10.0.6
; #@! TF.FileFunction,Plated,1,2,PTH
FMAT,2
METRIC
; #@! TA.AperFunction,Plated,PTH,ViaDrill
T1C0.500
; #@! TA.AperFunction,Plated,PTH,ComponentDrill
T2C0.800
; #@! TA.AperFunction,Plated,PTH,ComponentDrill
T3C0.813
; #@! TA.AperFunction,Plated,PTH,ComponentDrill
T4C1.016
%
G90
G05
T1
X110.617Y-81.026
X110.617Y-83.566
X113.157Y-81.026
X113.157Y-83.566
X117.348Y-75.819
X117.348Y-78.359
X119.888Y-75.819
X119.888Y-78.359
X122.428Y-75.819
X122.428Y-78.359
X124.333Y-59.309
X124.333Y-61.341
X129.794Y-59.309
X129.794Y-61.341
X133.604Y-59.309
X133.731Y-61.468
X138.049Y-59.436
X138.049Y-61.468
X141.605Y-71.755
X141.605Y-74.295
X144.145Y-71.755
X144.145Y-74.295
X144.145Y-78.867
X144.145Y-81.407
X144.145Y-83.947
X146.685Y-71.755
X146.685Y-74.295
X146.685Y-78.867
X146.685Y-81.407
X146.685Y-83.947
X149.098Y-71.755
X149.098Y-74.295
X149.225Y-78.867
X149.225Y-81.407
X149.225Y-83.947
X151.638Y-71.755
X151.638Y-74.295
X154.178Y-71.755
X154.178Y-74.295
X162.433Y-76.581
X162.433Y-79.121
X164.973Y-76.581
X164.973Y-79.121
X188.722Y-78.613
X188.722Y-81.153
X188.722Y-83.693
X188.976Y-58.928
X188.976Y-61.468
X188.976Y-64.008
X191.262Y-78.613
X191.262Y-81.153
X191.262Y-83.693
X191.516Y-58.928
X191.516Y-61.468
X191.516Y-64.008
X193.802Y-78.613
X193.802Y-81.153
X193.802Y-83.693
X194.056Y-58.928
X194.056Y-61.468
X194.056Y-64.008
T2
X111.76Y-73.446
X111.76Y-78.446
X170.561Y-61.254
X170.561Y-66.254
T3
X113.411Y-69.596
X115.824Y-58.547
X115.824Y-66.167
X115.824Y-73.279
X115.824Y-80.899
X115.951Y-69.596
X118.364Y-58.547
X118.364Y-66.167
X118.364Y-73.279
X118.364Y-80.899
X118.491Y-69.596
X120.904Y-58.547
X120.904Y-66.167
X120.904Y-73.279
X120.904Y-80.899
X121.031Y-69.596
X123.444Y-73.279
X123.444Y-80.899
X123.571Y-69.596
X125.984Y-73.279
X125.984Y-80.899
X128.524Y-73.279
X128.524Y-80.899
X131.064Y-73.279
X131.064Y-80.899
X133.604Y-73.279
X133.604Y-80.899
X136.144Y-73.279
X136.144Y-80.899
X138.684Y-73.279
X138.684Y-80.899
X167.838Y-75.781
X168.155Y-80.861
X170.695Y-80.861
X171.013Y-75.781
T4
X154.051Y-59.756
X154.051Y-79.756
X177.8Y-59.944
X177.8Y-62.484
M30
