%TF.GenerationSoftware,KiCad,Pcbnew,10.0.6*%
%TF.CreationDate,2026-09-29T22:27:34+02:00*%
%TF.ProjectId,RTC8088,52544338-3038-4382-9e6b-696361645f70,3.0*%
%TF.SameCoordinates,Original*%
%TF.FileFunction,Copper,L1,Top*%
%TF.FilePolarity,Positive*%
%FSLAX46Y46*%
G04 Gerber Fmt 4.6, Leading zero omitted, Abs format (unit mm)*
G04 Created by KiCad (PCBNEW 10.0.6) date 2026-09-29 22:27:34*
%MOMM*%
%LPD*%
G01*
G04 APERTURE LIST*
G04 Aperture macros list*
%AMRoundRect*
0 Rectangle with rounded corners*
0 $1 Rounding radius*
0 $2 $3 $4 $5 $6 $7 $8 $9 X,Y pos of 4 corners*
0 Add a 4 corners polygon primitive as box body*
4,1,4,$2,$3,$4,$5,$6,$7,$8,$9,$2,$3,0*
0 Add four circle primitives for the rounded corners*
1,1,$1+$1,$2,$3*
1,1,$1+$1,$4,$5*
1,1,$1+$1,$6,$7*
1,1,$1+$1,$8,$9*
0 Add four rect primitives between the rounded corners*
20,1,$1+$1,$2,$3,$4,$5,0*
20,1,$1+$1,$4,$5,$6,$7,0*
20,1,$1+$1,$6,$7,$8,$9,0*
20,1,$1+$1,$8,$9,$2,$3,0*%
G04 Aperture macros list end*
%TA.AperFunction,ComponentPad*%
%ADD10C,1.524000*%
%TD*%
%TA.AperFunction,SMDPad,CuDef*%
%ADD11RoundRect,0.150000X0.150000X-0.875000X0.150000X0.875000X-0.150000X0.875000X-0.150000X-0.875000X0*%
%TD*%
%TA.AperFunction,ComponentPad*%
%ADD12R,1.397000X1.397000*%
%TD*%
%TA.AperFunction,ComponentPad*%
%ADD13C,1.397000*%
%TD*%
%TA.AperFunction,ComponentPad*%
%ADD14C,1.600000*%
%TD*%
%TA.AperFunction,ConnectorPad*%
%ADD15RoundRect,0.444500X-0.444500X-3.619500X0.444500X-3.619500X0.444500X3.619500X-0.444500X3.619500X0*%
%TD*%
%TA.AperFunction,ViaPad*%
%ADD16C,1.000000*%
%TD*%
%TA.AperFunction,Conductor*%
%ADD17C,0.500000*%
%TD*%
%TA.AperFunction,Conductor*%
%ADD18C,1.500000*%
%TD*%
G04 APERTURE END LIST*
D10*
%TO.P,BT1,2,-_2*%
%TO.N,GND*%
X154051000Y-79756000D03*
%TO.P,BT1,1,+_1*%
%TO.N,Net-(BT1-+)*%
X154051000Y-59756040D03*
%TD*%
D11*
%TO.P,U1,1,MOT_1*%
%TO.N,unconnected-(U1-MOT-Pad1)*%
X173990000Y-75946000D03*
%TO.P,U1,2,X1_2*%
%TO.N,Net-(U1-X1)*%
X175260000Y-75946000D03*
%TO.P,U1,3,X2_3*%
%TO.N,Net-(U1-X2)*%
X176530000Y-75946000D03*
%TO.P,U1,4,AD0_4*%
%TO.N,/D0*%
X177800000Y-75946000D03*
%TO.P,U1,5,AD1_5*%
%TO.N,/D1*%
X179070000Y-75946000D03*
%TO.P,U1,6,AD2_6*%
%TO.N,/D2*%
X180340000Y-75946000D03*
%TO.P,U1,7,AD3_7*%
%TO.N,/D3*%
X181610000Y-75946000D03*
%TO.P,U1,8,AD4_8*%
%TO.N,/D4*%
X182880000Y-75946000D03*
%TO.P,U1,9,AD5_9*%
%TO.N,/D5*%
X184150000Y-75946000D03*
%TO.P,U1,10,AD6_10*%
%TO.N,/D6*%
X185420000Y-75946000D03*
%TO.P,U1,11,AD7_11*%
%TO.N,/D7*%
X186690000Y-75946000D03*
%TO.P,U1,12,GND_12*%
%TO.N,GND*%
X187960000Y-75946000D03*
%TO.P,U1,13,~{CS}_13*%
X187960000Y-66646000D03*
%TO.P,U1,14,AS_14*%
%TO.N,/RTCALE*%
X186690000Y-66646000D03*
%TO.P,U1,15,R/~{W}_15*%
%TO.N,/RTCWR*%
X185420000Y-66646000D03*
%TO.P,U1,16,GND_16*%
%TO.N,GND*%
X184150000Y-66646000D03*
%TO.P,U1,17,DS_17*%
%TO.N,/RTCRD*%
X182880000Y-66646000D03*
%TO.P,U1,18,~{RESET}_18*%
%TO.N,VCC*%
X181610000Y-66646000D03*
%TO.P,U1,19,~{IRQ}_19*%
%TO.N,/~{IRQ}*%
X180340000Y-66646000D03*
%TO.P,U1,20,VBAT_20*%
%TO.N,Net-(BT1-+)*%
X179070000Y-66646000D03*
%TO.P,U1,21,~{RCLR}_21*%
%TO.N,Net-(JP1-A)*%
X177800000Y-66646000D03*
%TO.P,U1,22,NC_22*%
%TO.N,unconnected-(U1-NC-Pad22)*%
X176530000Y-66646000D03*
%TO.P,U1,23,SQW_23*%
%TO.N,unconnected-(U1-SQW-Pad23)*%
X175260000Y-66646000D03*
%TO.P,U1,24,VCC_24*%
%TO.N,VCC*%
X173990000Y-66646000D03*
%TD*%
D12*
%TO.P,RN1,1,common_1*%
%TO.N,VCC*%
X113411000Y-69596000D03*
D13*
%TO.P,RN1,2,R1_2*%
%TO.N,/AS0*%
X115951000Y-69596000D03*
%TO.P,RN1,3,R2_3*%
%TO.N,/AS1*%
X118491000Y-69596000D03*
%TO.P,RN1,4,R3_4*%
%TO.N,/AS2*%
X121031000Y-69596000D03*
%TO.P,RN1,5,R4_5*%
%TO.N,/~{IRQ}*%
X123571000Y-69596000D03*
%TD*%
D10*
%TO.P,JP1,1,A_1*%
%TO.N,Net-(JP1-A)*%
X177800000Y-62484000D03*
%TO.P,JP1,2,B_2*%
%TO.N,GND*%
X177800000Y-59944000D03*
%TD*%
D12*
%TO.P,U2,1,I/CLK_1*%
%TO.N,/A0*%
X115824000Y-80899000D03*
D13*
%TO.P,U2,2,I1_2*%
%TO.N,/A2*%
X118364000Y-80899000D03*
%TO.P,U2,3,I2_3*%
%TO.N,/A3*%
X120904000Y-80899000D03*
%TO.P,U2,4,I3_4*%
%TO.N,/A4*%
X123444000Y-80899000D03*
%TO.P,U2,5,I4_5*%
%TO.N,/A5*%
X125984000Y-80899000D03*
%TO.P,U2,6,I5_6*%
%TO.N,/A6*%
X128524000Y-80899000D03*
%TO.P,U2,7,I6_7*%
%TO.N,/A7*%
X131064000Y-80899000D03*
%TO.P,U2,8,I7_8*%
%TO.N,/A8*%
X133604000Y-80899000D03*
%TO.P,U2,9,I8_9*%
%TO.N,/A9*%
X136144000Y-80899000D03*
%TO.P,U2,10,GND_10*%
%TO.N,GND*%
X138684000Y-80899000D03*
%TO.P,U2,11,I9/~{OE}_11*%
%TO.N,/AS2*%
X138684000Y-73279000D03*
%TO.P,U2,12,I/O8_12*%
%TO.N,/IOW*%
X136144000Y-73279000D03*
%TO.P,U2,13,I/O7_13*%
%TO.N,/IOR*%
X133604000Y-73279000D03*
%TO.P,U2,14,I/O6_14*%
%TO.N,/RTCALE*%
X131064000Y-73279000D03*
%TO.P,U2,15,I/O5_15*%
%TO.N,/RTCWR*%
X128524000Y-73279000D03*
%TO.P,U2,16,I/O4_16*%
%TO.N,/RTCRD*%
X125984000Y-73279000D03*
%TO.P,U2,17,I/O3_17*%
%TO.N,/AEN*%
X123444000Y-73279000D03*
%TO.P,U2,18,I/O2_18*%
%TO.N,/AS1*%
X120904000Y-73279000D03*
%TO.P,U2,19,I/O1_19*%
%TO.N,/AS0*%
X118364000Y-73279000D03*
%TO.P,U2,20,VCC_20*%
%TO.N,VCC*%
X115824000Y-73279000D03*
%TD*%
D14*
%TO.P,C2,1*%
%TO.N,VCC*%
X111760000Y-73446000D03*
%TO.P,C2,2*%
%TO.N,GND*%
X111760000Y-78446000D03*
%TD*%
D12*
%TO.P,SW1,1*%
%TO.N,/AS0*%
X115824000Y-66167000D03*
D13*
%TO.P,SW1,2*%
%TO.N,/AS1*%
X118364000Y-66167000D03*
%TO.P,SW1,3*%
%TO.N,/AS2*%
X120904000Y-66167000D03*
%TO.P,SW1,4*%
%TO.N,GND*%
X120904000Y-58547000D03*
%TO.P,SW1,5*%
X118364000Y-58547000D03*
%TO.P,SW1,6*%
X115824000Y-58547000D03*
%TD*%
D15*
%TO.P,BUS1,33,SD7_33*%
%TO.N,/D7*%
X187960000Y-91122500D03*
%TO.P,BUS1,34,SD6_34*%
%TO.N,/D6*%
X185420000Y-91122500D03*
%TO.P,BUS1,35,SD5_35*%
%TO.N,/D5*%
X182880000Y-91122500D03*
%TO.P,BUS1,36,SD4_36*%
%TO.N,/D4*%
X180340000Y-91122500D03*
%TO.P,BUS1,37,SD3_37*%
%TO.N,/D3*%
X177800000Y-91122500D03*
%TO.P,BUS1,38,SD2_38*%
%TO.N,/D2*%
X175260000Y-91122500D03*
%TO.P,BUS1,39,SD1_39*%
%TO.N,/D1*%
X172720000Y-91122500D03*
%TO.P,BUS1,40,SD0_40*%
%TO.N,/D0*%
X170180000Y-91122500D03*
%TO.P,BUS1,42,AEN_42*%
%TO.N,/AEN*%
X165100000Y-91122500D03*
%TO.P,BUS1,53,SA9_53*%
%TO.N,/A9*%
X137160000Y-91122500D03*
%TO.P,BUS1,54,SA8_54*%
%TO.N,/A8*%
X134620000Y-91122500D03*
%TO.P,BUS1,55,SA7_55*%
%TO.N,/A7*%
X132080000Y-91122500D03*
%TO.P,BUS1,56,SA6_56*%
%TO.N,/A6*%
X129540000Y-91122500D03*
%TO.P,BUS1,57,SA5_57*%
%TO.N,/A5*%
X127000000Y-91122500D03*
%TO.P,BUS1,58,SA4_58*%
%TO.N,/A4*%
X124460000Y-91122500D03*
%TO.P,BUS1,59,SA3_59*%
%TO.N,/A3*%
X121920000Y-91122500D03*
%TO.P,BUS1,60,SA2_60*%
%TO.N,/A2*%
X119380000Y-91122500D03*
%TO.P,BUS1,62,SA0_62*%
%TO.N,/A0*%
X114300000Y-91122500D03*
%TD*%
D13*
%TO.P,Y1,1,1_1*%
%TO.N,Net-(U1-X2)*%
X170695500Y-80860685D03*
%TO.P,Y1,2,2_2*%
%TO.N,Net-(U1-X1)*%
X168155500Y-80860685D03*
%TO.P,Y1,3,3_3*%
%TO.N,GND*%
X171013000Y-75780685D03*
X167838000Y-75780685D03*
%TD*%
D14*
%TO.P,C1,1*%
%TO.N,VCC*%
X170561000Y-66254000D03*
%TO.P,C1,2*%
%TO.N,GND*%
X170561000Y-61254000D03*
%TD*%
D16*
%TO.N,GND*%
X149098000Y-74295000D03*
X151638000Y-71755000D03*
X151638000Y-74295000D03*
X154178000Y-71755000D03*
X149098000Y-71755000D03*
X154178000Y-74295000D03*
X141605000Y-74295000D03*
X144145000Y-71755000D03*
X144145000Y-74295000D03*
X146685000Y-71755000D03*
X141605000Y-71755000D03*
X146685000Y-74295000D03*
X133604000Y-59309000D03*
X138049000Y-61468000D03*
X138049000Y-59436000D03*
X133731000Y-61468000D03*
X129794000Y-61341000D03*
X129794000Y-59309000D03*
X124333000Y-61341000D03*
X124333000Y-59309000D03*
X113157000Y-83566000D03*
X110617000Y-81026000D03*
X110617000Y-83566000D03*
X113157000Y-81026000D03*
X117348000Y-75819000D03*
X122428000Y-75819000D03*
X119888000Y-78359000D03*
X122428000Y-78359000D03*
X117348000Y-78359000D03*
X119888000Y-75819000D03*
X146685000Y-83947000D03*
X149225000Y-81407000D03*
X149225000Y-83947000D03*
X149225000Y-78867000D03*
X146685000Y-81407000D03*
X144145000Y-83947000D03*
X146685000Y-78867000D03*
X144145000Y-78867000D03*
X144145000Y-81407000D03*
X191516000Y-64008000D03*
X194056000Y-61468000D03*
X194056000Y-64008000D03*
X194056000Y-58928000D03*
X191516000Y-61468000D03*
X188976000Y-64008000D03*
X191516000Y-58928000D03*
X188976000Y-58928000D03*
X188976000Y-61468000D03*
X191262000Y-83693000D03*
X193802000Y-81153000D03*
X193802000Y-83693000D03*
X193802000Y-78613000D03*
X191262000Y-81153000D03*
X188722000Y-83693000D03*
X191262000Y-78613000D03*
X188722000Y-78613000D03*
X188722000Y-81153000D03*
X164973000Y-76581000D03*
X162433000Y-79121000D03*
X164973000Y-79121000D03*
X162433000Y-76581000D03*
%TD*%
%TO.N,VCC*%
D17*
X181610000Y-66646000D02*
X181610000Y-63119000D01*
X181610000Y-63119000D02*
X179763000Y-61272000D01*
X179763000Y-61272000D02*
X175837000Y-61272000D01*
X175837000Y-61272000D02*
X173990000Y-63119000D01*
X173990000Y-63119000D02*
X173990000Y-66646000D01*
X170561000Y-66254000D02*
X170953000Y-66646000D01*
X170953000Y-66646000D02*
X173990000Y-66646000D01*
%TO.N,Net-(JP1-A)*%
X177800000Y-66646000D02*
X177800000Y-62484000D01*
%TO.N,/~{IRQ}*%
X123571000Y-69596000D02*
X128524000Y-64643000D01*
X128524000Y-64643000D02*
X159258000Y-64643000D01*
X180340000Y-69215000D02*
X180340000Y-66646000D01*
X159258000Y-64643000D02*
X164592000Y-69977000D01*
X164592000Y-69977000D02*
X179578000Y-69977000D01*
X179578000Y-69977000D02*
X180340000Y-69215000D01*
%TO.N,/RTCRD*%
X125984000Y-73279000D02*
X125984000Y-71120000D01*
X163576000Y-71247000D02*
X180594000Y-71247000D01*
X125984000Y-71120000D02*
X130810000Y-66294000D01*
X130810000Y-66294000D02*
X158623000Y-66294000D01*
X158623000Y-66294000D02*
X163576000Y-71247000D01*
X180594000Y-71247000D02*
X182880000Y-68961000D01*
X182880000Y-68961000D02*
X182880000Y-66646000D01*
%TO.N,/RTCWR*%
X128524000Y-73279000D02*
X128524000Y-71120000D01*
X128524000Y-71120000D02*
X131572000Y-68072000D01*
X131572000Y-68072000D02*
X158115000Y-68072000D01*
X158115000Y-68072000D02*
X162560000Y-72517000D01*
X162560000Y-72517000D02*
X182372000Y-72517000D01*
X182372000Y-72517000D02*
X185420000Y-69469000D01*
X185420000Y-69469000D02*
X185420000Y-66646000D01*
%TO.N,/RTCALE*%
X131064000Y-73279000D02*
X131064000Y-71247000D01*
X186690000Y-70866000D02*
X186690000Y-66646000D01*
X131064000Y-71247000D02*
X132461000Y-69850000D01*
X132461000Y-69850000D02*
X157734000Y-69850000D01*
X157734000Y-69850000D02*
X161671000Y-73787000D01*
X161671000Y-73787000D02*
X183769000Y-73787000D01*
X183769000Y-73787000D02*
X186690000Y-70866000D01*
%TO.N,Net-(U1-X1)*%
X173609000Y-78867000D02*
X170149185Y-78867000D01*
X168529000Y-80487185D02*
X168155500Y-80860685D01*
X175260000Y-77216000D02*
X173609000Y-78867000D01*
X170149185Y-78867000D02*
X168155500Y-80860685D01*
X175260000Y-75946000D02*
X175260000Y-77216000D01*
%TO.N,Net-(U1-X2)*%
X173647315Y-80860685D02*
X170695500Y-80860685D01*
X176530000Y-75946000D02*
X176530000Y-77978000D01*
X176530000Y-77978000D02*
X173647315Y-80860685D01*
%TO.N,/D0*%
X177800000Y-75946000D02*
X177800000Y-78867000D01*
X170180000Y-86487000D02*
X170180000Y-91122500D01*
X177800000Y-78867000D02*
X170180000Y-86487000D01*
%TO.N,/D1*%
X172720000Y-86360000D02*
X172720000Y-91122500D01*
X172757500Y-91085000D02*
X172720000Y-91122500D01*
X179070000Y-75946000D02*
X179070000Y-80010000D01*
X179070000Y-80010000D02*
X172720000Y-86360000D01*
%TO.N,/D2*%
X180340000Y-75946000D02*
X180340000Y-81280000D01*
X180340000Y-81280000D02*
X175260000Y-86360000D01*
X175260000Y-86360000D02*
X175260000Y-91122500D01*
%TO.N,/D3*%
X177800000Y-86360000D02*
X177800000Y-91122500D01*
X181610000Y-75946000D02*
X181610000Y-82550000D01*
X181610000Y-82550000D02*
X177800000Y-86360000D01*
%TO.N,/D4*%
X182880000Y-83693000D02*
X180340000Y-86233000D01*
X180340000Y-86233000D02*
X180340000Y-91122500D01*
X182880000Y-75946000D02*
X182880000Y-83693000D01*
%TO.N,/D5*%
X184150000Y-85090000D02*
X182880000Y-86360000D01*
X184150000Y-75946000D02*
X184150000Y-85090000D01*
X182880000Y-86360000D02*
X182880000Y-91122500D01*
%TO.N,/D6*%
X185420000Y-75946000D02*
X185420000Y-91122500D01*
%TO.N,/D7*%
X186690000Y-75946000D02*
X186690000Y-85090000D01*
X187960000Y-86360000D02*
X187960000Y-91122500D01*
X186690000Y-85090000D02*
X187960000Y-86360000D01*
%TO.N,VCC*%
D18*
X111927000Y-73279000D02*
X115824000Y-73279000D01*
X111760000Y-73446000D02*
X111927000Y-73279000D01*
%TO.N,Net-(BT1-+)*%
D17*
X156720540Y-59692540D02*
X165608000Y-68580000D01*
X154114500Y-59692540D02*
X156720540Y-59692540D01*
X165608000Y-68580000D02*
X178562000Y-68580000D01*
X179070000Y-68072000D02*
X179070000Y-66646000D01*
X154051000Y-59756040D02*
X154114500Y-59692540D01*
X178562000Y-68580000D02*
X179070000Y-68072000D01*
%TO.N,Net-(JP1-A)*%
X177800000Y-66559500D02*
X177837500Y-66597000D01*
%TO.N,/AS0*%
X115824000Y-69469000D02*
X115951000Y-69596000D01*
X118364000Y-73279000D02*
X118364000Y-72009000D01*
X115824000Y-66167000D02*
X115824000Y-69469000D01*
X118364000Y-72009000D02*
X115951000Y-69596000D01*
%TO.N,/AS1*%
X120904000Y-73279000D02*
X120904000Y-72009000D01*
X118364000Y-66167000D02*
X118364000Y-69469000D01*
X118364000Y-69469000D02*
X118491000Y-69596000D01*
X120904000Y-72009000D02*
X118491000Y-69596000D01*
%TO.N,/AS2*%
X120904000Y-66167000D02*
X120904000Y-69469000D01*
X120904000Y-69469000D02*
X121031000Y-69596000D01*
%TO.N,/A0*%
X114300000Y-85344000D02*
X115824000Y-83820000D01*
X115824000Y-83820000D02*
X115824000Y-80899000D01*
X114300000Y-90805000D02*
X114300000Y-85344000D01*
%TO.N,/A2*%
X118364000Y-84328000D02*
X118364000Y-80899000D01*
X119380000Y-85344000D02*
X118364000Y-84328000D01*
X119380000Y-91122500D02*
X119380000Y-85344000D01*
%TO.N,/A3*%
X120904000Y-84455000D02*
X121920000Y-85471000D01*
X121920000Y-85471000D02*
X121920000Y-90805000D01*
X120904000Y-80899000D02*
X120904000Y-84455000D01*
%TO.N,/A4*%
X124460000Y-90805000D02*
X124460000Y-85344000D01*
X124460000Y-85344000D02*
X123444000Y-84328000D01*
X123444000Y-84328000D02*
X123444000Y-80899000D01*
%TO.N,/A5*%
X127000000Y-85471000D02*
X125984000Y-84455000D01*
X127000000Y-90805000D02*
X127000000Y-85471000D01*
X125984000Y-84455000D02*
X125984000Y-80899000D01*
%TO.N,/A6*%
X129540000Y-90805000D02*
X129540000Y-85471000D01*
X129540000Y-85471000D02*
X128524000Y-84455000D01*
X128524000Y-84455000D02*
X128524000Y-80899000D01*
%TO.N,/A7*%
X131064000Y-84455000D02*
X132080000Y-85471000D01*
X132080000Y-85471000D02*
X132080000Y-90805000D01*
X131064000Y-80899000D02*
X131064000Y-84455000D01*
%TO.N,/A8*%
X133604000Y-80899000D02*
X133604000Y-84328000D01*
X133604000Y-84328000D02*
X134620000Y-85344000D01*
X134620000Y-85344000D02*
X134620000Y-90805000D01*
%TO.N,/A9*%
X136144000Y-80899000D02*
X136144000Y-84328000D01*
X136144000Y-84328000D02*
X137160000Y-85344000D01*
X137160000Y-85344000D02*
X137160000Y-90805000D01*
%TO.N,/AEN*%
X126619000Y-76962000D02*
X156972000Y-76962000D01*
X123444000Y-73279000D02*
X123444000Y-73787000D01*
X156972000Y-76962000D02*
X165100000Y-85090000D01*
X123444000Y-73787000D02*
X126619000Y-76962000D01*
X165100000Y-85090000D02*
X165100000Y-90805000D01*
%TD*%
%TA.AperFunction,Conductor*%
%TO.N,GND*%
G36*
X115106463Y-57482492D02*
G01*
X115123002Y-57491336D01*
X115127013Y-57496226D01*
X115143362Y-57507152D01*
X115776810Y-58140600D01*
X115770496Y-58140600D01*
X115667135Y-58168295D01*
X115574464Y-58221799D01*
X115498799Y-58297464D01*
X115445295Y-58390135D01*
X115417600Y-58493496D01*
X115417600Y-58499810D01*
X114868157Y-57950367D01*
X114768942Y-57960121D01*
X114705892Y-58083864D01*
X114647207Y-58264479D01*
X114617500Y-58452044D01*
X114617500Y-58641955D01*
X114647207Y-58829520D01*
X114705891Y-59010132D01*
X114792110Y-59179347D01*
X114809081Y-59202706D01*
X115417600Y-58594187D01*
X115417600Y-58600504D01*
X115445295Y-58703865D01*
X115498799Y-58796536D01*
X115574464Y-58872201D01*
X115667135Y-58925705D01*
X115770496Y-58953400D01*
X115776810Y-58953400D01*
X115168292Y-59561917D01*
X115191652Y-59578889D01*
X115360867Y-59665108D01*
X115541479Y-59723792D01*
X115729044Y-59753499D01*
X115729048Y-59753500D01*
X115918952Y-59753500D01*
X115918955Y-59753499D01*
X116106520Y-59723792D01*
X116287132Y-59665108D01*
X116456347Y-59578889D01*
X116479707Y-59561917D01*
X115871190Y-58953400D01*
X115877504Y-58953400D01*
X115980865Y-58925705D01*
X116073536Y-58872201D01*
X116149201Y-58796536D01*
X116202705Y-58703865D01*
X116230400Y-58600504D01*
X116230400Y-58594190D01*
X116786815Y-59150605D01*
X116971078Y-59048178D01*
X116994424Y-59040674D01*
X117015816Y-59028694D01*
X117040954Y-59025718D01*
X117065058Y-59017971D01*
X117089498Y-59019972D01*
X117113847Y-59017090D01*
X117138210Y-59023960D01*
X117163445Y-59026027D01*
X117185259Y-59037229D01*
X117208857Y-59043884D01*
X117228736Y-59059555D01*
X117251259Y-59071121D01*
X117267125Y-59089817D01*
X117286381Y-59104997D01*
X117309983Y-59140320D01*
X117315132Y-59146388D01*
X117316146Y-59149545D01*
X117319426Y-59154453D01*
X117332109Y-59179345D01*
X117349081Y-59202706D01*
X117957600Y-58594187D01*
X117957600Y-58600504D01*
X117985295Y-58703865D01*
X118038799Y-58796536D01*
X118114464Y-58872201D01*
X118207135Y-58925705D01*
X118310496Y-58953400D01*
X118316810Y-58953400D01*
X117708292Y-59561917D01*
X117731652Y-59578889D01*
X117900867Y-59665108D01*
X118081479Y-59723792D01*
X118269044Y-59753499D01*
X118269048Y-59753500D01*
X118458952Y-59753500D01*
X118458955Y-59753499D01*
X118646520Y-59723792D01*
X118827132Y-59665108D01*
X118996347Y-59578889D01*
X119019707Y-59561917D01*
X118411190Y-58953400D01*
X118417504Y-58953400D01*
X118520865Y-58925705D01*
X118613536Y-58872201D01*
X118689201Y-58796536D01*
X118742705Y-58703865D01*
X118770400Y-58600504D01*
X118770400Y-58594190D01*
X119326815Y-59150605D01*
X119511078Y-59048178D01*
X119534424Y-59040674D01*
X119555816Y-59028694D01*
X119580954Y-59025718D01*
X119605058Y-59017971D01*
X119629498Y-59019972D01*
X119653847Y-59017090D01*
X119678210Y-59023960D01*
X119703445Y-59026027D01*
X119725259Y-59037229D01*
X119748857Y-59043884D01*
X119768736Y-59059555D01*
X119791259Y-59071121D01*
X119807125Y-59089817D01*
X119826381Y-59104997D01*
X119849983Y-59140320D01*
X119855132Y-59146388D01*
X119856146Y-59149545D01*
X119859426Y-59154453D01*
X119872109Y-59179345D01*
X119889081Y-59202706D01*
X120497600Y-58594187D01*
X120497600Y-58600504D01*
X120525295Y-58703865D01*
X120578799Y-58796536D01*
X120654464Y-58872201D01*
X120747135Y-58925705D01*
X120850496Y-58953400D01*
X120856810Y-58953400D01*
X120248292Y-59561917D01*
X120271652Y-59578889D01*
X120440867Y-59665108D01*
X120621479Y-59723792D01*
X120809044Y-59753499D01*
X120809048Y-59753500D01*
X120998952Y-59753500D01*
X120998955Y-59753499D01*
X121186520Y-59723792D01*
X121367132Y-59665108D01*
X121536347Y-59578889D01*
X121559707Y-59561917D01*
X120951190Y-58953400D01*
X120957504Y-58953400D01*
X121060865Y-58925705D01*
X121153536Y-58872201D01*
X121229201Y-58796536D01*
X121282705Y-58703865D01*
X121310400Y-58600504D01*
X121310400Y-58594190D01*
X121918917Y-59202707D01*
X121935889Y-59179347D01*
X122022108Y-59010132D01*
X122080792Y-58829520D01*
X122110499Y-58641955D01*
X122110500Y-58641952D01*
X122110500Y-58452048D01*
X122110499Y-58452044D01*
X122080792Y-58264479D01*
X122022108Y-58083867D01*
X121959057Y-57960121D01*
X121859840Y-57950367D01*
X121310400Y-58499808D01*
X121310400Y-58493496D01*
X121282705Y-58390135D01*
X121229201Y-58297464D01*
X121153536Y-58221799D01*
X121060865Y-58168295D01*
X120957504Y-58140600D01*
X120951188Y-58140600D01*
X121584636Y-57507151D01*
X121600981Y-57496229D01*
X121604996Y-57491336D01*
X121621566Y-57482475D01*
X121643978Y-57467500D01*
X122119958Y-57467500D01*
X194840204Y-57467500D01*
X194937023Y-57486758D01*
X195019102Y-57541602D01*
X195188398Y-57710898D01*
X195243242Y-57792977D01*
X195262500Y-57889796D01*
X195262500Y-84985204D01*
X195243242Y-85082023D01*
X195188398Y-85164102D01*
X195019102Y-85333398D01*
X194937023Y-85388242D01*
X194840204Y-85407500D01*
X188005372Y-85407500D01*
X187908553Y-85388242D01*
X187826474Y-85333398D01*
X187395602Y-84902526D01*
X187340758Y-84820447D01*
X187321500Y-84723628D01*
X187321500Y-77701249D01*
X187340758Y-77604430D01*
X187395602Y-77522351D01*
X187477681Y-77467507D01*
X187574500Y-77448249D01*
X187645085Y-77458295D01*
X187705999Y-77475992D01*
X187706000Y-77475992D01*
X188214000Y-77475992D01*
X188373395Y-77429683D01*
X188373399Y-77429682D01*
X188516497Y-77345055D01*
X188634055Y-77227497D01*
X188718681Y-77084401D01*
X188765064Y-76924752D01*
X188765065Y-76924749D01*
X188767999Y-76887461D01*
X188768000Y-76887458D01*
X188768000Y-76200000D01*
X188214000Y-76200000D01*
X188214000Y-77475992D01*
X187706000Y-77475992D01*
X187706000Y-75692000D01*
X188214000Y-75692000D01*
X188767999Y-75692000D01*
X188767999Y-75004549D01*
X188767998Y-75004545D01*
X188765065Y-74967249D01*
X188718681Y-74807599D01*
X188634055Y-74664502D01*
X188516497Y-74546944D01*
X188373400Y-74462318D01*
X188214000Y-74416007D01*
X188214000Y-75692000D01*
X187706000Y-75692000D01*
X187706000Y-74416007D01*
X187705999Y-74416007D01*
X187546599Y-74462318D01*
X187403503Y-74546943D01*
X187394878Y-74555569D01*
X187312797Y-74610410D01*
X187215978Y-74629666D01*
X187119159Y-74610405D01*
X187112044Y-74606946D01*
X187102940Y-74603356D01*
X186967023Y-74549757D01*
X186967019Y-74549756D01*
X186967021Y-74549756D01*
X186881614Y-74539500D01*
X186498398Y-74539500D01*
X186498386Y-74539501D01*
X186412980Y-74549756D01*
X186412978Y-74549756D01*
X186412977Y-74549757D01*
X186359378Y-74570893D01*
X186277058Y-74603356D01*
X186277053Y-74603358D01*
X186207870Y-74655822D01*
X186119088Y-74698977D01*
X186020548Y-74704872D01*
X185927254Y-74672609D01*
X185902130Y-74655822D01*
X185832946Y-74603358D01*
X185832944Y-74603357D01*
X185793706Y-74587884D01*
X185697023Y-74549757D01*
X185697019Y-74549756D01*
X185697021Y-74549756D01*
X185611614Y-74539500D01*
X185228398Y-74539500D01*
X185228386Y-74539501D01*
X185142980Y-74549756D01*
X185142978Y-74549756D01*
X185142977Y-74549757D01*
X185089378Y-74570893D01*
X185007058Y-74603356D01*
X185007053Y-74603358D01*
X184937870Y-74655822D01*
X184849088Y-74698977D01*
X184750548Y-74704872D01*
X184657254Y-74672609D01*
X184632130Y-74655822D01*
X184562946Y-74603358D01*
X184562944Y-74603357D01*
X184510247Y-74582576D01*
X184427023Y-74549757D01*
X184427020Y-74549756D01*
X184411933Y-74543807D01*
X184413129Y-74540772D01*
X184348533Y-74510043D01*
X184282404Y-74436751D01*
X184249357Y-74343731D01*
X184254422Y-74245145D01*
X184296828Y-74156002D01*
X184320796Y-74128279D01*
X187180518Y-71268558D01*
X187249628Y-71165128D01*
X187273334Y-71107898D01*
X187297230Y-71050207D01*
X187297231Y-71050204D01*
X187297230Y-71050204D01*
X187297232Y-71050202D01*
X187321500Y-70928197D01*
X187321500Y-68401249D01*
X187340758Y-68304430D01*
X187395602Y-68222351D01*
X187477681Y-68167507D01*
X187574500Y-68148249D01*
X187645085Y-68158295D01*
X187705999Y-68175992D01*
X187706000Y-68175992D01*
X188214000Y-68175992D01*
X188373395Y-68129683D01*
X188373399Y-68129682D01*
X188516497Y-68045055D01*
X188634055Y-67927497D01*
X188718681Y-67784401D01*
X188765064Y-67624752D01*
X188765065Y-67624749D01*
X188767999Y-67587461D01*
X188768000Y-67587458D01*
X188768000Y-66900000D01*
X188214000Y-66900000D01*
X188214000Y-68175992D01*
X187706000Y-68175992D01*
X187706000Y-66392000D01*
X188214000Y-66392000D01*
X188767999Y-66392000D01*
X188767999Y-65704549D01*
X188767998Y-65704545D01*
X188765065Y-65667249D01*
X188718681Y-65507599D01*
X188634055Y-65364502D01*
X188516497Y-65246944D01*
X188373400Y-65162318D01*
X188214000Y-65116007D01*
X188214000Y-66392000D01*
X187706000Y-66392000D01*
X187706000Y-65116007D01*
X187705999Y-65116007D01*
X187546599Y-65162318D01*
X187403503Y-65246943D01*
X187394878Y-65255569D01*
X187312797Y-65310410D01*
X187215978Y-65329666D01*
X187119159Y-65310405D01*
X187112044Y-65306946D01*
X187102940Y-65303356D01*
X186967023Y-65249757D01*
X186967019Y-65249756D01*
X186967021Y-65249756D01*
X186881614Y-65239500D01*
X186498398Y-65239500D01*
X186498386Y-65239501D01*
X186412980Y-65249756D01*
X186412978Y-65249756D01*
X186412977Y-65249757D01*
X186359378Y-65270893D01*
X186277058Y-65303356D01*
X186277053Y-65303358D01*
X186207870Y-65355822D01*
X186119088Y-65398977D01*
X186020548Y-65404872D01*
X185927254Y-65372609D01*
X185902130Y-65355822D01*
X185832946Y-65303358D01*
X185832944Y-65303357D01*
X185793706Y-65287884D01*
X185697023Y-65249757D01*
X185697019Y-65249756D01*
X185697021Y-65249756D01*
X185611614Y-65239500D01*
X185228398Y-65239500D01*
X185228386Y-65239501D01*
X185142980Y-65249756D01*
X185142978Y-65249756D01*
X185142977Y-65249757D01*
X185007060Y-65303356D01*
X184990957Y-65309706D01*
X184989676Y-65306458D01*
X184924152Y-65327865D01*
X184825729Y-65320276D01*
X184737701Y-65275600D01*
X184715117Y-65255564D01*
X184706497Y-65246944D01*
X184563400Y-65162318D01*
X184404000Y-65116007D01*
X184404000Y-68175992D01*
X184464915Y-68158295D01*
X184563263Y-68149777D01*
X184657383Y-68179543D01*
X184732949Y-68243062D01*
X184778454Y-68330664D01*
X184788500Y-68401249D01*
X184788500Y-69102628D01*
X184769242Y-69199447D01*
X184714398Y-69281526D01*
X182184526Y-71811398D01*
X182102447Y-71866242D01*
X182005628Y-71885500D01*
X181459372Y-71885500D01*
X181362553Y-71866242D01*
X181280474Y-71811398D01*
X181225630Y-71729319D01*
X181206372Y-71632500D01*
X181225630Y-71535681D01*
X181280474Y-71453602D01*
X182314298Y-70419778D01*
X183370518Y-69363558D01*
X183439628Y-69260128D01*
X183467250Y-69193442D01*
X183487232Y-69145202D01*
X183511500Y-69023197D01*
X183511500Y-68401249D01*
X183530758Y-68304430D01*
X183585602Y-68222351D01*
X183667681Y-68167507D01*
X183764500Y-68148249D01*
X183835085Y-68158295D01*
X183895999Y-68175992D01*
X183896000Y-68175992D01*
X183896000Y-65116007D01*
X183895999Y-65116007D01*
X183736599Y-65162318D01*
X183593503Y-65246943D01*
X183584878Y-65255569D01*
X183502797Y-65310410D01*
X183405978Y-65329666D01*
X183309159Y-65310405D01*
X183302044Y-65306946D01*
X183292940Y-65303356D01*
X183157023Y-65249757D01*
X183157019Y-65249756D01*
X183157021Y-65249756D01*
X183071614Y-65239500D01*
X182688398Y-65239500D01*
X182688386Y-65239501D01*
X182602980Y-65249756D01*
X182602978Y-65249756D01*
X182602977Y-65249757D01*
X182587307Y-65255936D01*
X182490175Y-65273536D01*
X182393699Y-65252625D01*
X182312570Y-65196386D01*
X182259137Y-65113382D01*
X182241500Y-65020573D01*
X182241500Y-63056802D01*
X182217231Y-62934795D01*
X182217230Y-62934792D01*
X182169629Y-62819873D01*
X182169628Y-62819871D01*
X182100518Y-62716442D01*
X180165557Y-60781481D01*
X180062128Y-60712371D01*
X180062126Y-60712370D01*
X179947207Y-60664769D01*
X179947204Y-60664768D01*
X179825197Y-60640500D01*
X179257275Y-60640500D01*
X179160456Y-60621242D01*
X179078377Y-60566398D01*
X179023533Y-60484319D01*
X179004275Y-60387500D01*
X179016657Y-60309320D01*
X179038728Y-60241389D01*
X179069999Y-60043953D01*
X179070000Y-60043948D01*
X179070000Y-59844051D01*
X179069999Y-59844046D01*
X179038728Y-59646610D01*
X178976955Y-59456488D01*
X178886201Y-59278375D01*
X178886199Y-59278373D01*
X178860376Y-59242831D01*
X178290690Y-59812517D01*
X178273381Y-59747919D01*
X178206502Y-59632080D01*
X178111920Y-59537498D01*
X177996081Y-59470619D01*
X177931478Y-59453308D01*
X178501166Y-58883621D01*
X178465629Y-58857801D01*
X178465620Y-58857796D01*
X178287508Y-58767044D01*
X178097389Y-58705271D01*
X177899953Y-58674000D01*
X177700046Y-58674000D01*
X177502610Y-58705271D01*
X177312494Y-58767043D01*
X177134375Y-58857799D01*
X177098832Y-58883622D01*
X177668519Y-59453309D01*
X177603919Y-59470619D01*
X177488080Y-59537498D01*
X177393498Y-59632080D01*
X177326619Y-59747919D01*
X177309309Y-59812519D01*
X176739622Y-59242832D01*
X176713799Y-59278375D01*
X176623043Y-59456494D01*
X176561271Y-59646610D01*
X176530000Y-59844046D01*
X176530000Y-60043953D01*
X176561271Y-60241389D01*
X176583343Y-60309320D01*
X176594945Y-60407352D01*
X176568149Y-60502361D01*
X176507034Y-60579884D01*
X176420905Y-60628118D01*
X176342725Y-60640500D01*
X175774803Y-60640500D01*
X175652795Y-60664768D01*
X175652792Y-60664769D01*
X175537873Y-60712370D01*
X175537871Y-60712371D01*
X175434442Y-60781481D01*
X173499481Y-62716442D01*
X173430371Y-62819871D01*
X173430370Y-62819873D01*
X173382769Y-62934792D01*
X173382768Y-62934795D01*
X173358500Y-63056802D01*
X173358500Y-65495111D01*
X173340861Y-65587923D01*
X173318757Y-65643974D01*
X173318756Y-65643978D01*
X173308500Y-65729377D01*
X173308500Y-65761500D01*
X173289242Y-65858319D01*
X173234398Y-65940398D01*
X173152319Y-65995242D01*
X173055500Y-66014500D01*
X171909300Y-66014500D01*
X171812481Y-65995242D01*
X171730402Y-65940398D01*
X171675558Y-65858319D01*
X171668683Y-65839682D01*
X171655940Y-65800464D01*
X171655935Y-65800452D01*
X171571514Y-65634768D01*
X171571511Y-65634763D01*
X171571509Y-65634759D01*
X171462197Y-65484305D01*
X171330695Y-65352803D01*
X171180241Y-65243491D01*
X171180238Y-65243489D01*
X171180236Y-65243488D01*
X171180231Y-65243485D01*
X171014547Y-65159064D01*
X171014540Y-65159061D01*
X170837666Y-65101592D01*
X170653986Y-65072500D01*
X170468014Y-65072500D01*
X170468013Y-65072500D01*
X170284333Y-65101592D01*
X170107459Y-65159061D01*
X170107452Y-65159064D01*
X169941768Y-65243485D01*
X169941763Y-65243488D01*
X169791302Y-65352805D01*
X169659805Y-65484302D01*
X169550488Y-65634763D01*
X169550485Y-65634768D01*
X169466064Y-65800452D01*
X169466061Y-65800459D01*
X169408592Y-65977333D01*
X169379500Y-66161013D01*
X169379500Y-66346986D01*
X169408592Y-66530666D01*
X169466061Y-66707540D01*
X169466064Y-66707547D01*
X169550485Y-66873231D01*
X169550488Y-66873236D01*
X169550491Y-66873241D01*
X169659803Y-67023695D01*
X169791305Y-67155197D01*
X169941759Y-67264509D01*
X169941763Y-67264511D01*
X169941768Y-67264514D01*
X170107452Y-67348935D01*
X170107459Y-67348938D01*
X170107461Y-67348938D01*
X170107462Y-67348939D01*
X170284332Y-67406407D01*
X170468014Y-67435500D01*
X170468015Y-67435500D01*
X170653985Y-67435500D01*
X170653986Y-67435500D01*
X170837668Y-67406407D01*
X171014538Y-67348939D01*
X171071358Y-67319987D01*
X171100627Y-67305075D01*
X171195637Y-67278280D01*
X171215486Y-67277500D01*
X173055501Y-67277500D01*
X173152320Y-67296758D01*
X173234399Y-67351602D01*
X173289243Y-67433681D01*
X173308501Y-67530500D01*
X173308501Y-67562613D01*
X173320691Y-67664130D01*
X173316685Y-67664610D01*
X173320131Y-67732153D01*
X173287049Y-67825160D01*
X173220893Y-67898428D01*
X173131735Y-67940802D01*
X173069800Y-67948500D01*
X165974372Y-67948500D01*
X165877553Y-67929242D01*
X165795474Y-67874398D01*
X159072132Y-61151056D01*
X169253000Y-61151056D01*
X169253000Y-61356943D01*
X169285206Y-61560289D01*
X169348827Y-61756095D01*
X169442297Y-61939541D01*
X169473415Y-61982372D01*
X169473416Y-61982372D01*
X170161000Y-61294788D01*
X170161000Y-61306661D01*
X170188259Y-61408394D01*
X170240920Y-61499606D01*
X170315394Y-61574080D01*
X170406606Y-61626741D01*
X170508339Y-61654000D01*
X170520210Y-61654000D01*
X169832625Y-62341583D01*
X169875457Y-62372701D01*
X169875462Y-62372704D01*
X170058904Y-62466172D01*
X170254710Y-62529793D01*
X170458056Y-62561999D01*
X170458060Y-62562000D01*
X170663940Y-62562000D01*
X170663943Y-62561999D01*
X170867289Y-62529793D01*
X171063098Y-62466172D01*
X171246541Y-62372702D01*
X171246541Y-62372701D01*
X171289373Y-62341583D01*
X170601790Y-61654000D01*
X170613661Y-61654000D01*
X170715394Y-61626741D01*
X170806606Y-61574080D01*
X170881080Y-61499606D01*
X170933741Y-61408394D01*
X170961000Y-61306661D01*
X170961000Y-61294790D01*
X171648583Y-61982373D01*
X171679701Y-61939541D01*
X171679702Y-61939541D01*
X171773172Y-61756098D01*
X171836793Y-61560289D01*
X171868999Y-61356943D01*
X171869000Y-61356940D01*
X171869000Y-61151060D01*
X171868999Y-61151056D01*
X171836793Y-60947710D01*
X171773172Y-60751904D01*
X171679704Y-60568462D01*
X171679701Y-60568457D01*
X171648583Y-60525625D01*
X170961000Y-61213208D01*
X170961000Y-61201339D01*
X170933741Y-61099606D01*
X170881080Y-61008394D01*
X170806606Y-60933920D01*
X170715394Y-60881259D01*
X170613661Y-60854000D01*
X170601788Y-60854000D01*
X171289372Y-60166416D01*
X171289372Y-60166415D01*
X171246541Y-60135297D01*
X171063095Y-60041827D01*
X170867289Y-59978206D01*
X170663943Y-59946000D01*
X170458056Y-59946000D01*
X170254710Y-59978206D01*
X170058901Y-60041828D01*
X169875462Y-60135295D01*
X169875456Y-60135299D01*
X169832625Y-60166415D01*
X170520210Y-60854000D01*
X170508339Y-60854000D01*
X170406606Y-60881259D01*
X170315394Y-60933920D01*
X170240920Y-61008394D01*
X170188259Y-61099606D01*
X170161000Y-61201339D01*
X170161000Y-61213210D01*
X169473415Y-60525625D01*
X169442299Y-60568456D01*
X169442295Y-60568462D01*
X169348828Y-60751901D01*
X169285206Y-60947710D01*
X169253000Y-61151056D01*
X159072132Y-61151056D01*
X157123096Y-59202020D01*
X157103638Y-59189019D01*
X157103635Y-59189017D01*
X157019668Y-59132911D01*
X157019666Y-59132910D01*
X156904747Y-59085309D01*
X156904744Y-59085308D01*
X156782737Y-59061040D01*
X155077949Y-59061040D01*
X154981130Y-59041782D01*
X154899051Y-58986938D01*
X154795939Y-58883826D01*
X154650327Y-58778032D01*
X154650320Y-58778028D01*
X154489952Y-58696317D01*
X154318767Y-58640696D01*
X154140996Y-58612540D01*
X154140995Y-58612540D01*
X153961005Y-58612540D01*
X153961003Y-58612540D01*
X153783232Y-58640696D01*
X153612047Y-58696317D01*
X153451679Y-58778028D01*
X153451672Y-58778032D01*
X153306060Y-58883826D01*
X153178786Y-59011100D01*
X153072992Y-59156712D01*
X153072988Y-59156719D01*
X152991277Y-59317087D01*
X152935656Y-59488272D01*
X152907500Y-59666043D01*
X152907500Y-59846036D01*
X152935656Y-60023807D01*
X152991277Y-60194992D01*
X153072988Y-60355360D01*
X153072992Y-60355367D01*
X153178786Y-60500979D01*
X153306060Y-60628253D01*
X153421836Y-60712370D01*
X153451675Y-60734049D01*
X153612048Y-60815763D01*
X153783230Y-60871383D01*
X153961005Y-60899540D01*
X153961007Y-60899540D01*
X154140993Y-60899540D01*
X154140995Y-60899540D01*
X154318770Y-60871383D01*
X154489952Y-60815763D01*
X154650325Y-60734049D01*
X154795940Y-60628253D01*
X154923213Y-60500980D01*
X154958799Y-60452000D01*
X154975998Y-60428329D01*
X155048487Y-60361321D01*
X155141102Y-60327155D01*
X155180678Y-60324040D01*
X156354168Y-60324040D01*
X156450987Y-60343298D01*
X156533066Y-60398142D01*
X159786431Y-63651507D01*
X159841275Y-63733586D01*
X159860533Y-63830405D01*
X159841275Y-63927224D01*
X159786431Y-64009303D01*
X159704352Y-64064147D01*
X159607533Y-64083405D01*
X159510715Y-64064147D01*
X159442202Y-64035768D01*
X159320197Y-64011500D01*
X128461803Y-64011500D01*
X128339798Y-64035768D01*
X128339796Y-64035768D01*
X128339795Y-64035769D01*
X128292192Y-64055486D01*
X128292191Y-64055485D01*
X128224873Y-64083370D01*
X128224869Y-64083371D01*
X128121443Y-64152480D01*
X123832025Y-68441898D01*
X123749946Y-68496742D01*
X123653127Y-68516000D01*
X123486000Y-68516000D01*
X123318101Y-68542592D01*
X123156426Y-68595123D01*
X123004960Y-68672298D01*
X123004953Y-68672302D01*
X122867427Y-68772221D01*
X122747221Y-68892427D01*
X122647302Y-69029953D01*
X122647298Y-69029960D01*
X122588580Y-69145202D01*
X122570124Y-69181424D01*
X122544551Y-69260132D01*
X122541618Y-69269158D01*
X122493383Y-69355287D01*
X122415860Y-69416401D01*
X122320851Y-69443197D01*
X122222819Y-69431595D01*
X122136690Y-69383360D01*
X122075576Y-69305837D01*
X122060382Y-69269158D01*
X122031876Y-69181424D01*
X121954699Y-69029956D01*
X121854778Y-68892427D01*
X121734573Y-68772222D01*
X121734569Y-68772219D01*
X121639789Y-68703356D01*
X121572781Y-68630866D01*
X121538615Y-68538252D01*
X121535500Y-68498676D01*
X121535500Y-67167647D01*
X121554758Y-67070828D01*
X121609602Y-66988749D01*
X121653593Y-66944758D01*
X121727778Y-66870573D01*
X121827699Y-66733044D01*
X121904876Y-66581576D01*
X121957407Y-66419901D01*
X121984000Y-66251998D01*
X121984000Y-66082002D01*
X121957407Y-65914099D01*
X121904876Y-65752424D01*
X121827699Y-65600956D01*
X121727778Y-65463427D01*
X121607573Y-65343222D01*
X121575991Y-65320276D01*
X121470046Y-65243302D01*
X121470039Y-65243298D01*
X121377968Y-65196386D01*
X121318576Y-65166124D01*
X121280413Y-65153724D01*
X121156898Y-65113592D01*
X120988999Y-65087000D01*
X120988998Y-65087000D01*
X120819002Y-65087000D01*
X120819000Y-65087000D01*
X120651101Y-65113592D01*
X120489426Y-65166123D01*
X120337960Y-65243298D01*
X120337953Y-65243302D01*
X120200427Y-65343221D01*
X120080221Y-65463427D01*
X119980302Y-65600953D01*
X119980298Y-65600960D01*
X119926575Y-65706398D01*
X119903124Y-65752424D01*
X119874773Y-65839682D01*
X119874618Y-65840158D01*
X119826383Y-65926287D01*
X119748860Y-65987401D01*
X119653851Y-66014197D01*
X119555819Y-66002595D01*
X119469690Y-65954360D01*
X119408576Y-65876837D01*
X119393382Y-65840158D01*
X119364876Y-65752424D01*
X119287699Y-65600956D01*
X119187778Y-65463427D01*
X119067573Y-65343222D01*
X119035991Y-65320276D01*
X118930046Y-65243302D01*
X118930039Y-65243298D01*
X118837968Y-65196386D01*
X118778576Y-65166124D01*
X118740413Y-65153724D01*
X118616898Y-65113592D01*
X118448999Y-65087000D01*
X118448998Y-65087000D01*
X118279002Y-65087000D01*
X118279000Y-65087000D01*
X118111101Y-65113592D01*
X117949426Y-65166123D01*
X117797960Y-65243298D01*
X117797953Y-65243302D01*
X117660427Y-65343221D01*
X117540221Y-65463427D01*
X117440302Y-65600953D01*
X117440298Y-65600960D01*
X117406523Y-65667249D01*
X117386576Y-65706398D01*
X117382425Y-65714544D01*
X117321311Y-65792067D01*
X117235182Y-65840302D01*
X117137150Y-65851905D01*
X117042141Y-65825110D01*
X116964618Y-65763996D01*
X116916383Y-65677867D01*
X116904000Y-65599685D01*
X116904000Y-65432295D01*
X116904000Y-65432294D01*
X116893196Y-65358139D01*
X116837276Y-65243754D01*
X116747246Y-65153724D01*
X116632861Y-65097804D01*
X116632859Y-65097803D01*
X116632858Y-65097803D01*
X116558707Y-65087000D01*
X116558706Y-65087000D01*
X115089294Y-65087000D01*
X115089292Y-65087000D01*
X115015141Y-65097803D01*
X115015139Y-65097804D01*
X114900754Y-65153724D01*
X114900752Y-65153725D01*
X114900751Y-65153726D01*
X114810726Y-65243751D01*
X114810725Y-65243752D01*
X114810724Y-65243754D01*
X114781586Y-65303356D01*
X114754803Y-65358141D01*
X114744000Y-65432292D01*
X114744000Y-66901707D01*
X114754803Y-66975858D01*
X114754803Y-66975859D01*
X114754804Y-66975861D01*
X114810724Y-67090246D01*
X114900754Y-67180276D01*
X115015139Y-67236196D01*
X115015142Y-67236196D01*
X115032792Y-67244825D01*
X115032349Y-67245729D01*
X115101008Y-67282885D01*
X115163238Y-67359515D01*
X115191406Y-67454126D01*
X115192500Y-67477626D01*
X115192500Y-68722659D01*
X115173242Y-68819478D01*
X115131888Y-68886963D01*
X115127225Y-68892423D01*
X115027302Y-69029953D01*
X115027298Y-69029960D01*
X114969425Y-69143544D01*
X114908311Y-69221067D01*
X114822182Y-69269302D01*
X114724150Y-69280905D01*
X114629141Y-69254110D01*
X114551618Y-69192996D01*
X114503383Y-69106867D01*
X114491000Y-69028685D01*
X114491000Y-68861295D01*
X114491000Y-68861294D01*
X114480196Y-68787139D01*
X114424276Y-68672754D01*
X114334246Y-68582724D01*
X114219861Y-68526804D01*
X114219859Y-68526803D01*
X114219858Y-68526803D01*
X114145707Y-68516000D01*
X114145706Y-68516000D01*
X112676294Y-68516000D01*
X112676292Y-68516000D01*
X112602141Y-68526803D01*
X112602139Y-68526804D01*
X112487754Y-68582724D01*
X112487752Y-68582725D01*
X112487751Y-68582726D01*
X112397726Y-68672751D01*
X112397725Y-68672752D01*
X112397724Y-68672754D01*
X112349098Y-68772219D01*
X112341803Y-68787141D01*
X112331000Y-68861292D01*
X112331000Y-70330707D01*
X112341803Y-70404858D01*
X112341803Y-70404859D01*
X112341804Y-70404861D01*
X112397724Y-70519246D01*
X112487754Y-70609276D01*
X112602139Y-70665196D01*
X112676294Y-70676000D01*
X112676296Y-70676000D01*
X114145704Y-70676000D01*
X114145706Y-70676000D01*
X114219861Y-70665196D01*
X114334246Y-70609276D01*
X114424276Y-70519246D01*
X114480196Y-70404861D01*
X114491000Y-70330706D01*
X114491000Y-70163314D01*
X114510258Y-70066495D01*
X114565102Y-69984416D01*
X114647181Y-69929572D01*
X114744000Y-69910314D01*
X114840819Y-69929572D01*
X114922898Y-69984416D01*
X114969425Y-70048456D01*
X115027295Y-70162034D01*
X115027302Y-70162046D01*
X115127221Y-70299572D01*
X115247427Y-70419778D01*
X115384332Y-70519246D01*
X115384956Y-70519699D01*
X115536424Y-70596876D01*
X115698099Y-70649407D01*
X115866002Y-70676000D01*
X115866004Y-70676000D01*
X116033128Y-70676000D01*
X116129947Y-70695258D01*
X116212026Y-70750102D01*
X117609888Y-72147964D01*
X117664732Y-72230043D01*
X117683990Y-72326862D01*
X117664732Y-72423681D01*
X117609889Y-72505759D01*
X117540221Y-72575427D01*
X117440302Y-72712953D01*
X117440298Y-72712960D01*
X117363122Y-72864427D01*
X117361690Y-72868836D01*
X117360177Y-72871537D01*
X117359316Y-72873616D01*
X117359070Y-72873514D01*
X117313454Y-72954964D01*
X117235929Y-73016077D01*
X117140919Y-73042870D01*
X117042888Y-73031266D01*
X116956760Y-72983030D01*
X116895647Y-72905505D01*
X116880457Y-72868831D01*
X116872601Y-72844652D01*
X116810923Y-72723602D01*
X116791746Y-72685965D01*
X116739403Y-72613921D01*
X116687061Y-72541878D01*
X116561121Y-72415938D01*
X116417035Y-72311254D01*
X116258350Y-72230400D01*
X116258347Y-72230399D01*
X116258345Y-72230398D01*
X116161713Y-72199000D01*
X116088958Y-72175360D01*
X115913052Y-72147500D01*
X115913051Y-72147500D01*
X112016051Y-72147500D01*
X111837949Y-72147500D01*
X111837947Y-72147500D01*
X111662041Y-72175360D01*
X111492649Y-72230400D01*
X111333961Y-72311256D01*
X111333960Y-72311256D01*
X111231213Y-72385905D01*
X111197371Y-72406644D01*
X111140765Y-72435487D01*
X111140755Y-72435493D01*
X110990305Y-72544802D01*
X110858805Y-72676302D01*
X110749488Y-72826763D01*
X110749485Y-72826768D01*
X110665064Y-72992452D01*
X110665061Y-72992459D01*
X110607592Y-73169333D01*
X110578500Y-73353013D01*
X110578500Y-73538986D01*
X110607592Y-73722666D01*
X110665061Y-73899540D01*
X110665064Y-73899547D01*
X110749485Y-74065231D01*
X110749488Y-74065236D01*
X110749491Y-74065241D01*
X110858803Y-74215695D01*
X110990305Y-74347197D01*
X111140759Y-74456509D01*
X111140763Y-74456511D01*
X111140768Y-74456514D01*
X111306452Y-74540935D01*
X111306459Y-74540938D01*
X111306461Y-74540938D01*
X111306462Y-74540939D01*
X111483332Y-74598407D01*
X111667014Y-74627500D01*
X111667015Y-74627500D01*
X111852985Y-74627500D01*
X111852986Y-74627500D01*
X112036668Y-74598407D01*
X112213538Y-74540939D01*
X112213540Y-74540938D01*
X112213547Y-74540935D01*
X112367840Y-74462318D01*
X112379241Y-74456509D01*
X112379250Y-74456501D01*
X112387713Y-74451317D01*
X112388730Y-74452977D01*
X112465716Y-74417489D01*
X112524772Y-74410500D01*
X115913049Y-74410500D01*
X115913051Y-74410500D01*
X116088960Y-74382639D01*
X116258345Y-74327602D01*
X116417035Y-74246746D01*
X116561123Y-74142060D01*
X116687060Y-74016123D01*
X116791746Y-73872035D01*
X116872602Y-73713345D01*
X116880458Y-73689165D01*
X116928690Y-73603041D01*
X117006212Y-73541926D01*
X117101221Y-73515129D01*
X117199253Y-73526731D01*
X117285382Y-73574965D01*
X117346497Y-73652487D01*
X117361691Y-73689168D01*
X117363121Y-73693569D01*
X117363121Y-73693570D01*
X117440298Y-73845039D01*
X117440302Y-73845046D01*
X117540221Y-73982572D01*
X117540222Y-73982573D01*
X117660427Y-74102778D01*
X117797956Y-74202699D01*
X117949424Y-74279876D01*
X118111099Y-74332407D01*
X118279002Y-74359000D01*
X118279004Y-74359000D01*
X118448996Y-74359000D01*
X118448998Y-74359000D01*
X118616901Y-74332407D01*
X118778576Y-74279876D01*
X118930044Y-74202699D01*
X119067573Y-74102778D01*
X119187778Y-73982573D01*
X119287699Y-73845044D01*
X119364876Y-73693576D01*
X119393382Y-73605840D01*
X119441616Y-73519713D01*
X119519139Y-73458598D01*
X119614148Y-73431802D01*
X119712180Y-73443404D01*
X119798309Y-73491638D01*
X119859424Y-73569161D01*
X119874616Y-73605838D01*
X119903124Y-73693576D01*
X119913197Y-73713345D01*
X119980298Y-73845039D01*
X119980302Y-73845046D01*
X120080221Y-73982572D01*
X120080222Y-73982573D01*
X120200427Y-74102778D01*
X120337956Y-74202699D01*
X120489424Y-74279876D01*
X120651099Y-74332407D01*
X120819002Y-74359000D01*
X120819004Y-74359000D01*
X120988996Y-74359000D01*
X120988998Y-74359000D01*
X121156901Y-74332407D01*
X121318576Y-74279876D01*
X121470044Y-74202699D01*
X121607573Y-74102778D01*
X121727778Y-73982573D01*
X121827699Y-73845044D01*
X121904876Y-73693576D01*
X121933382Y-73605840D01*
X121981616Y-73519713D01*
X122059139Y-73458598D01*
X122154148Y-73431802D01*
X122252180Y-73443404D01*
X122338309Y-73491638D01*
X122399424Y-73569161D01*
X122414616Y-73605838D01*
X122443124Y-73693576D01*
X122453197Y-73713345D01*
X122520298Y-73845039D01*
X122520302Y-73845046D01*
X122620221Y-73982572D01*
X122740427Y-74102778D01*
X122877953Y-74202697D01*
X122877960Y-74202701D01*
X123023030Y-74276618D01*
X123087069Y-74323145D01*
X126216442Y-77452518D01*
X126319871Y-77521628D01*
X126319873Y-77521629D01*
X126434792Y-77569230D01*
X126434795Y-77569231D01*
X126434796Y-77569231D01*
X126434798Y-77569232D01*
X126556803Y-77593500D01*
X126681197Y-77593500D01*
X156605628Y-77593500D01*
X156702447Y-77612758D01*
X156784526Y-77667602D01*
X164092526Y-84975602D01*
X164147370Y-85057681D01*
X164166628Y-85154500D01*
X164147370Y-85251319D01*
X164092526Y-85333398D01*
X164010447Y-85388242D01*
X163913628Y-85407500D01*
X138024135Y-85407500D01*
X137927316Y-85388242D01*
X137845237Y-85333398D01*
X137790393Y-85251319D01*
X137775996Y-85203859D01*
X137767232Y-85159798D01*
X137767230Y-85159792D01*
X137719629Y-85044873D01*
X137719628Y-85044871D01*
X137650518Y-84941442D01*
X136849602Y-84140526D01*
X136794758Y-84058447D01*
X136775500Y-83961628D01*
X136775500Y-81899647D01*
X136794758Y-81802828D01*
X136849602Y-81720749D01*
X136931757Y-81638594D01*
X136936647Y-81633704D01*
X136967778Y-81602573D01*
X137067699Y-81465044D01*
X137117589Y-81367128D01*
X137178699Y-81289609D01*
X137264828Y-81241374D01*
X137362859Y-81229770D01*
X137457869Y-81256564D01*
X137535393Y-81317677D01*
X137568436Y-81367130D01*
X137652107Y-81531342D01*
X137652107Y-81531343D01*
X137669081Y-81554706D01*
X138277600Y-80946187D01*
X138277600Y-80952504D01*
X138305295Y-81055865D01*
X138358799Y-81148536D01*
X138434464Y-81224201D01*
X138527135Y-81277705D01*
X138630496Y-81305400D01*
X138636810Y-81305400D01*
X138028292Y-81913917D01*
X138051652Y-81930889D01*
X138220867Y-82017108D01*
X138401479Y-82075792D01*
X138589044Y-82105499D01*
X138589048Y-82105500D01*
X138778952Y-82105500D01*
X138778955Y-82105499D01*
X138966520Y-82075792D01*
X139147132Y-82017108D01*
X139316347Y-81930889D01*
X139339707Y-81913917D01*
X138731190Y-81305400D01*
X138737504Y-81305400D01*
X138840865Y-81277705D01*
X138933536Y-81224201D01*
X139009201Y-81148536D01*
X139062705Y-81055865D01*
X139090400Y-80952504D01*
X139090400Y-80946190D01*
X139698917Y-81554707D01*
X139715889Y-81531347D01*
X139802108Y-81362132D01*
X139860792Y-81181520D01*
X139890499Y-80993955D01*
X139890500Y-80993952D01*
X139890500Y-80804048D01*
X139890499Y-80804046D01*
X139883449Y-80759530D01*
X139883449Y-80759529D01*
X139860792Y-80616479D01*
X139802108Y-80435867D01*
X139715889Y-80266652D01*
X139698917Y-80243292D01*
X139090400Y-80851809D01*
X139090400Y-80845496D01*
X139062705Y-80742135D01*
X139009201Y-80649464D01*
X138933536Y-80573799D01*
X138840865Y-80520295D01*
X138737504Y-80492600D01*
X138731188Y-80492600D01*
X139339707Y-79884081D01*
X139316348Y-79867111D01*
X139147132Y-79780891D01*
X138966520Y-79722207D01*
X138778955Y-79692500D01*
X138589044Y-79692500D01*
X138401479Y-79722207D01*
X138220864Y-79780892D01*
X138051660Y-79867105D01*
X138028292Y-79884082D01*
X138636810Y-80492600D01*
X138630496Y-80492600D01*
X138527135Y-80520295D01*
X138434464Y-80573799D01*
X138358799Y-80649464D01*
X138305295Y-80742135D01*
X138277600Y-80845496D01*
X138277600Y-80851810D01*
X137669082Y-80243292D01*
X137652105Y-80266660D01*
X137652102Y-80266665D01*
X137568436Y-80430869D01*
X137560434Y-80441018D01*
X137555688Y-80453041D01*
X137530104Y-80479491D01*
X137507322Y-80508392D01*
X137496044Y-80514707D01*
X137487059Y-80523998D01*
X137453299Y-80538645D01*
X137421193Y-80556626D01*
X137408357Y-80558145D01*
X137396500Y-80563290D01*
X137359705Y-80563903D01*
X137323161Y-80568229D01*
X137310721Y-80564720D01*
X137297798Y-80564936D01*
X137263568Y-80551421D01*
X137228152Y-80541433D01*
X137218002Y-80533431D01*
X137205980Y-80528685D01*
X137191115Y-80512236D01*
X137150629Y-80480319D01*
X137135023Y-80460056D01*
X137125325Y-80446053D01*
X137067699Y-80332956D01*
X136967778Y-80195427D01*
X136847573Y-80075222D01*
X136847572Y-80075221D01*
X136710046Y-79975302D01*
X136710039Y-79975298D01*
X136621917Y-79930398D01*
X136558576Y-79898124D01*
X136520413Y-79885724D01*
X136396898Y-79845592D01*
X136228999Y-79819000D01*
X136228998Y-79819000D01*
X136059002Y-79819000D01*
X136059000Y-79819000D01*
X135891101Y-79845592D01*
X135729426Y-79898123D01*
X135577960Y-79975298D01*
X135577953Y-79975302D01*
X135440427Y-80075221D01*
X135320221Y-80195427D01*
X135220302Y-80332953D01*
X135220298Y-80332960D01*
X135162645Y-80446111D01*
X135143124Y-80484424D01*
X135115895Y-80568229D01*
X135114618Y-80572158D01*
X135066383Y-80658287D01*
X134988860Y-80719401D01*
X134893851Y-80746197D01*
X134795819Y-80734595D01*
X134709690Y-80686360D01*
X134648576Y-80608837D01*
X134633382Y-80572158D01*
X134604876Y-80484424D01*
X134527699Y-80332956D01*
X134499861Y-80294641D01*
X134427778Y-80195427D01*
X134307572Y-80075221D01*
X134170046Y-79975302D01*
X134170039Y-79975298D01*
X134081917Y-79930398D01*
X134018576Y-79898124D01*
X133980413Y-79885724D01*
X133856898Y-79845592D01*
X133688999Y-79819000D01*
X133688998Y-79819000D01*
X133519002Y-79819000D01*
X133519000Y-79819000D01*
X133351101Y-79845592D01*
X133189426Y-79898123D01*
X133037960Y-79975298D01*
X133037953Y-79975302D01*
X132900427Y-80075221D01*
X132780221Y-80195427D01*
X132680302Y-80332953D01*
X132680298Y-80332960D01*
X132622645Y-80446111D01*
X132603124Y-80484424D01*
X132575895Y-80568229D01*
X132574618Y-80572158D01*
X132526383Y-80658287D01*
X132448860Y-80719401D01*
X132353851Y-80746197D01*
X132255819Y-80734595D01*
X132169690Y-80686360D01*
X132108576Y-80608837D01*
X132093382Y-80572158D01*
X132064876Y-80484424D01*
X131987699Y-80332956D01*
X131959861Y-80294641D01*
X131887778Y-80195427D01*
X131767572Y-80075221D01*
X131630046Y-79975302D01*
X131630039Y-79975298D01*
X131541917Y-79930398D01*
X131478576Y-79898124D01*
X131440413Y-79885724D01*
X131316898Y-79845592D01*
X131148999Y-79819000D01*
X131148998Y-79819000D01*
X130979002Y-79819000D01*
X130979000Y-79819000D01*
X130811101Y-79845592D01*
X130649426Y-79898123D01*
X130497960Y-79975298D01*
X130497953Y-79975302D01*
X130360427Y-80075221D01*
X130240221Y-80195427D01*
X130140302Y-80332953D01*
X130140298Y-80332960D01*
X130082645Y-80446111D01*
X130063124Y-80484424D01*
X130035895Y-80568229D01*
X130034618Y-80572158D01*
X129986383Y-80658287D01*
X129908860Y-80719401D01*
X129813851Y-80746197D01*
X129715819Y-80734595D01*
X129629690Y-80686360D01*
X129568576Y-80608837D01*
X129553382Y-80572158D01*
X129524876Y-80484424D01*
X129447699Y-80332956D01*
X129419861Y-80294641D01*
X129347778Y-80195427D01*
X129227572Y-80075221D01*
X129090046Y-79975302D01*
X129090039Y-79975298D01*
X129001917Y-79930398D01*
X128938576Y-79898124D01*
X128900413Y-79885724D01*
X128776898Y-79845592D01*
X128608999Y-79819000D01*
X128608998Y-79819000D01*
X128439002Y-79819000D01*
X128439000Y-79819000D01*
X128271101Y-79845592D01*
X128109426Y-79898123D01*
X127957960Y-79975298D01*
X127957953Y-79975302D01*
X127820427Y-80075221D01*
X127700221Y-80195427D01*
X127600302Y-80332953D01*
X127600298Y-80332960D01*
X127542645Y-80446111D01*
X127523124Y-80484424D01*
X127495895Y-80568229D01*
X127494618Y-80572158D01*
X127446383Y-80658287D01*
X127368860Y-80719401D01*
X127273851Y-80746197D01*
X127175819Y-80734595D01*
X127089690Y-80686360D01*
X127028576Y-80608837D01*
X127013382Y-80572158D01*
X126984876Y-80484424D01*
X126907699Y-80332956D01*
X126879861Y-80294641D01*
X126807778Y-80195427D01*
X126687572Y-80075221D01*
X126550046Y-79975302D01*
X126550039Y-79975298D01*
X126461917Y-79930398D01*
X126398576Y-79898124D01*
X126360413Y-79885724D01*
X126236898Y-79845592D01*
X126068999Y-79819000D01*
X126068998Y-79819000D01*
X125899002Y-79819000D01*
X125899000Y-79819000D01*
X125731101Y-79845592D01*
X125569426Y-79898123D01*
X125417960Y-79975298D01*
X125417953Y-79975302D01*
X125280427Y-80075221D01*
X125160221Y-80195427D01*
X125060302Y-80332953D01*
X125060298Y-80332960D01*
X125002645Y-80446111D01*
X124983124Y-80484424D01*
X124955895Y-80568229D01*
X124954618Y-80572158D01*
X124906383Y-80658287D01*
X124828860Y-80719401D01*
X124733851Y-80746197D01*
X124635819Y-80734595D01*
X124549690Y-80686360D01*
X124488576Y-80608837D01*
X124473382Y-80572158D01*
X124444876Y-80484424D01*
X124367699Y-80332956D01*
X124339861Y-80294641D01*
X124267778Y-80195427D01*
X124147572Y-80075221D01*
X124010046Y-79975302D01*
X124010039Y-79975298D01*
X123921917Y-79930398D01*
X123858576Y-79898124D01*
X123820413Y-79885724D01*
X123696898Y-79845592D01*
X123528999Y-79819000D01*
X123528998Y-79819000D01*
X123359002Y-79819000D01*
X123359000Y-79819000D01*
X123191101Y-79845592D01*
X123029426Y-79898123D01*
X122877960Y-79975298D01*
X122877953Y-79975302D01*
X122740427Y-80075221D01*
X122620221Y-80195427D01*
X122520302Y-80332953D01*
X122520298Y-80332960D01*
X122462645Y-80446111D01*
X122443124Y-80484424D01*
X122415895Y-80568229D01*
X122414618Y-80572158D01*
X122366383Y-80658287D01*
X122288860Y-80719401D01*
X122193851Y-80746197D01*
X122095819Y-80734595D01*
X122009690Y-80686360D01*
X121948576Y-80608837D01*
X121933382Y-80572158D01*
X121904876Y-80484424D01*
X121827699Y-80332956D01*
X121799861Y-80294641D01*
X121727778Y-80195427D01*
X121607572Y-80075221D01*
X121470046Y-79975302D01*
X121470039Y-79975298D01*
X121381917Y-79930398D01*
X121318576Y-79898124D01*
X121280413Y-79885724D01*
X121156898Y-79845592D01*
X120988999Y-79819000D01*
X120988998Y-79819000D01*
X120819002Y-79819000D01*
X120819000Y-79819000D01*
X120651101Y-79845592D01*
X120489426Y-79898123D01*
X120337960Y-79975298D01*
X120337953Y-79975302D01*
X120200427Y-80075221D01*
X120080221Y-80195427D01*
X119980302Y-80332953D01*
X119980298Y-80332960D01*
X119922645Y-80446111D01*
X119903124Y-80484424D01*
X119875895Y-80568229D01*
X119874618Y-80572158D01*
X119826383Y-80658287D01*
X119748860Y-80719401D01*
X119653851Y-80746197D01*
X119555819Y-80734595D01*
X119469690Y-80686360D01*
X119408576Y-80608837D01*
X119393382Y-80572158D01*
X119364876Y-80484424D01*
X119287699Y-80332956D01*
X119259861Y-80294641D01*
X119187778Y-80195427D01*
X119067572Y-80075221D01*
X118930046Y-79975302D01*
X118930039Y-79975298D01*
X118841917Y-79930398D01*
X118778576Y-79898124D01*
X118740413Y-79885724D01*
X118616898Y-79845592D01*
X118448999Y-79819000D01*
X118448998Y-79819000D01*
X118279002Y-79819000D01*
X118279000Y-79819000D01*
X118111101Y-79845592D01*
X117949426Y-79898123D01*
X117797960Y-79975298D01*
X117797953Y-79975302D01*
X117660427Y-80075221D01*
X117540221Y-80195427D01*
X117440302Y-80332953D01*
X117440298Y-80332960D01*
X117395124Y-80421620D01*
X117382646Y-80446111D01*
X117382425Y-80446544D01*
X117321311Y-80524067D01*
X117235182Y-80572302D01*
X117137150Y-80583905D01*
X117042141Y-80557110D01*
X116964618Y-80495996D01*
X116916383Y-80409867D01*
X116904000Y-80331685D01*
X116904000Y-80164295D01*
X116904000Y-80164294D01*
X116893196Y-80090139D01*
X116837276Y-79975754D01*
X116747246Y-79885724D01*
X116632861Y-79829804D01*
X116632859Y-79829803D01*
X116632858Y-79829803D01*
X116558707Y-79819000D01*
X116558706Y-79819000D01*
X115089294Y-79819000D01*
X115089292Y-79819000D01*
X115015141Y-79829803D01*
X115015139Y-79829804D01*
X114900754Y-79885724D01*
X114900752Y-79885725D01*
X114900751Y-79885726D01*
X114810726Y-79975751D01*
X114810725Y-79975752D01*
X114810724Y-79975754D01*
X114780828Y-80036907D01*
X114754803Y-80090141D01*
X114744000Y-80164292D01*
X114744000Y-81633707D01*
X114754803Y-81707858D01*
X114754803Y-81707859D01*
X114754804Y-81707861D01*
X114810724Y-81822246D01*
X114900754Y-81912276D01*
X115015139Y-81968196D01*
X115015142Y-81968196D01*
X115032792Y-81976825D01*
X115032349Y-81977729D01*
X115101008Y-82014885D01*
X115163238Y-82091515D01*
X115191406Y-82186126D01*
X115192500Y-82209626D01*
X115192500Y-83453628D01*
X115173242Y-83550447D01*
X115118398Y-83632526D01*
X113809481Y-84941442D01*
X113740371Y-85044871D01*
X113740370Y-85044873D01*
X113692769Y-85159792D01*
X113692769Y-85159793D01*
X113684004Y-85203859D01*
X113646226Y-85295060D01*
X113576424Y-85364862D01*
X113485222Y-85402639D01*
X113435865Y-85407500D01*
X109959796Y-85407500D01*
X109862977Y-85388242D01*
X109780898Y-85333398D01*
X109611602Y-85164102D01*
X109556758Y-85082023D01*
X109537500Y-84985204D01*
X109537500Y-78343056D01*
X110452000Y-78343056D01*
X110452000Y-78548943D01*
X110484206Y-78752289D01*
X110547827Y-78948095D01*
X110641297Y-79131541D01*
X110672415Y-79174372D01*
X110672416Y-79174372D01*
X111360000Y-78486788D01*
X111360000Y-78498661D01*
X111387259Y-78600394D01*
X111439920Y-78691606D01*
X111514394Y-78766080D01*
X111605606Y-78818741D01*
X111707339Y-78846000D01*
X111719210Y-78846000D01*
X111031625Y-79533583D01*
X111074457Y-79564701D01*
X111074462Y-79564704D01*
X111257904Y-79658172D01*
X111453710Y-79721793D01*
X111657056Y-79753999D01*
X111657060Y-79754000D01*
X111862940Y-79754000D01*
X111862943Y-79753999D01*
X112066289Y-79721793D01*
X112262098Y-79658172D01*
X112266270Y-79656046D01*
X152781000Y-79656046D01*
X152781000Y-79855953D01*
X152812271Y-80053389D01*
X152874044Y-80243508D01*
X152964796Y-80421620D01*
X152964801Y-80421629D01*
X152990621Y-80457166D01*
X152990622Y-80457166D01*
X153560309Y-79887478D01*
X153577619Y-79952081D01*
X153644498Y-80067920D01*
X153739080Y-80162502D01*
X153854919Y-80229381D01*
X153919519Y-80246690D01*
X153349831Y-80816376D01*
X153385373Y-80842199D01*
X153385375Y-80842201D01*
X153563488Y-80932955D01*
X153753610Y-80994728D01*
X153951046Y-81025999D01*
X153951051Y-81026000D01*
X154150949Y-81026000D01*
X154150953Y-81025999D01*
X154348389Y-80994728D01*
X154538505Y-80932956D01*
X154716628Y-80842198D01*
X154752167Y-80816377D01*
X154182480Y-80246690D01*
X154247081Y-80229381D01*
X154362920Y-80162502D01*
X154457502Y-80067920D01*
X154524381Y-79952081D01*
X154541690Y-79887480D01*
X155111377Y-80457167D01*
X155137198Y-80421628D01*
X155227956Y-80243505D01*
X155289728Y-80053389D01*
X155320999Y-79855953D01*
X155321000Y-79855948D01*
X155321000Y-79656051D01*
X155320999Y-79656046D01*
X155289728Y-79458610D01*
X155227955Y-79268488D01*
X155137201Y-79090375D01*
X155137199Y-79090373D01*
X155111376Y-79054831D01*
X154541690Y-79624518D01*
X154524381Y-79559919D01*
X154457502Y-79444080D01*
X154362920Y-79349498D01*
X154247081Y-79282619D01*
X154182478Y-79265309D01*
X154752166Y-78695622D01*
X154752166Y-78695621D01*
X154716629Y-78669801D01*
X154716620Y-78669796D01*
X154538508Y-78579044D01*
X154348389Y-78517271D01*
X154150953Y-78486000D01*
X153951046Y-78486000D01*
X153753610Y-78517271D01*
X153563494Y-78579043D01*
X153385375Y-78669799D01*
X153349832Y-78695622D01*
X153919519Y-79265309D01*
X153854919Y-79282619D01*
X153739080Y-79349498D01*
X153644498Y-79444080D01*
X153577619Y-79559919D01*
X153560309Y-79624519D01*
X152990622Y-79054832D01*
X152964799Y-79090375D01*
X152874043Y-79268494D01*
X152812271Y-79458610D01*
X152781000Y-79656046D01*
X112266270Y-79656046D01*
X112445541Y-79564702D01*
X112445541Y-79564701D01*
X112488373Y-79533583D01*
X111800790Y-78846000D01*
X111812661Y-78846000D01*
X111914394Y-78818741D01*
X112005606Y-78766080D01*
X112080080Y-78691606D01*
X112132741Y-78600394D01*
X112160000Y-78498661D01*
X112160000Y-78486790D01*
X112847583Y-79174373D01*
X112878701Y-79131541D01*
X112878702Y-79131541D01*
X112972172Y-78948098D01*
X113035793Y-78752287D01*
X113067999Y-78548945D01*
X113068000Y-78548940D01*
X113068000Y-78343060D01*
X113067999Y-78343056D01*
X113035793Y-78139710D01*
X112972172Y-77943904D01*
X112878704Y-77760462D01*
X112878701Y-77760457D01*
X112847583Y-77717625D01*
X112160000Y-78405208D01*
X112160000Y-78393339D01*
X112132741Y-78291606D01*
X112080080Y-78200394D01*
X112005606Y-78125920D01*
X111914394Y-78073259D01*
X111812661Y-78046000D01*
X111800788Y-78046000D01*
X112488372Y-77358416D01*
X112488372Y-77358415D01*
X112445541Y-77327297D01*
X112262095Y-77233827D01*
X112066289Y-77170206D01*
X111862943Y-77138000D01*
X111657056Y-77138000D01*
X111453710Y-77170206D01*
X111257901Y-77233828D01*
X111074462Y-77327295D01*
X111074456Y-77327299D01*
X111031625Y-77358415D01*
X111719210Y-78046000D01*
X111707339Y-78046000D01*
X111605606Y-78073259D01*
X111514394Y-78125920D01*
X111439920Y-78200394D01*
X111387259Y-78291606D01*
X111360000Y-78393339D01*
X111360000Y-78405210D01*
X110672415Y-77717625D01*
X110641299Y-77760456D01*
X110641295Y-77760462D01*
X110547828Y-77943901D01*
X110484206Y-78139710D01*
X110452000Y-78343056D01*
X109537500Y-78343056D01*
X109537500Y-57889796D01*
X109556758Y-57792977D01*
X109611602Y-57710898D01*
X109780898Y-57541602D01*
X109862977Y-57486758D01*
X109959796Y-57467500D01*
X114608041Y-57467500D01*
X115084031Y-57467500D01*
X115106463Y-57482492D01*
G37*
%TD.AperFunction*%
%TA.AperFunction,Conductor*%
G36*
X157464447Y-70500758D02*
G01*
X157546526Y-70555602D01*
X161268442Y-74277518D01*
X161371871Y-74346628D01*
X161371873Y-74346629D01*
X161486792Y-74394230D01*
X161486795Y-74394231D01*
X161486796Y-74394231D01*
X161486798Y-74394232D01*
X161608803Y-74418500D01*
X166935930Y-74418500D01*
X167032749Y-74437758D01*
X167114828Y-74492602D01*
X167169672Y-74574681D01*
X167188930Y-74671500D01*
X167188150Y-74691355D01*
X167182292Y-74765767D01*
X167790810Y-75374285D01*
X167784496Y-75374285D01*
X167681135Y-75401980D01*
X167588464Y-75455484D01*
X167512799Y-75531149D01*
X167459295Y-75623820D01*
X167431600Y-75727181D01*
X167431600Y-75733495D01*
X166823082Y-75124977D01*
X166806105Y-75148345D01*
X166719892Y-75317549D01*
X166661207Y-75498164D01*
X166631500Y-75685729D01*
X166631500Y-75875640D01*
X166661207Y-76063205D01*
X166719891Y-76243817D01*
X166806110Y-76413032D01*
X166823081Y-76436391D01*
X167431600Y-75827872D01*
X167431600Y-75834189D01*
X167459295Y-75937550D01*
X167512799Y-76030221D01*
X167588464Y-76105886D01*
X167681135Y-76159390D01*
X167784496Y-76187085D01*
X167790810Y-76187085D01*
X167182292Y-76795602D01*
X167205652Y-76812574D01*
X167374867Y-76898793D01*
X167555479Y-76957477D01*
X167743044Y-76987184D01*
X167743048Y-76987185D01*
X167932952Y-76987185D01*
X167932955Y-76987184D01*
X168120520Y-76957477D01*
X168301132Y-76898793D01*
X168470347Y-76812574D01*
X168493707Y-76795602D01*
X167885190Y-76187085D01*
X167891504Y-76187085D01*
X167994865Y-76159390D01*
X168087536Y-76105886D01*
X168163201Y-76030221D01*
X168216705Y-75937550D01*
X168244400Y-75834189D01*
X168244400Y-75827875D01*
X168852917Y-76436392D01*
X168869889Y-76413032D01*
X168956108Y-76243817D01*
X169014792Y-76063205D01*
X169044499Y-75875640D01*
X169044500Y-75875637D01*
X169044500Y-75685733D01*
X169044499Y-75685729D01*
X169014792Y-75498164D01*
X168956108Y-75317552D01*
X168869889Y-75148337D01*
X168852917Y-75124977D01*
X168244400Y-75733494D01*
X168244400Y-75727181D01*
X168216705Y-75623820D01*
X168163201Y-75531149D01*
X168087536Y-75455484D01*
X167994865Y-75401980D01*
X167891504Y-75374285D01*
X167885188Y-75374285D01*
X168493706Y-74765766D01*
X168487850Y-74691351D01*
X168499453Y-74593319D01*
X168547687Y-74507190D01*
X168625210Y-74446076D01*
X168720219Y-74419280D01*
X168740070Y-74418500D01*
X170110930Y-74418500D01*
X170207749Y-74437758D01*
X170289828Y-74492602D01*
X170344672Y-74574681D01*
X170363930Y-74671500D01*
X170363150Y-74691355D01*
X170357292Y-74765767D01*
X170965810Y-75374285D01*
X170959496Y-75374285D01*
X170856135Y-75401980D01*
X170763464Y-75455484D01*
X170687799Y-75531149D01*
X170634295Y-75623820D01*
X170606600Y-75727181D01*
X170606600Y-75733495D01*
X169998082Y-75124977D01*
X169981105Y-75148345D01*
X169894892Y-75317549D01*
X169836207Y-75498164D01*
X169806500Y-75685729D01*
X169806500Y-75875640D01*
X169836207Y-76063205D01*
X169894891Y-76243817D01*
X169981110Y-76413032D01*
X169998081Y-76436391D01*
X170606600Y-75827872D01*
X170606600Y-75834189D01*
X170634295Y-75937550D01*
X170687799Y-76030221D01*
X170763464Y-76105886D01*
X170856135Y-76159390D01*
X170959496Y-76187085D01*
X170965810Y-76187085D01*
X170357292Y-76795602D01*
X170380652Y-76812574D01*
X170549867Y-76898793D01*
X170730479Y-76957477D01*
X170918044Y-76987184D01*
X170918048Y-76987185D01*
X171107952Y-76987185D01*
X171107955Y-76987184D01*
X171295520Y-76957477D01*
X171476132Y-76898793D01*
X171645347Y-76812574D01*
X171668707Y-76795602D01*
X171060190Y-76187085D01*
X171066504Y-76187085D01*
X171169865Y-76159390D01*
X171262536Y-76105886D01*
X171338201Y-76030221D01*
X171391705Y-75937550D01*
X171419400Y-75834189D01*
X171419400Y-75827875D01*
X172027917Y-76436392D01*
X172044889Y-76413032D01*
X172131108Y-76243817D01*
X172189792Y-76063205D01*
X172219499Y-75875640D01*
X172219500Y-75875637D01*
X172219500Y-75685733D01*
X172219499Y-75685729D01*
X172189792Y-75498164D01*
X172131108Y-75317552D01*
X172044889Y-75148337D01*
X172027917Y-75124977D01*
X171419400Y-75733494D01*
X171419400Y-75727181D01*
X171391705Y-75623820D01*
X171338201Y-75531149D01*
X171262536Y-75455484D01*
X171169865Y-75401980D01*
X171066504Y-75374285D01*
X171060188Y-75374285D01*
X171668706Y-74765766D01*
X171662850Y-74691351D01*
X171674453Y-74593319D01*
X171722687Y-74507190D01*
X171800210Y-74446076D01*
X171895219Y-74419280D01*
X171915070Y-74418500D01*
X173158888Y-74418500D01*
X173255707Y-74437758D01*
X173337786Y-74492602D01*
X173392630Y-74574681D01*
X173411888Y-74671500D01*
X173392630Y-74768319D01*
X173379420Y-74795495D01*
X173372358Y-74808054D01*
X173318756Y-74943979D01*
X173308500Y-75029377D01*
X173308500Y-76862602D01*
X173308501Y-76862613D01*
X173318756Y-76948019D01*
X173318756Y-76948020D01*
X173318757Y-76948023D01*
X173334201Y-76987185D01*
X173372356Y-77083941D01*
X173372359Y-77083946D01*
X173460637Y-77200359D01*
X173460640Y-77200362D01*
X173577053Y-77288640D01*
X173577055Y-77288642D01*
X173577056Y-77288642D01*
X173577057Y-77288643D01*
X173712977Y-77342243D01*
X173712979Y-77342243D01*
X173728067Y-77348193D01*
X173726869Y-77351230D01*
X173791437Y-77381935D01*
X173857577Y-77455218D01*
X173890637Y-77548233D01*
X173885586Y-77646820D01*
X173843192Y-77735968D01*
X173819196Y-77763727D01*
X173421526Y-78161398D01*
X173339447Y-78216241D01*
X173242628Y-78235500D01*
X170086988Y-78235500D01*
X169964980Y-78259768D01*
X169964977Y-78259769D01*
X169850058Y-78307370D01*
X169850056Y-78307371D01*
X169746627Y-78376481D01*
X168416525Y-79706583D01*
X168334446Y-79761427D01*
X168237627Y-79780685D01*
X168070500Y-79780685D01*
X167902601Y-79807277D01*
X167740926Y-79859808D01*
X167589460Y-79936983D01*
X167589453Y-79936987D01*
X167451927Y-80036906D01*
X167331721Y-80157112D01*
X167231802Y-80294638D01*
X167231798Y-80294645D01*
X167154623Y-80446111D01*
X167102092Y-80607786D01*
X167075500Y-80775685D01*
X167075500Y-80945684D01*
X167102092Y-81113583D01*
X167102093Y-81113586D01*
X167154624Y-81275261D01*
X167193447Y-81351456D01*
X167231798Y-81426724D01*
X167231802Y-81426731D01*
X167331721Y-81564257D01*
X167451927Y-81684463D01*
X167576735Y-81775142D01*
X167589456Y-81784384D01*
X167740924Y-81861561D01*
X167902599Y-81914092D01*
X168070502Y-81940685D01*
X168070504Y-81940685D01*
X168240496Y-81940685D01*
X168240498Y-81940685D01*
X168408401Y-81914092D01*
X168570076Y-81861561D01*
X168721544Y-81784384D01*
X168859073Y-81684463D01*
X168979278Y-81564258D01*
X169079199Y-81426729D01*
X169156376Y-81275261D01*
X169184882Y-81187525D01*
X169233116Y-81101398D01*
X169310639Y-81040283D01*
X169405648Y-81013487D01*
X169503680Y-81025089D01*
X169589809Y-81073323D01*
X169650924Y-81150846D01*
X169666116Y-81187523D01*
X169694624Y-81275261D01*
X169733447Y-81351456D01*
X169771798Y-81426724D01*
X169771802Y-81426731D01*
X169871721Y-81564257D01*
X169991927Y-81684463D01*
X170116735Y-81775142D01*
X170129456Y-81784384D01*
X170280924Y-81861561D01*
X170442599Y-81914092D01*
X170610502Y-81940685D01*
X170610504Y-81940685D01*
X170780496Y-81940685D01*
X170780498Y-81940685D01*
X170948401Y-81914092D01*
X171110076Y-81861561D01*
X171261544Y-81784384D01*
X171399073Y-81684463D01*
X171517249Y-81566287D01*
X171599328Y-81511443D01*
X171696147Y-81492185D01*
X173670943Y-81492185D01*
X173767762Y-81511443D01*
X173849841Y-81566287D01*
X173904685Y-81648366D01*
X173923943Y-81745185D01*
X173904685Y-81842004D01*
X173849841Y-81924083D01*
X170440526Y-85333398D01*
X170358447Y-85388242D01*
X170261628Y-85407500D01*
X165984500Y-85407500D01*
X165887681Y-85388242D01*
X165805602Y-85333398D01*
X165750758Y-85251319D01*
X165731500Y-85154500D01*
X165731500Y-85027802D01*
X165714322Y-84941441D01*
X165707232Y-84905798D01*
X165705877Y-84902526D01*
X165659629Y-84790873D01*
X165659628Y-84790871D01*
X165590518Y-84687442D01*
X157374557Y-76471481D01*
X157271128Y-76402371D01*
X157271126Y-76402370D01*
X157156207Y-76354769D01*
X157156204Y-76354768D01*
X157034197Y-76330500D01*
X126985372Y-76330500D01*
X126888553Y-76311242D01*
X126806474Y-76256398D01*
X125191275Y-74641199D01*
X125136431Y-74559120D01*
X125117173Y-74462301D01*
X125136431Y-74365482D01*
X125191275Y-74283403D01*
X125273354Y-74228559D01*
X125370173Y-74209301D01*
X125466992Y-74228559D01*
X125485031Y-74236875D01*
X125569424Y-74279876D01*
X125731099Y-74332407D01*
X125899002Y-74359000D01*
X125899004Y-74359000D01*
X126068996Y-74359000D01*
X126068998Y-74359000D01*
X126236901Y-74332407D01*
X126398576Y-74279876D01*
X126550044Y-74202699D01*
X126687573Y-74102778D01*
X126807778Y-73982573D01*
X126907699Y-73845044D01*
X126984876Y-73693576D01*
X127013382Y-73605840D01*
X127061616Y-73519713D01*
X127139139Y-73458598D01*
X127234148Y-73431802D01*
X127332180Y-73443404D01*
X127418309Y-73491638D01*
X127479424Y-73569161D01*
X127494616Y-73605838D01*
X127523124Y-73693576D01*
X127533197Y-73713345D01*
X127600298Y-73845039D01*
X127600302Y-73845046D01*
X127700221Y-73982572D01*
X127700222Y-73982573D01*
X127820427Y-74102778D01*
X127957956Y-74202699D01*
X128109424Y-74279876D01*
X128271099Y-74332407D01*
X128439002Y-74359000D01*
X128439004Y-74359000D01*
X128608996Y-74359000D01*
X128608998Y-74359000D01*
X128776901Y-74332407D01*
X128938576Y-74279876D01*
X129090044Y-74202699D01*
X129227573Y-74102778D01*
X129347778Y-73982573D01*
X129447699Y-73845044D01*
X129524876Y-73693576D01*
X129553382Y-73605840D01*
X129601616Y-73519713D01*
X129679139Y-73458598D01*
X129774148Y-73431802D01*
X129872180Y-73443404D01*
X129958309Y-73491638D01*
X130019424Y-73569161D01*
X130034616Y-73605838D01*
X130063124Y-73693576D01*
X130073197Y-73713345D01*
X130140298Y-73845039D01*
X130140302Y-73845046D01*
X130240221Y-73982572D01*
X130240222Y-73982573D01*
X130360427Y-74102778D01*
X130497956Y-74202699D01*
X130649424Y-74279876D01*
X130811099Y-74332407D01*
X130979002Y-74359000D01*
X130979004Y-74359000D01*
X131148996Y-74359000D01*
X131148998Y-74359000D01*
X131316901Y-74332407D01*
X131478576Y-74279876D01*
X131630044Y-74202699D01*
X131767573Y-74102778D01*
X131887778Y-73982573D01*
X131987699Y-73845044D01*
X132064876Y-73693576D01*
X132093382Y-73605840D01*
X132141616Y-73519713D01*
X132219139Y-73458598D01*
X132314148Y-73431802D01*
X132412180Y-73443404D01*
X132498309Y-73491638D01*
X132559424Y-73569161D01*
X132574616Y-73605838D01*
X132603124Y-73693576D01*
X132613197Y-73713345D01*
X132680298Y-73845039D01*
X132680302Y-73845046D01*
X132780221Y-73982572D01*
X132780222Y-73982573D01*
X132900427Y-74102778D01*
X133037956Y-74202699D01*
X133189424Y-74279876D01*
X133351099Y-74332407D01*
X133519002Y-74359000D01*
X133519004Y-74359000D01*
X133688996Y-74359000D01*
X133688998Y-74359000D01*
X133856901Y-74332407D01*
X134018576Y-74279876D01*
X134170044Y-74202699D01*
X134307573Y-74102778D01*
X134427778Y-73982573D01*
X134527699Y-73845044D01*
X134604876Y-73693576D01*
X134633382Y-73605840D01*
X134681616Y-73519713D01*
X134759139Y-73458598D01*
X134854148Y-73431802D01*
X134952180Y-73443404D01*
X135038309Y-73491638D01*
X135099424Y-73569161D01*
X135114616Y-73605838D01*
X135143124Y-73693576D01*
X135153197Y-73713345D01*
X135220298Y-73845039D01*
X135220302Y-73845046D01*
X135320221Y-73982572D01*
X135320222Y-73982573D01*
X135440427Y-74102778D01*
X135577956Y-74202699D01*
X135729424Y-74279876D01*
X135891099Y-74332407D01*
X136059002Y-74359000D01*
X136059004Y-74359000D01*
X136228996Y-74359000D01*
X136228998Y-74359000D01*
X136396901Y-74332407D01*
X136558576Y-74279876D01*
X136710044Y-74202699D01*
X136847573Y-74102778D01*
X136967778Y-73982573D01*
X137067699Y-73845044D01*
X137144876Y-73693576D01*
X137173382Y-73605840D01*
X137221616Y-73519713D01*
X137299139Y-73458598D01*
X137394148Y-73431802D01*
X137492180Y-73443404D01*
X137578309Y-73491638D01*
X137639424Y-73569161D01*
X137654616Y-73605838D01*
X137683124Y-73693576D01*
X137693197Y-73713345D01*
X137760298Y-73845039D01*
X137760302Y-73845046D01*
X137860221Y-73982572D01*
X137860222Y-73982573D01*
X137980427Y-74102778D01*
X138117956Y-74202699D01*
X138269424Y-74279876D01*
X138431099Y-74332407D01*
X138599002Y-74359000D01*
X138599004Y-74359000D01*
X138768996Y-74359000D01*
X138768998Y-74359000D01*
X138936901Y-74332407D01*
X139098576Y-74279876D01*
X139250044Y-74202699D01*
X139387573Y-74102778D01*
X139507778Y-73982573D01*
X139607699Y-73845044D01*
X139684876Y-73693576D01*
X139737407Y-73531901D01*
X139764000Y-73363998D01*
X139764000Y-73194002D01*
X139737407Y-73026099D01*
X139684876Y-72864424D01*
X139607699Y-72712956D01*
X139581070Y-72676305D01*
X139507778Y-72575427D01*
X139387572Y-72455221D01*
X139250046Y-72355302D01*
X139250039Y-72355298D01*
X139163597Y-72311254D01*
X139098576Y-72278124D01*
X139075346Y-72270576D01*
X138936898Y-72225592D01*
X138768999Y-72199000D01*
X138768998Y-72199000D01*
X138599002Y-72199000D01*
X138599000Y-72199000D01*
X138431101Y-72225592D01*
X138269426Y-72278123D01*
X138117960Y-72355298D01*
X138117953Y-72355302D01*
X137980427Y-72455221D01*
X137860221Y-72575427D01*
X137760302Y-72712953D01*
X137760298Y-72712960D01*
X137713055Y-72805681D01*
X137683124Y-72864424D01*
X137670753Y-72902500D01*
X137654618Y-72952158D01*
X137606383Y-73038287D01*
X137528860Y-73099401D01*
X137433851Y-73126197D01*
X137335819Y-73114595D01*
X137249690Y-73066360D01*
X137188576Y-72988837D01*
X137173382Y-72952158D01*
X137144876Y-72864424D01*
X137067699Y-72712956D01*
X137041070Y-72676305D01*
X136967778Y-72575427D01*
X136847572Y-72455221D01*
X136710046Y-72355302D01*
X136710039Y-72355298D01*
X136623597Y-72311254D01*
X136558576Y-72278124D01*
X136535346Y-72270576D01*
X136396898Y-72225592D01*
X136228999Y-72199000D01*
X136228998Y-72199000D01*
X136059002Y-72199000D01*
X136059000Y-72199000D01*
X135891101Y-72225592D01*
X135729426Y-72278123D01*
X135577960Y-72355298D01*
X135577953Y-72355302D01*
X135440427Y-72455221D01*
X135320221Y-72575427D01*
X135220302Y-72712953D01*
X135220298Y-72712960D01*
X135173055Y-72805681D01*
X135143124Y-72864424D01*
X135130753Y-72902500D01*
X135114618Y-72952158D01*
X135066383Y-73038287D01*
X134988860Y-73099401D01*
X134893851Y-73126197D01*
X134795819Y-73114595D01*
X134709690Y-73066360D01*
X134648576Y-72988837D01*
X134633382Y-72952158D01*
X134604876Y-72864424D01*
X134527699Y-72712956D01*
X134501070Y-72676305D01*
X134427778Y-72575427D01*
X134307572Y-72455221D01*
X134170046Y-72355302D01*
X134170039Y-72355298D01*
X134083597Y-72311254D01*
X134018576Y-72278124D01*
X133995346Y-72270576D01*
X133856898Y-72225592D01*
X133688999Y-72199000D01*
X133688998Y-72199000D01*
X133519002Y-72199000D01*
X133519000Y-72199000D01*
X133351101Y-72225592D01*
X133189426Y-72278123D01*
X133037960Y-72355298D01*
X133037953Y-72355302D01*
X132900427Y-72455221D01*
X132780221Y-72575427D01*
X132680302Y-72712953D01*
X132680298Y-72712960D01*
X132633055Y-72805681D01*
X132603124Y-72864424D01*
X132590753Y-72902500D01*
X132574618Y-72952158D01*
X132526383Y-73038287D01*
X132448860Y-73099401D01*
X132353851Y-73126197D01*
X132255819Y-73114595D01*
X132169690Y-73066360D01*
X132108576Y-72988837D01*
X132093382Y-72952158D01*
X132064876Y-72864424D01*
X131987699Y-72712956D01*
X131961070Y-72676305D01*
X131887778Y-72575427D01*
X131769602Y-72457251D01*
X131714758Y-72375172D01*
X131695500Y-72278353D01*
X131695500Y-71613372D01*
X131714758Y-71516553D01*
X131769602Y-71434474D01*
X132648474Y-70555602D01*
X132730553Y-70500758D01*
X132827372Y-70481500D01*
X157367628Y-70481500D01*
X157464447Y-70500758D01*
G37*
%TD.AperFunction*%
%TA.AperFunction,Conductor*%
G36*
X117683362Y-57507152D02*
G01*
X118316810Y-58140600D01*
X118310496Y-58140600D01*
X118207135Y-58168295D01*
X118114464Y-58221799D01*
X118038799Y-58297464D01*
X117985295Y-58390135D01*
X117957600Y-58493496D01*
X117957600Y-58499810D01*
X117323566Y-57865776D01*
X117268722Y-57783697D01*
X117249464Y-57686878D01*
X117268722Y-57590059D01*
X117323566Y-57507980D01*
X117384148Y-57467500D01*
X117624031Y-57467500D01*
X117683362Y-57507152D01*
G37*
%TD.AperFunction*%
%TA.AperFunction,Conductor*%
G36*
X120223362Y-57507152D02*
G01*
X120856810Y-58140600D01*
X120850496Y-58140600D01*
X120747135Y-58168295D01*
X120654464Y-58221799D01*
X120578799Y-58297464D01*
X120525295Y-58390135D01*
X120497600Y-58493496D01*
X120497600Y-58499810D01*
X119863566Y-57865776D01*
X119808722Y-57783697D01*
X119789464Y-57686878D01*
X119808722Y-57590059D01*
X119863566Y-57507980D01*
X119924148Y-57467500D01*
X120164031Y-57467500D01*
X120223362Y-57507152D01*
G37*
%TD.AperFunction*%
%TA.AperFunction,Conductor*%
G36*
X116864476Y-57508024D02*
G01*
X116919299Y-57590116D01*
X116938534Y-57686940D01*
X116919252Y-57783754D01*
X116864432Y-57865776D01*
X116230400Y-58499808D01*
X116230400Y-58493496D01*
X116202705Y-58390135D01*
X116149201Y-58297464D01*
X116073536Y-58221799D01*
X115980865Y-58168295D01*
X115877504Y-58140600D01*
X115871188Y-58140600D01*
X116504636Y-57507151D01*
X116563978Y-57467500D01*
X116803860Y-57467500D01*
X116864476Y-57508024D01*
G37*
%TD.AperFunction*%
%TA.AperFunction,Conductor*%
G36*
X119404476Y-57508024D02*
G01*
X119459299Y-57590116D01*
X119478534Y-57686940D01*
X119459252Y-57783754D01*
X119404432Y-57865776D01*
X118770400Y-58499808D01*
X118770400Y-58493496D01*
X118742705Y-58390135D01*
X118689201Y-58297464D01*
X118613536Y-58221799D01*
X118520865Y-58168295D01*
X118417504Y-58140600D01*
X118411188Y-58140600D01*
X119044636Y-57507151D01*
X119103978Y-57467500D01*
X119343860Y-57467500D01*
X119404476Y-57508024D01*
G37*
%TD.AperFunction*%
%TD*%
M02*
