%TF.GenerationSoftware,KiCad,Pcbnew,10.0.6*%
%TF.CreationDate,2026-09-29T22:27:34+02:00*%
%TF.ProjectId,RTC8088,52544338-3038-4382-9e6b-696361645f70,3.0*%
%TF.SameCoordinates,Original*%
%TF.FileFunction,Legend,Top*%
%TF.FilePolarity,Positive*%
%FSLAX46Y46*%
G04 Gerber Fmt 4.6, Leading zero omitted, Abs format (unit mm)*
G04 Created by KiCad (PCBNEW 10.0.6) date 2026-09-29 22:27:34*
%MOMM*%
%LPD*%
G01*
G04 APERTURE LIST*
%ADD10C,0.150000*%
%ADD11C,0.250000*%
%ADD12C,0.120000*%
G04 APERTURE END LIST*
D10*
X125361064Y-58344300D02*
X125742017Y-58344300D01*
X125284874Y-58630015D02*
X125551541Y-57630015D01*
X125551541Y-57630015D02*
X125818207Y-58630015D01*
X126427731Y-58630015D02*
X126427731Y-57630015D01*
X126427731Y-58582396D02*
X126351540Y-58630015D01*
X126351540Y-58630015D02*
X126199159Y-58630015D01*
X126199159Y-58630015D02*
X126122969Y-58582396D01*
X126122969Y-58582396D02*
X126084874Y-58534776D01*
X126084874Y-58534776D02*
X126046778Y-58439538D01*
X126046778Y-58439538D02*
X126046778Y-58153824D01*
X126046778Y-58153824D02*
X126084874Y-58058586D01*
X126084874Y-58058586D02*
X126122969Y-58010967D01*
X126122969Y-58010967D02*
X126199159Y-57963348D01*
X126199159Y-57963348D02*
X126351540Y-57963348D01*
X126351540Y-57963348D02*
X126427731Y-58010967D01*
X127151541Y-58630015D02*
X127151541Y-57630015D01*
X127151541Y-58582396D02*
X127075350Y-58630015D01*
X127075350Y-58630015D02*
X126922969Y-58630015D01*
X126922969Y-58630015D02*
X126846779Y-58582396D01*
X126846779Y-58582396D02*
X126808684Y-58534776D01*
X126808684Y-58534776D02*
X126770588Y-58439538D01*
X126770588Y-58439538D02*
X126770588Y-58153824D01*
X126770588Y-58153824D02*
X126808684Y-58058586D01*
X126808684Y-58058586D02*
X126846779Y-58010967D01*
X126846779Y-58010967D02*
X126922969Y-57963348D01*
X126922969Y-57963348D02*
X127075350Y-57963348D01*
X127075350Y-57963348D02*
X127151541Y-58010967D01*
X127532494Y-58630015D02*
X127532494Y-57963348D01*
X127532494Y-58153824D02*
X127570589Y-58058586D01*
X127570589Y-58058586D02*
X127608684Y-58010967D01*
X127608684Y-58010967D02*
X127684875Y-57963348D01*
X127684875Y-57963348D02*
X127761065Y-57963348D01*
X128332494Y-58582396D02*
X128256303Y-58630015D01*
X128256303Y-58630015D02*
X128103922Y-58630015D01*
X128103922Y-58630015D02*
X128027732Y-58582396D01*
X128027732Y-58582396D02*
X127989636Y-58487157D01*
X127989636Y-58487157D02*
X127989636Y-58106205D01*
X127989636Y-58106205D02*
X128027732Y-58010967D01*
X128027732Y-58010967D02*
X128103922Y-57963348D01*
X128103922Y-57963348D02*
X128256303Y-57963348D01*
X128256303Y-57963348D02*
X128332494Y-58010967D01*
X128332494Y-58010967D02*
X128370589Y-58106205D01*
X128370589Y-58106205D02*
X128370589Y-58201443D01*
X128370589Y-58201443D02*
X127989636Y-58296681D01*
X128675350Y-58582396D02*
X128751541Y-58630015D01*
X128751541Y-58630015D02*
X128903922Y-58630015D01*
X128903922Y-58630015D02*
X128980112Y-58582396D01*
X128980112Y-58582396D02*
X129018208Y-58487157D01*
X129018208Y-58487157D02*
X129018208Y-58439538D01*
X129018208Y-58439538D02*
X128980112Y-58344300D01*
X128980112Y-58344300D02*
X128903922Y-58296681D01*
X128903922Y-58296681D02*
X128789636Y-58296681D01*
X128789636Y-58296681D02*
X128713446Y-58249062D01*
X128713446Y-58249062D02*
X128675350Y-58153824D01*
X128675350Y-58153824D02*
X128675350Y-58106205D01*
X128675350Y-58106205D02*
X128713446Y-58010967D01*
X128713446Y-58010967D02*
X128789636Y-57963348D01*
X128789636Y-57963348D02*
X128903922Y-57963348D01*
X128903922Y-57963348D02*
X128980112Y-58010967D01*
X129322969Y-58582396D02*
X129399160Y-58630015D01*
X129399160Y-58630015D02*
X129551541Y-58630015D01*
X129551541Y-58630015D02*
X129627731Y-58582396D01*
X129627731Y-58582396D02*
X129665827Y-58487157D01*
X129665827Y-58487157D02*
X129665827Y-58439538D01*
X129665827Y-58439538D02*
X129627731Y-58344300D01*
X129627731Y-58344300D02*
X129551541Y-58296681D01*
X129551541Y-58296681D02*
X129437255Y-58296681D01*
X129437255Y-58296681D02*
X129361065Y-58249062D01*
X129361065Y-58249062D02*
X129322969Y-58153824D01*
X129322969Y-58153824D02*
X129322969Y-58106205D01*
X129322969Y-58106205D02*
X129361065Y-58010967D01*
X129361065Y-58010967D02*
X129437255Y-57963348D01*
X129437255Y-57963348D02*
X129551541Y-57963348D01*
X129551541Y-57963348D02*
X129627731Y-58010967D01*
X125551541Y-59239959D02*
X125627731Y-59239959D01*
X125627731Y-59239959D02*
X125703922Y-59287578D01*
X125703922Y-59287578D02*
X125742017Y-59335197D01*
X125742017Y-59335197D02*
X125780112Y-59430435D01*
X125780112Y-59430435D02*
X125818207Y-59620911D01*
X125818207Y-59620911D02*
X125818207Y-59859006D01*
X125818207Y-59859006D02*
X125780112Y-60049482D01*
X125780112Y-60049482D02*
X125742017Y-60144720D01*
X125742017Y-60144720D02*
X125703922Y-60192340D01*
X125703922Y-60192340D02*
X125627731Y-60239959D01*
X125627731Y-60239959D02*
X125551541Y-60239959D01*
X125551541Y-60239959D02*
X125475350Y-60192340D01*
X125475350Y-60192340D02*
X125437255Y-60144720D01*
X125437255Y-60144720D02*
X125399160Y-60049482D01*
X125399160Y-60049482D02*
X125361064Y-59859006D01*
X125361064Y-59859006D02*
X125361064Y-59620911D01*
X125361064Y-59620911D02*
X125399160Y-59430435D01*
X125399160Y-59430435D02*
X125437255Y-59335197D01*
X125437255Y-59335197D02*
X125475350Y-59287578D01*
X125475350Y-59287578D02*
X125551541Y-59239959D01*
X126084874Y-60239959D02*
X126503922Y-59573292D01*
X126084874Y-59573292D02*
X126503922Y-60239959D01*
X126732493Y-59239959D02*
X127265827Y-59239959D01*
X127265827Y-59239959D02*
X126922969Y-60239959D01*
X127722970Y-59239959D02*
X127799160Y-59239959D01*
X127799160Y-59239959D02*
X127875351Y-59287578D01*
X127875351Y-59287578D02*
X127913446Y-59335197D01*
X127913446Y-59335197D02*
X127951541Y-59430435D01*
X127951541Y-59430435D02*
X127989636Y-59620911D01*
X127989636Y-59620911D02*
X127989636Y-59859006D01*
X127989636Y-59859006D02*
X127951541Y-60049482D01*
X127951541Y-60049482D02*
X127913446Y-60144720D01*
X127913446Y-60144720D02*
X127875351Y-60192340D01*
X127875351Y-60192340D02*
X127799160Y-60239959D01*
X127799160Y-60239959D02*
X127722970Y-60239959D01*
X127722970Y-60239959D02*
X127646779Y-60192340D01*
X127646779Y-60192340D02*
X127608684Y-60144720D01*
X127608684Y-60144720D02*
X127570589Y-60049482D01*
X127570589Y-60049482D02*
X127532493Y-59859006D01*
X127532493Y-59859006D02*
X127532493Y-59620911D01*
X127532493Y-59620911D02*
X127570589Y-59430435D01*
X127570589Y-59430435D02*
X127608684Y-59335197D01*
X127608684Y-59335197D02*
X127646779Y-59287578D01*
X127646779Y-59287578D02*
X127722970Y-59239959D01*
X125551541Y-60849903D02*
X125627731Y-60849903D01*
X125627731Y-60849903D02*
X125703922Y-60897522D01*
X125703922Y-60897522D02*
X125742017Y-60945141D01*
X125742017Y-60945141D02*
X125780112Y-61040379D01*
X125780112Y-61040379D02*
X125818207Y-61230855D01*
X125818207Y-61230855D02*
X125818207Y-61468950D01*
X125818207Y-61468950D02*
X125780112Y-61659426D01*
X125780112Y-61659426D02*
X125742017Y-61754664D01*
X125742017Y-61754664D02*
X125703922Y-61802284D01*
X125703922Y-61802284D02*
X125627731Y-61849903D01*
X125627731Y-61849903D02*
X125551541Y-61849903D01*
X125551541Y-61849903D02*
X125475350Y-61802284D01*
X125475350Y-61802284D02*
X125437255Y-61754664D01*
X125437255Y-61754664D02*
X125399160Y-61659426D01*
X125399160Y-61659426D02*
X125361064Y-61468950D01*
X125361064Y-61468950D02*
X125361064Y-61230855D01*
X125361064Y-61230855D02*
X125399160Y-61040379D01*
X125399160Y-61040379D02*
X125437255Y-60945141D01*
X125437255Y-60945141D02*
X125475350Y-60897522D01*
X125475350Y-60897522D02*
X125551541Y-60849903D01*
X126084874Y-61849903D02*
X126503922Y-61183236D01*
X126084874Y-61183236D02*
X126503922Y-61849903D01*
X126770588Y-60945141D02*
X126808684Y-60897522D01*
X126808684Y-60897522D02*
X126884874Y-60849903D01*
X126884874Y-60849903D02*
X127075350Y-60849903D01*
X127075350Y-60849903D02*
X127151541Y-60897522D01*
X127151541Y-60897522D02*
X127189636Y-60945141D01*
X127189636Y-60945141D02*
X127227731Y-61040379D01*
X127227731Y-61040379D02*
X127227731Y-61135617D01*
X127227731Y-61135617D02*
X127189636Y-61278474D01*
X127189636Y-61278474D02*
X126732493Y-61849903D01*
X126732493Y-61849903D02*
X127227731Y-61849903D01*
X127913446Y-61183236D02*
X127913446Y-61849903D01*
X127722970Y-60802284D02*
X127532493Y-61516569D01*
X127532493Y-61516569D02*
X128027732Y-61516569D01*
X128484875Y-60849903D02*
X128561065Y-60849903D01*
X128561065Y-60849903D02*
X128637256Y-60897522D01*
X128637256Y-60897522D02*
X128675351Y-60945141D01*
X128675351Y-60945141D02*
X128713446Y-61040379D01*
X128713446Y-61040379D02*
X128751541Y-61230855D01*
X128751541Y-61230855D02*
X128751541Y-61468950D01*
X128751541Y-61468950D02*
X128713446Y-61659426D01*
X128713446Y-61659426D02*
X128675351Y-61754664D01*
X128675351Y-61754664D02*
X128637256Y-61802284D01*
X128637256Y-61802284D02*
X128561065Y-61849903D01*
X128561065Y-61849903D02*
X128484875Y-61849903D01*
X128484875Y-61849903D02*
X128408684Y-61802284D01*
X128408684Y-61802284D02*
X128370589Y-61754664D01*
X128370589Y-61754664D02*
X128332494Y-61659426D01*
X128332494Y-61659426D02*
X128294398Y-61468950D01*
X128294398Y-61468950D02*
X128294398Y-61230855D01*
X128294398Y-61230855D02*
X128332494Y-61040379D01*
X128332494Y-61040379D02*
X128370589Y-60945141D01*
X128370589Y-60945141D02*
X128408684Y-60897522D01*
X128408684Y-60897522D02*
X128484875Y-60849903D01*
X125551541Y-62459847D02*
X125627731Y-62459847D01*
X125627731Y-62459847D02*
X125703922Y-62507466D01*
X125703922Y-62507466D02*
X125742017Y-62555085D01*
X125742017Y-62555085D02*
X125780112Y-62650323D01*
X125780112Y-62650323D02*
X125818207Y-62840799D01*
X125818207Y-62840799D02*
X125818207Y-63078894D01*
X125818207Y-63078894D02*
X125780112Y-63269370D01*
X125780112Y-63269370D02*
X125742017Y-63364608D01*
X125742017Y-63364608D02*
X125703922Y-63412228D01*
X125703922Y-63412228D02*
X125627731Y-63459847D01*
X125627731Y-63459847D02*
X125551541Y-63459847D01*
X125551541Y-63459847D02*
X125475350Y-63412228D01*
X125475350Y-63412228D02*
X125437255Y-63364608D01*
X125437255Y-63364608D02*
X125399160Y-63269370D01*
X125399160Y-63269370D02*
X125361064Y-63078894D01*
X125361064Y-63078894D02*
X125361064Y-62840799D01*
X125361064Y-62840799D02*
X125399160Y-62650323D01*
X125399160Y-62650323D02*
X125437255Y-62555085D01*
X125437255Y-62555085D02*
X125475350Y-62507466D01*
X125475350Y-62507466D02*
X125551541Y-62459847D01*
X126084874Y-63459847D02*
X126503922Y-62793180D01*
X126084874Y-62793180D02*
X126503922Y-63459847D01*
X126770588Y-62555085D02*
X126808684Y-62507466D01*
X126808684Y-62507466D02*
X126884874Y-62459847D01*
X126884874Y-62459847D02*
X127075350Y-62459847D01*
X127075350Y-62459847D02*
X127151541Y-62507466D01*
X127151541Y-62507466D02*
X127189636Y-62555085D01*
X127189636Y-62555085D02*
X127227731Y-62650323D01*
X127227731Y-62650323D02*
X127227731Y-62745561D01*
X127227731Y-62745561D02*
X127189636Y-62888418D01*
X127189636Y-62888418D02*
X126732493Y-63459847D01*
X126732493Y-63459847D02*
X127227731Y-63459847D01*
X127532493Y-63174132D02*
X127913446Y-63174132D01*
X127456303Y-63459847D02*
X127722970Y-62459847D01*
X127722970Y-62459847D02*
X127989636Y-63459847D01*
X128408684Y-62459847D02*
X128484874Y-62459847D01*
X128484874Y-62459847D02*
X128561065Y-62507466D01*
X128561065Y-62507466D02*
X128599160Y-62555085D01*
X128599160Y-62555085D02*
X128637255Y-62650323D01*
X128637255Y-62650323D02*
X128675350Y-62840799D01*
X128675350Y-62840799D02*
X128675350Y-63078894D01*
X128675350Y-63078894D02*
X128637255Y-63269370D01*
X128637255Y-63269370D02*
X128599160Y-63364608D01*
X128599160Y-63364608D02*
X128561065Y-63412228D01*
X128561065Y-63412228D02*
X128484874Y-63459847D01*
X128484874Y-63459847D02*
X128408684Y-63459847D01*
X128408684Y-63459847D02*
X128332493Y-63412228D01*
X128332493Y-63412228D02*
X128294398Y-63364608D01*
X128294398Y-63364608D02*
X128256303Y-63269370D01*
X128256303Y-63269370D02*
X128218207Y-63078894D01*
X128218207Y-63078894D02*
X128218207Y-62840799D01*
X128218207Y-62840799D02*
X128256303Y-62650323D01*
X128256303Y-62650323D02*
X128294398Y-62555085D01*
X128294398Y-62555085D02*
X128332493Y-62507466D01*
X128332493Y-62507466D02*
X128408684Y-62459847D01*
X125551541Y-64069791D02*
X125627731Y-64069791D01*
X125627731Y-64069791D02*
X125703922Y-64117410D01*
X125703922Y-64117410D02*
X125742017Y-64165029D01*
X125742017Y-64165029D02*
X125780112Y-64260267D01*
X125780112Y-64260267D02*
X125818207Y-64450743D01*
X125818207Y-64450743D02*
X125818207Y-64688838D01*
X125818207Y-64688838D02*
X125780112Y-64879314D01*
X125780112Y-64879314D02*
X125742017Y-64974552D01*
X125742017Y-64974552D02*
X125703922Y-65022172D01*
X125703922Y-65022172D02*
X125627731Y-65069791D01*
X125627731Y-65069791D02*
X125551541Y-65069791D01*
X125551541Y-65069791D02*
X125475350Y-65022172D01*
X125475350Y-65022172D02*
X125437255Y-64974552D01*
X125437255Y-64974552D02*
X125399160Y-64879314D01*
X125399160Y-64879314D02*
X125361064Y-64688838D01*
X125361064Y-64688838D02*
X125361064Y-64450743D01*
X125361064Y-64450743D02*
X125399160Y-64260267D01*
X125399160Y-64260267D02*
X125437255Y-64165029D01*
X125437255Y-64165029D02*
X125475350Y-64117410D01*
X125475350Y-64117410D02*
X125551541Y-64069791D01*
X126084874Y-65069791D02*
X126503922Y-64403124D01*
X126084874Y-64403124D02*
X126503922Y-65069791D01*
X126770588Y-64165029D02*
X126808684Y-64117410D01*
X126808684Y-64117410D02*
X126884874Y-64069791D01*
X126884874Y-64069791D02*
X127075350Y-64069791D01*
X127075350Y-64069791D02*
X127151541Y-64117410D01*
X127151541Y-64117410D02*
X127189636Y-64165029D01*
X127189636Y-64165029D02*
X127227731Y-64260267D01*
X127227731Y-64260267D02*
X127227731Y-64355505D01*
X127227731Y-64355505D02*
X127189636Y-64498362D01*
X127189636Y-64498362D02*
X126732493Y-65069791D01*
X126732493Y-65069791D02*
X127227731Y-65069791D01*
X128027732Y-64974552D02*
X127989636Y-65022172D01*
X127989636Y-65022172D02*
X127875351Y-65069791D01*
X127875351Y-65069791D02*
X127799160Y-65069791D01*
X127799160Y-65069791D02*
X127684874Y-65022172D01*
X127684874Y-65022172D02*
X127608684Y-64926933D01*
X127608684Y-64926933D02*
X127570589Y-64831695D01*
X127570589Y-64831695D02*
X127532493Y-64641219D01*
X127532493Y-64641219D02*
X127532493Y-64498362D01*
X127532493Y-64498362D02*
X127570589Y-64307886D01*
X127570589Y-64307886D02*
X127608684Y-64212648D01*
X127608684Y-64212648D02*
X127684874Y-64117410D01*
X127684874Y-64117410D02*
X127799160Y-64069791D01*
X127799160Y-64069791D02*
X127875351Y-64069791D01*
X127875351Y-64069791D02*
X127989636Y-64117410D01*
X127989636Y-64117410D02*
X128027732Y-64165029D01*
X128522970Y-64069791D02*
X128599160Y-64069791D01*
X128599160Y-64069791D02*
X128675351Y-64117410D01*
X128675351Y-64117410D02*
X128713446Y-64165029D01*
X128713446Y-64165029D02*
X128751541Y-64260267D01*
X128751541Y-64260267D02*
X128789636Y-64450743D01*
X128789636Y-64450743D02*
X128789636Y-64688838D01*
X128789636Y-64688838D02*
X128751541Y-64879314D01*
X128751541Y-64879314D02*
X128713446Y-64974552D01*
X128713446Y-64974552D02*
X128675351Y-65022172D01*
X128675351Y-65022172D02*
X128599160Y-65069791D01*
X128599160Y-65069791D02*
X128522970Y-65069791D01*
X128522970Y-65069791D02*
X128446779Y-65022172D01*
X128446779Y-65022172D02*
X128408684Y-64974552D01*
X128408684Y-64974552D02*
X128370589Y-64879314D01*
X128370589Y-64879314D02*
X128332493Y-64688838D01*
X128332493Y-64688838D02*
X128332493Y-64450743D01*
X128332493Y-64450743D02*
X128370589Y-64260267D01*
X128370589Y-64260267D02*
X128408684Y-64165029D01*
X128408684Y-64165029D02*
X128446779Y-64117410D01*
X128446779Y-64117410D02*
X128522970Y-64069791D01*
X125551541Y-65679735D02*
X125627731Y-65679735D01*
X125627731Y-65679735D02*
X125703922Y-65727354D01*
X125703922Y-65727354D02*
X125742017Y-65774973D01*
X125742017Y-65774973D02*
X125780112Y-65870211D01*
X125780112Y-65870211D02*
X125818207Y-66060687D01*
X125818207Y-66060687D02*
X125818207Y-66298782D01*
X125818207Y-66298782D02*
X125780112Y-66489258D01*
X125780112Y-66489258D02*
X125742017Y-66584496D01*
X125742017Y-66584496D02*
X125703922Y-66632116D01*
X125703922Y-66632116D02*
X125627731Y-66679735D01*
X125627731Y-66679735D02*
X125551541Y-66679735D01*
X125551541Y-66679735D02*
X125475350Y-66632116D01*
X125475350Y-66632116D02*
X125437255Y-66584496D01*
X125437255Y-66584496D02*
X125399160Y-66489258D01*
X125399160Y-66489258D02*
X125361064Y-66298782D01*
X125361064Y-66298782D02*
X125361064Y-66060687D01*
X125361064Y-66060687D02*
X125399160Y-65870211D01*
X125399160Y-65870211D02*
X125437255Y-65774973D01*
X125437255Y-65774973D02*
X125475350Y-65727354D01*
X125475350Y-65727354D02*
X125551541Y-65679735D01*
X126084874Y-66679735D02*
X126503922Y-66013068D01*
X126084874Y-66013068D02*
X126503922Y-66679735D01*
X126732493Y-65679735D02*
X127227731Y-65679735D01*
X127227731Y-65679735D02*
X126961065Y-66060687D01*
X126961065Y-66060687D02*
X127075350Y-66060687D01*
X127075350Y-66060687D02*
X127151541Y-66108306D01*
X127151541Y-66108306D02*
X127189636Y-66155925D01*
X127189636Y-66155925D02*
X127227731Y-66251163D01*
X127227731Y-66251163D02*
X127227731Y-66489258D01*
X127227731Y-66489258D02*
X127189636Y-66584496D01*
X127189636Y-66584496D02*
X127151541Y-66632116D01*
X127151541Y-66632116D02*
X127075350Y-66679735D01*
X127075350Y-66679735D02*
X126846779Y-66679735D01*
X126846779Y-66679735D02*
X126770588Y-66632116D01*
X126770588Y-66632116D02*
X126732493Y-66584496D01*
X127913446Y-66013068D02*
X127913446Y-66679735D01*
X127722970Y-65632116D02*
X127532493Y-66346401D01*
X127532493Y-66346401D02*
X128027732Y-66346401D01*
X128484875Y-65679735D02*
X128561065Y-65679735D01*
X128561065Y-65679735D02*
X128637256Y-65727354D01*
X128637256Y-65727354D02*
X128675351Y-65774973D01*
X128675351Y-65774973D02*
X128713446Y-65870211D01*
X128713446Y-65870211D02*
X128751541Y-66060687D01*
X128751541Y-66060687D02*
X128751541Y-66298782D01*
X128751541Y-66298782D02*
X128713446Y-66489258D01*
X128713446Y-66489258D02*
X128675351Y-66584496D01*
X128675351Y-66584496D02*
X128637256Y-66632116D01*
X128637256Y-66632116D02*
X128561065Y-66679735D01*
X128561065Y-66679735D02*
X128484875Y-66679735D01*
X128484875Y-66679735D02*
X128408684Y-66632116D01*
X128408684Y-66632116D02*
X128370589Y-66584496D01*
X128370589Y-66584496D02*
X128332494Y-66489258D01*
X128332494Y-66489258D02*
X128294398Y-66298782D01*
X128294398Y-66298782D02*
X128294398Y-66060687D01*
X128294398Y-66060687D02*
X128332494Y-65870211D01*
X128332494Y-65870211D02*
X128370589Y-65774973D01*
X128370589Y-65774973D02*
X128408684Y-65727354D01*
X128408684Y-65727354D02*
X128484875Y-65679735D01*
X125551541Y-67289679D02*
X125627731Y-67289679D01*
X125627731Y-67289679D02*
X125703922Y-67337298D01*
X125703922Y-67337298D02*
X125742017Y-67384917D01*
X125742017Y-67384917D02*
X125780112Y-67480155D01*
X125780112Y-67480155D02*
X125818207Y-67670631D01*
X125818207Y-67670631D02*
X125818207Y-67908726D01*
X125818207Y-67908726D02*
X125780112Y-68099202D01*
X125780112Y-68099202D02*
X125742017Y-68194440D01*
X125742017Y-68194440D02*
X125703922Y-68242060D01*
X125703922Y-68242060D02*
X125627731Y-68289679D01*
X125627731Y-68289679D02*
X125551541Y-68289679D01*
X125551541Y-68289679D02*
X125475350Y-68242060D01*
X125475350Y-68242060D02*
X125437255Y-68194440D01*
X125437255Y-68194440D02*
X125399160Y-68099202D01*
X125399160Y-68099202D02*
X125361064Y-67908726D01*
X125361064Y-67908726D02*
X125361064Y-67670631D01*
X125361064Y-67670631D02*
X125399160Y-67480155D01*
X125399160Y-67480155D02*
X125437255Y-67384917D01*
X125437255Y-67384917D02*
X125475350Y-67337298D01*
X125475350Y-67337298D02*
X125551541Y-67289679D01*
X126084874Y-68289679D02*
X126503922Y-67623012D01*
X126084874Y-67623012D02*
X126503922Y-68289679D01*
X126732493Y-67289679D02*
X127227731Y-67289679D01*
X127227731Y-67289679D02*
X126961065Y-67670631D01*
X126961065Y-67670631D02*
X127075350Y-67670631D01*
X127075350Y-67670631D02*
X127151541Y-67718250D01*
X127151541Y-67718250D02*
X127189636Y-67765869D01*
X127189636Y-67765869D02*
X127227731Y-67861107D01*
X127227731Y-67861107D02*
X127227731Y-68099202D01*
X127227731Y-68099202D02*
X127189636Y-68194440D01*
X127189636Y-68194440D02*
X127151541Y-68242060D01*
X127151541Y-68242060D02*
X127075350Y-68289679D01*
X127075350Y-68289679D02*
X126846779Y-68289679D01*
X126846779Y-68289679D02*
X126770588Y-68242060D01*
X126770588Y-68242060D02*
X126732493Y-68194440D01*
X127532493Y-68003964D02*
X127913446Y-68003964D01*
X127456303Y-68289679D02*
X127722970Y-67289679D01*
X127722970Y-67289679D02*
X127989636Y-68289679D01*
X128408684Y-67289679D02*
X128484874Y-67289679D01*
X128484874Y-67289679D02*
X128561065Y-67337298D01*
X128561065Y-67337298D02*
X128599160Y-67384917D01*
X128599160Y-67384917D02*
X128637255Y-67480155D01*
X128637255Y-67480155D02*
X128675350Y-67670631D01*
X128675350Y-67670631D02*
X128675350Y-67908726D01*
X128675350Y-67908726D02*
X128637255Y-68099202D01*
X128637255Y-68099202D02*
X128599160Y-68194440D01*
X128599160Y-68194440D02*
X128561065Y-68242060D01*
X128561065Y-68242060D02*
X128484874Y-68289679D01*
X128484874Y-68289679D02*
X128408684Y-68289679D01*
X128408684Y-68289679D02*
X128332493Y-68242060D01*
X128332493Y-68242060D02*
X128294398Y-68194440D01*
X128294398Y-68194440D02*
X128256303Y-68099202D01*
X128256303Y-68099202D02*
X128218207Y-67908726D01*
X128218207Y-67908726D02*
X128218207Y-67670631D01*
X128218207Y-67670631D02*
X128256303Y-67480155D01*
X128256303Y-67480155D02*
X128294398Y-67384917D01*
X128294398Y-67384917D02*
X128332493Y-67337298D01*
X128332493Y-67337298D02*
X128408684Y-67289679D01*
X125551541Y-68899623D02*
X125627731Y-68899623D01*
X125627731Y-68899623D02*
X125703922Y-68947242D01*
X125703922Y-68947242D02*
X125742017Y-68994861D01*
X125742017Y-68994861D02*
X125780112Y-69090099D01*
X125780112Y-69090099D02*
X125818207Y-69280575D01*
X125818207Y-69280575D02*
X125818207Y-69518670D01*
X125818207Y-69518670D02*
X125780112Y-69709146D01*
X125780112Y-69709146D02*
X125742017Y-69804384D01*
X125742017Y-69804384D02*
X125703922Y-69852004D01*
X125703922Y-69852004D02*
X125627731Y-69899623D01*
X125627731Y-69899623D02*
X125551541Y-69899623D01*
X125551541Y-69899623D02*
X125475350Y-69852004D01*
X125475350Y-69852004D02*
X125437255Y-69804384D01*
X125437255Y-69804384D02*
X125399160Y-69709146D01*
X125399160Y-69709146D02*
X125361064Y-69518670D01*
X125361064Y-69518670D02*
X125361064Y-69280575D01*
X125361064Y-69280575D02*
X125399160Y-69090099D01*
X125399160Y-69090099D02*
X125437255Y-68994861D01*
X125437255Y-68994861D02*
X125475350Y-68947242D01*
X125475350Y-68947242D02*
X125551541Y-68899623D01*
X126084874Y-69899623D02*
X126503922Y-69232956D01*
X126084874Y-69232956D02*
X126503922Y-69899623D01*
X126732493Y-68899623D02*
X127227731Y-68899623D01*
X127227731Y-68899623D02*
X126961065Y-69280575D01*
X126961065Y-69280575D02*
X127075350Y-69280575D01*
X127075350Y-69280575D02*
X127151541Y-69328194D01*
X127151541Y-69328194D02*
X127189636Y-69375813D01*
X127189636Y-69375813D02*
X127227731Y-69471051D01*
X127227731Y-69471051D02*
X127227731Y-69709146D01*
X127227731Y-69709146D02*
X127189636Y-69804384D01*
X127189636Y-69804384D02*
X127151541Y-69852004D01*
X127151541Y-69852004D02*
X127075350Y-69899623D01*
X127075350Y-69899623D02*
X126846779Y-69899623D01*
X126846779Y-69899623D02*
X126770588Y-69852004D01*
X126770588Y-69852004D02*
X126732493Y-69804384D01*
X128027732Y-69804384D02*
X127989636Y-69852004D01*
X127989636Y-69852004D02*
X127875351Y-69899623D01*
X127875351Y-69899623D02*
X127799160Y-69899623D01*
X127799160Y-69899623D02*
X127684874Y-69852004D01*
X127684874Y-69852004D02*
X127608684Y-69756765D01*
X127608684Y-69756765D02*
X127570589Y-69661527D01*
X127570589Y-69661527D02*
X127532493Y-69471051D01*
X127532493Y-69471051D02*
X127532493Y-69328194D01*
X127532493Y-69328194D02*
X127570589Y-69137718D01*
X127570589Y-69137718D02*
X127608684Y-69042480D01*
X127608684Y-69042480D02*
X127684874Y-68947242D01*
X127684874Y-68947242D02*
X127799160Y-68899623D01*
X127799160Y-68899623D02*
X127875351Y-68899623D01*
X127875351Y-68899623D02*
X127989636Y-68947242D01*
X127989636Y-68947242D02*
X128027732Y-68994861D01*
X128522970Y-68899623D02*
X128599160Y-68899623D01*
X128599160Y-68899623D02*
X128675351Y-68947242D01*
X128675351Y-68947242D02*
X128713446Y-68994861D01*
X128713446Y-68994861D02*
X128751541Y-69090099D01*
X128751541Y-69090099D02*
X128789636Y-69280575D01*
X128789636Y-69280575D02*
X128789636Y-69518670D01*
X128789636Y-69518670D02*
X128751541Y-69709146D01*
X128751541Y-69709146D02*
X128713446Y-69804384D01*
X128713446Y-69804384D02*
X128675351Y-69852004D01*
X128675351Y-69852004D02*
X128599160Y-69899623D01*
X128599160Y-69899623D02*
X128522970Y-69899623D01*
X128522970Y-69899623D02*
X128446779Y-69852004D01*
X128446779Y-69852004D02*
X128408684Y-69804384D01*
X128408684Y-69804384D02*
X128370589Y-69709146D01*
X128370589Y-69709146D02*
X128332493Y-69518670D01*
X128332493Y-69518670D02*
X128332493Y-69280575D01*
X128332493Y-69280575D02*
X128370589Y-69090099D01*
X128370589Y-69090099D02*
X128408684Y-68994861D01*
X128408684Y-68994861D02*
X128446779Y-68947242D01*
X128446779Y-68947242D02*
X128522970Y-68899623D01*
X130721064Y-58582396D02*
X130835350Y-58630015D01*
X130835350Y-58630015D02*
X131025826Y-58630015D01*
X131025826Y-58630015D02*
X131102017Y-58582396D01*
X131102017Y-58582396D02*
X131140112Y-58534776D01*
X131140112Y-58534776D02*
X131178207Y-58439538D01*
X131178207Y-58439538D02*
X131178207Y-58344300D01*
X131178207Y-58344300D02*
X131140112Y-58249062D01*
X131140112Y-58249062D02*
X131102017Y-58201443D01*
X131102017Y-58201443D02*
X131025826Y-58153824D01*
X131025826Y-58153824D02*
X130873445Y-58106205D01*
X130873445Y-58106205D02*
X130797255Y-58058586D01*
X130797255Y-58058586D02*
X130759160Y-58010967D01*
X130759160Y-58010967D02*
X130721064Y-57915729D01*
X130721064Y-57915729D02*
X130721064Y-57820491D01*
X130721064Y-57820491D02*
X130759160Y-57725253D01*
X130759160Y-57725253D02*
X130797255Y-57677634D01*
X130797255Y-57677634D02*
X130873445Y-57630015D01*
X130873445Y-57630015D02*
X131063922Y-57630015D01*
X131063922Y-57630015D02*
X131178207Y-57677634D01*
X131444874Y-57630015D02*
X131635350Y-58630015D01*
X131635350Y-58630015D02*
X131787731Y-57915729D01*
X131787731Y-57915729D02*
X131940112Y-58630015D01*
X131940112Y-58630015D02*
X132130589Y-57630015D01*
X132854398Y-58630015D02*
X132397255Y-58630015D01*
X132625827Y-58630015D02*
X132625827Y-57630015D01*
X132625827Y-57630015D02*
X132549636Y-57772872D01*
X132549636Y-57772872D02*
X132473446Y-57868110D01*
X132473446Y-57868110D02*
X132397255Y-57915729D01*
X133197256Y-58534776D02*
X133235351Y-58582396D01*
X133235351Y-58582396D02*
X133197256Y-58630015D01*
X133197256Y-58630015D02*
X133159160Y-58582396D01*
X133159160Y-58582396D02*
X133197256Y-58534776D01*
X133197256Y-58534776D02*
X133197256Y-58630015D01*
X133997255Y-58630015D02*
X133540112Y-58630015D01*
X133768684Y-58630015D02*
X133768684Y-57630015D01*
X133768684Y-57630015D02*
X133692493Y-57772872D01*
X133692493Y-57772872D02*
X133616303Y-57868110D01*
X133616303Y-57868110D02*
X133540112Y-57915729D01*
X130911541Y-59239959D02*
X131063922Y-59239959D01*
X131063922Y-59239959D02*
X131140112Y-59287578D01*
X131140112Y-59287578D02*
X131216303Y-59382816D01*
X131216303Y-59382816D02*
X131254398Y-59573292D01*
X131254398Y-59573292D02*
X131254398Y-59906625D01*
X131254398Y-59906625D02*
X131216303Y-60097101D01*
X131216303Y-60097101D02*
X131140112Y-60192340D01*
X131140112Y-60192340D02*
X131063922Y-60239959D01*
X131063922Y-60239959D02*
X130911541Y-60239959D01*
X130911541Y-60239959D02*
X130835350Y-60192340D01*
X130835350Y-60192340D02*
X130759160Y-60097101D01*
X130759160Y-60097101D02*
X130721064Y-59906625D01*
X130721064Y-59906625D02*
X130721064Y-59573292D01*
X130721064Y-59573292D02*
X130759160Y-59382816D01*
X130759160Y-59382816D02*
X130835350Y-59287578D01*
X130835350Y-59287578D02*
X130911541Y-59239959D01*
X131863921Y-59716149D02*
X131597255Y-59716149D01*
X131597255Y-60239959D02*
X131597255Y-59239959D01*
X131597255Y-59239959D02*
X131978207Y-59239959D01*
X132549635Y-59716149D02*
X132282969Y-59716149D01*
X132282969Y-60239959D02*
X132282969Y-59239959D01*
X132282969Y-59239959D02*
X132663921Y-59239959D01*
X130911541Y-60849903D02*
X131063922Y-60849903D01*
X131063922Y-60849903D02*
X131140112Y-60897522D01*
X131140112Y-60897522D02*
X131216303Y-60992760D01*
X131216303Y-60992760D02*
X131254398Y-61183236D01*
X131254398Y-61183236D02*
X131254398Y-61516569D01*
X131254398Y-61516569D02*
X131216303Y-61707045D01*
X131216303Y-61707045D02*
X131140112Y-61802284D01*
X131140112Y-61802284D02*
X131063922Y-61849903D01*
X131063922Y-61849903D02*
X130911541Y-61849903D01*
X130911541Y-61849903D02*
X130835350Y-61802284D01*
X130835350Y-61802284D02*
X130759160Y-61707045D01*
X130759160Y-61707045D02*
X130721064Y-61516569D01*
X130721064Y-61516569D02*
X130721064Y-61183236D01*
X130721064Y-61183236D02*
X130759160Y-60992760D01*
X130759160Y-60992760D02*
X130835350Y-60897522D01*
X130835350Y-60897522D02*
X130911541Y-60849903D01*
X131597255Y-61849903D02*
X131597255Y-60849903D01*
X131597255Y-60849903D02*
X132054398Y-61849903D01*
X132054398Y-61849903D02*
X132054398Y-60849903D01*
X130911541Y-62459847D02*
X131063922Y-62459847D01*
X131063922Y-62459847D02*
X131140112Y-62507466D01*
X131140112Y-62507466D02*
X131216303Y-62602704D01*
X131216303Y-62602704D02*
X131254398Y-62793180D01*
X131254398Y-62793180D02*
X131254398Y-63126513D01*
X131254398Y-63126513D02*
X131216303Y-63316989D01*
X131216303Y-63316989D02*
X131140112Y-63412228D01*
X131140112Y-63412228D02*
X131063922Y-63459847D01*
X131063922Y-63459847D02*
X130911541Y-63459847D01*
X130911541Y-63459847D02*
X130835350Y-63412228D01*
X130835350Y-63412228D02*
X130759160Y-63316989D01*
X130759160Y-63316989D02*
X130721064Y-63126513D01*
X130721064Y-63126513D02*
X130721064Y-62793180D01*
X130721064Y-62793180D02*
X130759160Y-62602704D01*
X130759160Y-62602704D02*
X130835350Y-62507466D01*
X130835350Y-62507466D02*
X130911541Y-62459847D01*
X131863921Y-62936037D02*
X131597255Y-62936037D01*
X131597255Y-63459847D02*
X131597255Y-62459847D01*
X131597255Y-62459847D02*
X131978207Y-62459847D01*
X132549635Y-62936037D02*
X132282969Y-62936037D01*
X132282969Y-63459847D02*
X132282969Y-62459847D01*
X132282969Y-62459847D02*
X132663921Y-62459847D01*
X130911541Y-64069791D02*
X131063922Y-64069791D01*
X131063922Y-64069791D02*
X131140112Y-64117410D01*
X131140112Y-64117410D02*
X131216303Y-64212648D01*
X131216303Y-64212648D02*
X131254398Y-64403124D01*
X131254398Y-64403124D02*
X131254398Y-64736457D01*
X131254398Y-64736457D02*
X131216303Y-64926933D01*
X131216303Y-64926933D02*
X131140112Y-65022172D01*
X131140112Y-65022172D02*
X131063922Y-65069791D01*
X131063922Y-65069791D02*
X130911541Y-65069791D01*
X130911541Y-65069791D02*
X130835350Y-65022172D01*
X130835350Y-65022172D02*
X130759160Y-64926933D01*
X130759160Y-64926933D02*
X130721064Y-64736457D01*
X130721064Y-64736457D02*
X130721064Y-64403124D01*
X130721064Y-64403124D02*
X130759160Y-64212648D01*
X130759160Y-64212648D02*
X130835350Y-64117410D01*
X130835350Y-64117410D02*
X130911541Y-64069791D01*
X131597255Y-65069791D02*
X131597255Y-64069791D01*
X131597255Y-64069791D02*
X132054398Y-65069791D01*
X132054398Y-65069791D02*
X132054398Y-64069791D01*
X130911541Y-65679735D02*
X131063922Y-65679735D01*
X131063922Y-65679735D02*
X131140112Y-65727354D01*
X131140112Y-65727354D02*
X131216303Y-65822592D01*
X131216303Y-65822592D02*
X131254398Y-66013068D01*
X131254398Y-66013068D02*
X131254398Y-66346401D01*
X131254398Y-66346401D02*
X131216303Y-66536877D01*
X131216303Y-66536877D02*
X131140112Y-66632116D01*
X131140112Y-66632116D02*
X131063922Y-66679735D01*
X131063922Y-66679735D02*
X130911541Y-66679735D01*
X130911541Y-66679735D02*
X130835350Y-66632116D01*
X130835350Y-66632116D02*
X130759160Y-66536877D01*
X130759160Y-66536877D02*
X130721064Y-66346401D01*
X130721064Y-66346401D02*
X130721064Y-66013068D01*
X130721064Y-66013068D02*
X130759160Y-65822592D01*
X130759160Y-65822592D02*
X130835350Y-65727354D01*
X130835350Y-65727354D02*
X130911541Y-65679735D01*
X131863921Y-66155925D02*
X131597255Y-66155925D01*
X131597255Y-66679735D02*
X131597255Y-65679735D01*
X131597255Y-65679735D02*
X131978207Y-65679735D01*
X132549635Y-66155925D02*
X132282969Y-66155925D01*
X132282969Y-66679735D02*
X132282969Y-65679735D01*
X132282969Y-65679735D02*
X132663921Y-65679735D01*
X130911541Y-67289679D02*
X131063922Y-67289679D01*
X131063922Y-67289679D02*
X131140112Y-67337298D01*
X131140112Y-67337298D02*
X131216303Y-67432536D01*
X131216303Y-67432536D02*
X131254398Y-67623012D01*
X131254398Y-67623012D02*
X131254398Y-67956345D01*
X131254398Y-67956345D02*
X131216303Y-68146821D01*
X131216303Y-68146821D02*
X131140112Y-68242060D01*
X131140112Y-68242060D02*
X131063922Y-68289679D01*
X131063922Y-68289679D02*
X130911541Y-68289679D01*
X130911541Y-68289679D02*
X130835350Y-68242060D01*
X130835350Y-68242060D02*
X130759160Y-68146821D01*
X130759160Y-68146821D02*
X130721064Y-67956345D01*
X130721064Y-67956345D02*
X130721064Y-67623012D01*
X130721064Y-67623012D02*
X130759160Y-67432536D01*
X130759160Y-67432536D02*
X130835350Y-67337298D01*
X130835350Y-67337298D02*
X130911541Y-67289679D01*
X131597255Y-68289679D02*
X131597255Y-67289679D01*
X131597255Y-67289679D02*
X132054398Y-68289679D01*
X132054398Y-68289679D02*
X132054398Y-67289679D01*
X130911541Y-68899623D02*
X131063922Y-68899623D01*
X131063922Y-68899623D02*
X131140112Y-68947242D01*
X131140112Y-68947242D02*
X131216303Y-69042480D01*
X131216303Y-69042480D02*
X131254398Y-69232956D01*
X131254398Y-69232956D02*
X131254398Y-69566289D01*
X131254398Y-69566289D02*
X131216303Y-69756765D01*
X131216303Y-69756765D02*
X131140112Y-69852004D01*
X131140112Y-69852004D02*
X131063922Y-69899623D01*
X131063922Y-69899623D02*
X130911541Y-69899623D01*
X130911541Y-69899623D02*
X130835350Y-69852004D01*
X130835350Y-69852004D02*
X130759160Y-69756765D01*
X130759160Y-69756765D02*
X130721064Y-69566289D01*
X130721064Y-69566289D02*
X130721064Y-69232956D01*
X130721064Y-69232956D02*
X130759160Y-69042480D01*
X130759160Y-69042480D02*
X130835350Y-68947242D01*
X130835350Y-68947242D02*
X130911541Y-68899623D01*
X131863921Y-69375813D02*
X131597255Y-69375813D01*
X131597255Y-69899623D02*
X131597255Y-68899623D01*
X131597255Y-68899623D02*
X131978207Y-68899623D01*
X132549635Y-69375813D02*
X132282969Y-69375813D01*
X132282969Y-69899623D02*
X132282969Y-68899623D01*
X132282969Y-68899623D02*
X132663921Y-68899623D01*
X135061064Y-58632396D02*
X135175350Y-58680015D01*
X135175350Y-58680015D02*
X135365826Y-58680015D01*
X135365826Y-58680015D02*
X135442017Y-58632396D01*
X135442017Y-58632396D02*
X135480112Y-58584776D01*
X135480112Y-58584776D02*
X135518207Y-58489538D01*
X135518207Y-58489538D02*
X135518207Y-58394300D01*
X135518207Y-58394300D02*
X135480112Y-58299062D01*
X135480112Y-58299062D02*
X135442017Y-58251443D01*
X135442017Y-58251443D02*
X135365826Y-58203824D01*
X135365826Y-58203824D02*
X135213445Y-58156205D01*
X135213445Y-58156205D02*
X135137255Y-58108586D01*
X135137255Y-58108586D02*
X135099160Y-58060967D01*
X135099160Y-58060967D02*
X135061064Y-57965729D01*
X135061064Y-57965729D02*
X135061064Y-57870491D01*
X135061064Y-57870491D02*
X135099160Y-57775253D01*
X135099160Y-57775253D02*
X135137255Y-57727634D01*
X135137255Y-57727634D02*
X135213445Y-57680015D01*
X135213445Y-57680015D02*
X135403922Y-57680015D01*
X135403922Y-57680015D02*
X135518207Y-57727634D01*
X135784874Y-57680015D02*
X135975350Y-58680015D01*
X135975350Y-58680015D02*
X136127731Y-57965729D01*
X136127731Y-57965729D02*
X136280112Y-58680015D01*
X136280112Y-58680015D02*
X136470589Y-57680015D01*
X137194398Y-58680015D02*
X136737255Y-58680015D01*
X136965827Y-58680015D02*
X136965827Y-57680015D01*
X136965827Y-57680015D02*
X136889636Y-57822872D01*
X136889636Y-57822872D02*
X136813446Y-57918110D01*
X136813446Y-57918110D02*
X136737255Y-57965729D01*
X137537256Y-58584776D02*
X137575351Y-58632396D01*
X137575351Y-58632396D02*
X137537256Y-58680015D01*
X137537256Y-58680015D02*
X137499160Y-58632396D01*
X137499160Y-58632396D02*
X137537256Y-58584776D01*
X137537256Y-58584776D02*
X137537256Y-58680015D01*
X137880112Y-57775253D02*
X137918208Y-57727634D01*
X137918208Y-57727634D02*
X137994398Y-57680015D01*
X137994398Y-57680015D02*
X138184874Y-57680015D01*
X138184874Y-57680015D02*
X138261065Y-57727634D01*
X138261065Y-57727634D02*
X138299160Y-57775253D01*
X138299160Y-57775253D02*
X138337255Y-57870491D01*
X138337255Y-57870491D02*
X138337255Y-57965729D01*
X138337255Y-57965729D02*
X138299160Y-58108586D01*
X138299160Y-58108586D02*
X137842017Y-58680015D01*
X137842017Y-58680015D02*
X138337255Y-58680015D01*
X135251541Y-59289959D02*
X135403922Y-59289959D01*
X135403922Y-59289959D02*
X135480112Y-59337578D01*
X135480112Y-59337578D02*
X135556303Y-59432816D01*
X135556303Y-59432816D02*
X135594398Y-59623292D01*
X135594398Y-59623292D02*
X135594398Y-59956625D01*
X135594398Y-59956625D02*
X135556303Y-60147101D01*
X135556303Y-60147101D02*
X135480112Y-60242340D01*
X135480112Y-60242340D02*
X135403922Y-60289959D01*
X135403922Y-60289959D02*
X135251541Y-60289959D01*
X135251541Y-60289959D02*
X135175350Y-60242340D01*
X135175350Y-60242340D02*
X135099160Y-60147101D01*
X135099160Y-60147101D02*
X135061064Y-59956625D01*
X135061064Y-59956625D02*
X135061064Y-59623292D01*
X135061064Y-59623292D02*
X135099160Y-59432816D01*
X135099160Y-59432816D02*
X135175350Y-59337578D01*
X135175350Y-59337578D02*
X135251541Y-59289959D01*
X136203921Y-59766149D02*
X135937255Y-59766149D01*
X135937255Y-60289959D02*
X135937255Y-59289959D01*
X135937255Y-59289959D02*
X136318207Y-59289959D01*
X136889635Y-59766149D02*
X136622969Y-59766149D01*
X136622969Y-60289959D02*
X136622969Y-59289959D01*
X136622969Y-59289959D02*
X137003921Y-59289959D01*
X135251541Y-60899903D02*
X135403922Y-60899903D01*
X135403922Y-60899903D02*
X135480112Y-60947522D01*
X135480112Y-60947522D02*
X135556303Y-61042760D01*
X135556303Y-61042760D02*
X135594398Y-61233236D01*
X135594398Y-61233236D02*
X135594398Y-61566569D01*
X135594398Y-61566569D02*
X135556303Y-61757045D01*
X135556303Y-61757045D02*
X135480112Y-61852284D01*
X135480112Y-61852284D02*
X135403922Y-61899903D01*
X135403922Y-61899903D02*
X135251541Y-61899903D01*
X135251541Y-61899903D02*
X135175350Y-61852284D01*
X135175350Y-61852284D02*
X135099160Y-61757045D01*
X135099160Y-61757045D02*
X135061064Y-61566569D01*
X135061064Y-61566569D02*
X135061064Y-61233236D01*
X135061064Y-61233236D02*
X135099160Y-61042760D01*
X135099160Y-61042760D02*
X135175350Y-60947522D01*
X135175350Y-60947522D02*
X135251541Y-60899903D01*
X136203921Y-61376093D02*
X135937255Y-61376093D01*
X135937255Y-61899903D02*
X135937255Y-60899903D01*
X135937255Y-60899903D02*
X136318207Y-60899903D01*
X136889635Y-61376093D02*
X136622969Y-61376093D01*
X136622969Y-61899903D02*
X136622969Y-60899903D01*
X136622969Y-60899903D02*
X137003921Y-60899903D01*
X135251541Y-62509847D02*
X135403922Y-62509847D01*
X135403922Y-62509847D02*
X135480112Y-62557466D01*
X135480112Y-62557466D02*
X135556303Y-62652704D01*
X135556303Y-62652704D02*
X135594398Y-62843180D01*
X135594398Y-62843180D02*
X135594398Y-63176513D01*
X135594398Y-63176513D02*
X135556303Y-63366989D01*
X135556303Y-63366989D02*
X135480112Y-63462228D01*
X135480112Y-63462228D02*
X135403922Y-63509847D01*
X135403922Y-63509847D02*
X135251541Y-63509847D01*
X135251541Y-63509847D02*
X135175350Y-63462228D01*
X135175350Y-63462228D02*
X135099160Y-63366989D01*
X135099160Y-63366989D02*
X135061064Y-63176513D01*
X135061064Y-63176513D02*
X135061064Y-62843180D01*
X135061064Y-62843180D02*
X135099160Y-62652704D01*
X135099160Y-62652704D02*
X135175350Y-62557466D01*
X135175350Y-62557466D02*
X135251541Y-62509847D01*
X135937255Y-63509847D02*
X135937255Y-62509847D01*
X135937255Y-62509847D02*
X136394398Y-63509847D01*
X136394398Y-63509847D02*
X136394398Y-62509847D01*
X135251541Y-64119791D02*
X135403922Y-64119791D01*
X135403922Y-64119791D02*
X135480112Y-64167410D01*
X135480112Y-64167410D02*
X135556303Y-64262648D01*
X135556303Y-64262648D02*
X135594398Y-64453124D01*
X135594398Y-64453124D02*
X135594398Y-64786457D01*
X135594398Y-64786457D02*
X135556303Y-64976933D01*
X135556303Y-64976933D02*
X135480112Y-65072172D01*
X135480112Y-65072172D02*
X135403922Y-65119791D01*
X135403922Y-65119791D02*
X135251541Y-65119791D01*
X135251541Y-65119791D02*
X135175350Y-65072172D01*
X135175350Y-65072172D02*
X135099160Y-64976933D01*
X135099160Y-64976933D02*
X135061064Y-64786457D01*
X135061064Y-64786457D02*
X135061064Y-64453124D01*
X135061064Y-64453124D02*
X135099160Y-64262648D01*
X135099160Y-64262648D02*
X135175350Y-64167410D01*
X135175350Y-64167410D02*
X135251541Y-64119791D01*
X135937255Y-65119791D02*
X135937255Y-64119791D01*
X135937255Y-64119791D02*
X136394398Y-65119791D01*
X136394398Y-65119791D02*
X136394398Y-64119791D01*
X135251541Y-65729735D02*
X135403922Y-65729735D01*
X135403922Y-65729735D02*
X135480112Y-65777354D01*
X135480112Y-65777354D02*
X135556303Y-65872592D01*
X135556303Y-65872592D02*
X135594398Y-66063068D01*
X135594398Y-66063068D02*
X135594398Y-66396401D01*
X135594398Y-66396401D02*
X135556303Y-66586877D01*
X135556303Y-66586877D02*
X135480112Y-66682116D01*
X135480112Y-66682116D02*
X135403922Y-66729735D01*
X135403922Y-66729735D02*
X135251541Y-66729735D01*
X135251541Y-66729735D02*
X135175350Y-66682116D01*
X135175350Y-66682116D02*
X135099160Y-66586877D01*
X135099160Y-66586877D02*
X135061064Y-66396401D01*
X135061064Y-66396401D02*
X135061064Y-66063068D01*
X135061064Y-66063068D02*
X135099160Y-65872592D01*
X135099160Y-65872592D02*
X135175350Y-65777354D01*
X135175350Y-65777354D02*
X135251541Y-65729735D01*
X136203921Y-66205925D02*
X135937255Y-66205925D01*
X135937255Y-66729735D02*
X135937255Y-65729735D01*
X135937255Y-65729735D02*
X136318207Y-65729735D01*
X136889635Y-66205925D02*
X136622969Y-66205925D01*
X136622969Y-66729735D02*
X136622969Y-65729735D01*
X136622969Y-65729735D02*
X137003921Y-65729735D01*
X135251541Y-67339679D02*
X135403922Y-67339679D01*
X135403922Y-67339679D02*
X135480112Y-67387298D01*
X135480112Y-67387298D02*
X135556303Y-67482536D01*
X135556303Y-67482536D02*
X135594398Y-67673012D01*
X135594398Y-67673012D02*
X135594398Y-68006345D01*
X135594398Y-68006345D02*
X135556303Y-68196821D01*
X135556303Y-68196821D02*
X135480112Y-68292060D01*
X135480112Y-68292060D02*
X135403922Y-68339679D01*
X135403922Y-68339679D02*
X135251541Y-68339679D01*
X135251541Y-68339679D02*
X135175350Y-68292060D01*
X135175350Y-68292060D02*
X135099160Y-68196821D01*
X135099160Y-68196821D02*
X135061064Y-68006345D01*
X135061064Y-68006345D02*
X135061064Y-67673012D01*
X135061064Y-67673012D02*
X135099160Y-67482536D01*
X135099160Y-67482536D02*
X135175350Y-67387298D01*
X135175350Y-67387298D02*
X135251541Y-67339679D01*
X136203921Y-67815869D02*
X135937255Y-67815869D01*
X135937255Y-68339679D02*
X135937255Y-67339679D01*
X135937255Y-67339679D02*
X136318207Y-67339679D01*
X136889635Y-67815869D02*
X136622969Y-67815869D01*
X136622969Y-68339679D02*
X136622969Y-67339679D01*
X136622969Y-67339679D02*
X137003921Y-67339679D01*
X135251541Y-68949623D02*
X135403922Y-68949623D01*
X135403922Y-68949623D02*
X135480112Y-68997242D01*
X135480112Y-68997242D02*
X135556303Y-69092480D01*
X135556303Y-69092480D02*
X135594398Y-69282956D01*
X135594398Y-69282956D02*
X135594398Y-69616289D01*
X135594398Y-69616289D02*
X135556303Y-69806765D01*
X135556303Y-69806765D02*
X135480112Y-69902004D01*
X135480112Y-69902004D02*
X135403922Y-69949623D01*
X135403922Y-69949623D02*
X135251541Y-69949623D01*
X135251541Y-69949623D02*
X135175350Y-69902004D01*
X135175350Y-69902004D02*
X135099160Y-69806765D01*
X135099160Y-69806765D02*
X135061064Y-69616289D01*
X135061064Y-69616289D02*
X135061064Y-69282956D01*
X135061064Y-69282956D02*
X135099160Y-69092480D01*
X135099160Y-69092480D02*
X135175350Y-68997242D01*
X135175350Y-68997242D02*
X135251541Y-68949623D01*
X135937255Y-69949623D02*
X135937255Y-68949623D01*
X135937255Y-68949623D02*
X136394398Y-69949623D01*
X136394398Y-69949623D02*
X136394398Y-68949623D01*
X139351064Y-58632396D02*
X139465350Y-58680015D01*
X139465350Y-58680015D02*
X139655826Y-58680015D01*
X139655826Y-58680015D02*
X139732017Y-58632396D01*
X139732017Y-58632396D02*
X139770112Y-58584776D01*
X139770112Y-58584776D02*
X139808207Y-58489538D01*
X139808207Y-58489538D02*
X139808207Y-58394300D01*
X139808207Y-58394300D02*
X139770112Y-58299062D01*
X139770112Y-58299062D02*
X139732017Y-58251443D01*
X139732017Y-58251443D02*
X139655826Y-58203824D01*
X139655826Y-58203824D02*
X139503445Y-58156205D01*
X139503445Y-58156205D02*
X139427255Y-58108586D01*
X139427255Y-58108586D02*
X139389160Y-58060967D01*
X139389160Y-58060967D02*
X139351064Y-57965729D01*
X139351064Y-57965729D02*
X139351064Y-57870491D01*
X139351064Y-57870491D02*
X139389160Y-57775253D01*
X139389160Y-57775253D02*
X139427255Y-57727634D01*
X139427255Y-57727634D02*
X139503445Y-57680015D01*
X139503445Y-57680015D02*
X139693922Y-57680015D01*
X139693922Y-57680015D02*
X139808207Y-57727634D01*
X140074874Y-57680015D02*
X140265350Y-58680015D01*
X140265350Y-58680015D02*
X140417731Y-57965729D01*
X140417731Y-57965729D02*
X140570112Y-58680015D01*
X140570112Y-58680015D02*
X140760589Y-57680015D01*
X141484398Y-58680015D02*
X141027255Y-58680015D01*
X141255827Y-58680015D02*
X141255827Y-57680015D01*
X141255827Y-57680015D02*
X141179636Y-57822872D01*
X141179636Y-57822872D02*
X141103446Y-57918110D01*
X141103446Y-57918110D02*
X141027255Y-57965729D01*
X141827256Y-58584776D02*
X141865351Y-58632396D01*
X141865351Y-58632396D02*
X141827256Y-58680015D01*
X141827256Y-58680015D02*
X141789160Y-58632396D01*
X141789160Y-58632396D02*
X141827256Y-58584776D01*
X141827256Y-58584776D02*
X141827256Y-58680015D01*
X142132017Y-57680015D02*
X142627255Y-57680015D01*
X142627255Y-57680015D02*
X142360589Y-58060967D01*
X142360589Y-58060967D02*
X142474874Y-58060967D01*
X142474874Y-58060967D02*
X142551065Y-58108586D01*
X142551065Y-58108586D02*
X142589160Y-58156205D01*
X142589160Y-58156205D02*
X142627255Y-58251443D01*
X142627255Y-58251443D02*
X142627255Y-58489538D01*
X142627255Y-58489538D02*
X142589160Y-58584776D01*
X142589160Y-58584776D02*
X142551065Y-58632396D01*
X142551065Y-58632396D02*
X142474874Y-58680015D01*
X142474874Y-58680015D02*
X142246303Y-58680015D01*
X142246303Y-58680015D02*
X142170112Y-58632396D01*
X142170112Y-58632396D02*
X142132017Y-58584776D01*
X139541541Y-59289959D02*
X139693922Y-59289959D01*
X139693922Y-59289959D02*
X139770112Y-59337578D01*
X139770112Y-59337578D02*
X139846303Y-59432816D01*
X139846303Y-59432816D02*
X139884398Y-59623292D01*
X139884398Y-59623292D02*
X139884398Y-59956625D01*
X139884398Y-59956625D02*
X139846303Y-60147101D01*
X139846303Y-60147101D02*
X139770112Y-60242340D01*
X139770112Y-60242340D02*
X139693922Y-60289959D01*
X139693922Y-60289959D02*
X139541541Y-60289959D01*
X139541541Y-60289959D02*
X139465350Y-60242340D01*
X139465350Y-60242340D02*
X139389160Y-60147101D01*
X139389160Y-60147101D02*
X139351064Y-59956625D01*
X139351064Y-59956625D02*
X139351064Y-59623292D01*
X139351064Y-59623292D02*
X139389160Y-59432816D01*
X139389160Y-59432816D02*
X139465350Y-59337578D01*
X139465350Y-59337578D02*
X139541541Y-59289959D01*
X140493921Y-59766149D02*
X140227255Y-59766149D01*
X140227255Y-60289959D02*
X140227255Y-59289959D01*
X140227255Y-59289959D02*
X140608207Y-59289959D01*
X141179635Y-59766149D02*
X140912969Y-59766149D01*
X140912969Y-60289959D02*
X140912969Y-59289959D01*
X140912969Y-59289959D02*
X141293921Y-59289959D01*
X139541541Y-60899903D02*
X139693922Y-60899903D01*
X139693922Y-60899903D02*
X139770112Y-60947522D01*
X139770112Y-60947522D02*
X139846303Y-61042760D01*
X139846303Y-61042760D02*
X139884398Y-61233236D01*
X139884398Y-61233236D02*
X139884398Y-61566569D01*
X139884398Y-61566569D02*
X139846303Y-61757045D01*
X139846303Y-61757045D02*
X139770112Y-61852284D01*
X139770112Y-61852284D02*
X139693922Y-61899903D01*
X139693922Y-61899903D02*
X139541541Y-61899903D01*
X139541541Y-61899903D02*
X139465350Y-61852284D01*
X139465350Y-61852284D02*
X139389160Y-61757045D01*
X139389160Y-61757045D02*
X139351064Y-61566569D01*
X139351064Y-61566569D02*
X139351064Y-61233236D01*
X139351064Y-61233236D02*
X139389160Y-61042760D01*
X139389160Y-61042760D02*
X139465350Y-60947522D01*
X139465350Y-60947522D02*
X139541541Y-60899903D01*
X140493921Y-61376093D02*
X140227255Y-61376093D01*
X140227255Y-61899903D02*
X140227255Y-60899903D01*
X140227255Y-60899903D02*
X140608207Y-60899903D01*
X141179635Y-61376093D02*
X140912969Y-61376093D01*
X140912969Y-61899903D02*
X140912969Y-60899903D01*
X140912969Y-60899903D02*
X141293921Y-60899903D01*
X139541541Y-62509847D02*
X139693922Y-62509847D01*
X139693922Y-62509847D02*
X139770112Y-62557466D01*
X139770112Y-62557466D02*
X139846303Y-62652704D01*
X139846303Y-62652704D02*
X139884398Y-62843180D01*
X139884398Y-62843180D02*
X139884398Y-63176513D01*
X139884398Y-63176513D02*
X139846303Y-63366989D01*
X139846303Y-63366989D02*
X139770112Y-63462228D01*
X139770112Y-63462228D02*
X139693922Y-63509847D01*
X139693922Y-63509847D02*
X139541541Y-63509847D01*
X139541541Y-63509847D02*
X139465350Y-63462228D01*
X139465350Y-63462228D02*
X139389160Y-63366989D01*
X139389160Y-63366989D02*
X139351064Y-63176513D01*
X139351064Y-63176513D02*
X139351064Y-62843180D01*
X139351064Y-62843180D02*
X139389160Y-62652704D01*
X139389160Y-62652704D02*
X139465350Y-62557466D01*
X139465350Y-62557466D02*
X139541541Y-62509847D01*
X140493921Y-62986037D02*
X140227255Y-62986037D01*
X140227255Y-63509847D02*
X140227255Y-62509847D01*
X140227255Y-62509847D02*
X140608207Y-62509847D01*
X141179635Y-62986037D02*
X140912969Y-62986037D01*
X140912969Y-63509847D02*
X140912969Y-62509847D01*
X140912969Y-62509847D02*
X141293921Y-62509847D01*
X139541541Y-64119791D02*
X139693922Y-64119791D01*
X139693922Y-64119791D02*
X139770112Y-64167410D01*
X139770112Y-64167410D02*
X139846303Y-64262648D01*
X139846303Y-64262648D02*
X139884398Y-64453124D01*
X139884398Y-64453124D02*
X139884398Y-64786457D01*
X139884398Y-64786457D02*
X139846303Y-64976933D01*
X139846303Y-64976933D02*
X139770112Y-65072172D01*
X139770112Y-65072172D02*
X139693922Y-65119791D01*
X139693922Y-65119791D02*
X139541541Y-65119791D01*
X139541541Y-65119791D02*
X139465350Y-65072172D01*
X139465350Y-65072172D02*
X139389160Y-64976933D01*
X139389160Y-64976933D02*
X139351064Y-64786457D01*
X139351064Y-64786457D02*
X139351064Y-64453124D01*
X139351064Y-64453124D02*
X139389160Y-64262648D01*
X139389160Y-64262648D02*
X139465350Y-64167410D01*
X139465350Y-64167410D02*
X139541541Y-64119791D01*
X140493921Y-64595981D02*
X140227255Y-64595981D01*
X140227255Y-65119791D02*
X140227255Y-64119791D01*
X140227255Y-64119791D02*
X140608207Y-64119791D01*
X141179635Y-64595981D02*
X140912969Y-64595981D01*
X140912969Y-65119791D02*
X140912969Y-64119791D01*
X140912969Y-64119791D02*
X141293921Y-64119791D01*
X139541541Y-65729735D02*
X139693922Y-65729735D01*
X139693922Y-65729735D02*
X139770112Y-65777354D01*
X139770112Y-65777354D02*
X139846303Y-65872592D01*
X139846303Y-65872592D02*
X139884398Y-66063068D01*
X139884398Y-66063068D02*
X139884398Y-66396401D01*
X139884398Y-66396401D02*
X139846303Y-66586877D01*
X139846303Y-66586877D02*
X139770112Y-66682116D01*
X139770112Y-66682116D02*
X139693922Y-66729735D01*
X139693922Y-66729735D02*
X139541541Y-66729735D01*
X139541541Y-66729735D02*
X139465350Y-66682116D01*
X139465350Y-66682116D02*
X139389160Y-66586877D01*
X139389160Y-66586877D02*
X139351064Y-66396401D01*
X139351064Y-66396401D02*
X139351064Y-66063068D01*
X139351064Y-66063068D02*
X139389160Y-65872592D01*
X139389160Y-65872592D02*
X139465350Y-65777354D01*
X139465350Y-65777354D02*
X139541541Y-65729735D01*
X140227255Y-66729735D02*
X140227255Y-65729735D01*
X140227255Y-65729735D02*
X140684398Y-66729735D01*
X140684398Y-66729735D02*
X140684398Y-65729735D01*
X139541541Y-67339679D02*
X139693922Y-67339679D01*
X139693922Y-67339679D02*
X139770112Y-67387298D01*
X139770112Y-67387298D02*
X139846303Y-67482536D01*
X139846303Y-67482536D02*
X139884398Y-67673012D01*
X139884398Y-67673012D02*
X139884398Y-68006345D01*
X139884398Y-68006345D02*
X139846303Y-68196821D01*
X139846303Y-68196821D02*
X139770112Y-68292060D01*
X139770112Y-68292060D02*
X139693922Y-68339679D01*
X139693922Y-68339679D02*
X139541541Y-68339679D01*
X139541541Y-68339679D02*
X139465350Y-68292060D01*
X139465350Y-68292060D02*
X139389160Y-68196821D01*
X139389160Y-68196821D02*
X139351064Y-68006345D01*
X139351064Y-68006345D02*
X139351064Y-67673012D01*
X139351064Y-67673012D02*
X139389160Y-67482536D01*
X139389160Y-67482536D02*
X139465350Y-67387298D01*
X139465350Y-67387298D02*
X139541541Y-67339679D01*
X140227255Y-68339679D02*
X140227255Y-67339679D01*
X140227255Y-67339679D02*
X140684398Y-68339679D01*
X140684398Y-68339679D02*
X140684398Y-67339679D01*
X139541541Y-68949623D02*
X139693922Y-68949623D01*
X139693922Y-68949623D02*
X139770112Y-68997242D01*
X139770112Y-68997242D02*
X139846303Y-69092480D01*
X139846303Y-69092480D02*
X139884398Y-69282956D01*
X139884398Y-69282956D02*
X139884398Y-69616289D01*
X139884398Y-69616289D02*
X139846303Y-69806765D01*
X139846303Y-69806765D02*
X139770112Y-69902004D01*
X139770112Y-69902004D02*
X139693922Y-69949623D01*
X139693922Y-69949623D02*
X139541541Y-69949623D01*
X139541541Y-69949623D02*
X139465350Y-69902004D01*
X139465350Y-69902004D02*
X139389160Y-69806765D01*
X139389160Y-69806765D02*
X139351064Y-69616289D01*
X139351064Y-69616289D02*
X139351064Y-69282956D01*
X139351064Y-69282956D02*
X139389160Y-69092480D01*
X139389160Y-69092480D02*
X139465350Y-68997242D01*
X139465350Y-68997242D02*
X139541541Y-68949623D01*
X140227255Y-69949623D02*
X140227255Y-68949623D01*
X140227255Y-68949623D02*
X140684398Y-69949623D01*
X140684398Y-69949623D02*
X140684398Y-68949623D01*
X193929580Y-78965715D02*
X193977200Y-79013334D01*
X193977200Y-79013334D02*
X194024819Y-79156191D01*
X194024819Y-79156191D02*
X194024819Y-79251429D01*
X194024819Y-79251429D02*
X193977200Y-79394286D01*
X193977200Y-79394286D02*
X193881961Y-79489524D01*
X193881961Y-79489524D02*
X193786723Y-79537143D01*
X193786723Y-79537143D02*
X193596247Y-79584762D01*
X193596247Y-79584762D02*
X193453390Y-79584762D01*
X193453390Y-79584762D02*
X193262914Y-79537143D01*
X193262914Y-79537143D02*
X193167676Y-79489524D01*
X193167676Y-79489524D02*
X193072438Y-79394286D01*
X193072438Y-79394286D02*
X193024819Y-79251429D01*
X193024819Y-79251429D02*
X193024819Y-79156191D01*
X193024819Y-79156191D02*
X193072438Y-79013334D01*
X193072438Y-79013334D02*
X193120057Y-78965715D01*
X194024819Y-78394286D02*
X193977200Y-78489524D01*
X193977200Y-78489524D02*
X193929580Y-78537143D01*
X193929580Y-78537143D02*
X193834342Y-78584762D01*
X193834342Y-78584762D02*
X193548628Y-78584762D01*
X193548628Y-78584762D02*
X193453390Y-78537143D01*
X193453390Y-78537143D02*
X193405771Y-78489524D01*
X193405771Y-78489524D02*
X193358152Y-78394286D01*
X193358152Y-78394286D02*
X193358152Y-78251429D01*
X193358152Y-78251429D02*
X193405771Y-78156191D01*
X193405771Y-78156191D02*
X193453390Y-78108572D01*
X193453390Y-78108572D02*
X193548628Y-78060953D01*
X193548628Y-78060953D02*
X193834342Y-78060953D01*
X193834342Y-78060953D02*
X193929580Y-78108572D01*
X193929580Y-78108572D02*
X193977200Y-78156191D01*
X193977200Y-78156191D02*
X194024819Y-78251429D01*
X194024819Y-78251429D02*
X194024819Y-78394286D01*
X194024819Y-77632381D02*
X193358152Y-77632381D01*
X193453390Y-77632381D02*
X193405771Y-77584762D01*
X193405771Y-77584762D02*
X193358152Y-77489524D01*
X193358152Y-77489524D02*
X193358152Y-77346667D01*
X193358152Y-77346667D02*
X193405771Y-77251429D01*
X193405771Y-77251429D02*
X193501009Y-77203810D01*
X193501009Y-77203810D02*
X194024819Y-77203810D01*
X193501009Y-77203810D02*
X193405771Y-77156191D01*
X193405771Y-77156191D02*
X193358152Y-77060953D01*
X193358152Y-77060953D02*
X193358152Y-76918096D01*
X193358152Y-76918096D02*
X193405771Y-76822857D01*
X193405771Y-76822857D02*
X193501009Y-76775238D01*
X193501009Y-76775238D02*
X194024819Y-76775238D01*
X193358152Y-76299048D02*
X194358152Y-76299048D01*
X193405771Y-76299048D02*
X193358152Y-76203810D01*
X193358152Y-76203810D02*
X193358152Y-76013334D01*
X193358152Y-76013334D02*
X193405771Y-75918096D01*
X193405771Y-75918096D02*
X193453390Y-75870477D01*
X193453390Y-75870477D02*
X193548628Y-75822858D01*
X193548628Y-75822858D02*
X193834342Y-75822858D01*
X193834342Y-75822858D02*
X193929580Y-75870477D01*
X193929580Y-75870477D02*
X193977200Y-75918096D01*
X193977200Y-75918096D02*
X194024819Y-76013334D01*
X194024819Y-76013334D02*
X194024819Y-76203810D01*
X194024819Y-76203810D02*
X193977200Y-76299048D01*
X193358152Y-74965715D02*
X194024819Y-74965715D01*
X193358152Y-75394286D02*
X193881961Y-75394286D01*
X193881961Y-75394286D02*
X193977200Y-75346667D01*
X193977200Y-75346667D02*
X194024819Y-75251429D01*
X194024819Y-75251429D02*
X194024819Y-75108572D01*
X194024819Y-75108572D02*
X193977200Y-75013334D01*
X193977200Y-75013334D02*
X193929580Y-74965715D01*
X193358152Y-74632381D02*
X193358152Y-74251429D01*
X193024819Y-74489524D02*
X193881961Y-74489524D01*
X193881961Y-74489524D02*
X193977200Y-74441905D01*
X193977200Y-74441905D02*
X194024819Y-74346667D01*
X194024819Y-74346667D02*
X194024819Y-74251429D01*
X193977200Y-73537143D02*
X194024819Y-73632381D01*
X194024819Y-73632381D02*
X194024819Y-73822857D01*
X194024819Y-73822857D02*
X193977200Y-73918095D01*
X193977200Y-73918095D02*
X193881961Y-73965714D01*
X193881961Y-73965714D02*
X193501009Y-73965714D01*
X193501009Y-73965714D02*
X193405771Y-73918095D01*
X193405771Y-73918095D02*
X193358152Y-73822857D01*
X193358152Y-73822857D02*
X193358152Y-73632381D01*
X193358152Y-73632381D02*
X193405771Y-73537143D01*
X193405771Y-73537143D02*
X193501009Y-73489524D01*
X193501009Y-73489524D02*
X193596247Y-73489524D01*
X193596247Y-73489524D02*
X193691485Y-73965714D01*
X194024819Y-73060952D02*
X193358152Y-73060952D01*
X193548628Y-73060952D02*
X193453390Y-73013333D01*
X193453390Y-73013333D02*
X193405771Y-72965714D01*
X193405771Y-72965714D02*
X193358152Y-72870476D01*
X193358152Y-72870476D02*
X193358152Y-72775238D01*
X194024819Y-71108571D02*
X193548628Y-71441904D01*
X194024819Y-71679999D02*
X193024819Y-71679999D01*
X193024819Y-71679999D02*
X193024819Y-71299047D01*
X193024819Y-71299047D02*
X193072438Y-71203809D01*
X193072438Y-71203809D02*
X193120057Y-71156190D01*
X193120057Y-71156190D02*
X193215295Y-71108571D01*
X193215295Y-71108571D02*
X193358152Y-71108571D01*
X193358152Y-71108571D02*
X193453390Y-71156190D01*
X193453390Y-71156190D02*
X193501009Y-71203809D01*
X193501009Y-71203809D02*
X193548628Y-71299047D01*
X193548628Y-71299047D02*
X193548628Y-71679999D01*
X193977200Y-70299047D02*
X194024819Y-70394285D01*
X194024819Y-70394285D02*
X194024819Y-70584761D01*
X194024819Y-70584761D02*
X193977200Y-70679999D01*
X193977200Y-70679999D02*
X193881961Y-70727618D01*
X193881961Y-70727618D02*
X193501009Y-70727618D01*
X193501009Y-70727618D02*
X193405771Y-70679999D01*
X193405771Y-70679999D02*
X193358152Y-70584761D01*
X193358152Y-70584761D02*
X193358152Y-70394285D01*
X193358152Y-70394285D02*
X193405771Y-70299047D01*
X193405771Y-70299047D02*
X193501009Y-70251428D01*
X193501009Y-70251428D02*
X193596247Y-70251428D01*
X193596247Y-70251428D02*
X193691485Y-70727618D01*
X194024819Y-69394285D02*
X193501009Y-69394285D01*
X193501009Y-69394285D02*
X193405771Y-69441904D01*
X193405771Y-69441904D02*
X193358152Y-69537142D01*
X193358152Y-69537142D02*
X193358152Y-69727618D01*
X193358152Y-69727618D02*
X193405771Y-69822856D01*
X193977200Y-69394285D02*
X194024819Y-69489523D01*
X194024819Y-69489523D02*
X194024819Y-69727618D01*
X194024819Y-69727618D02*
X193977200Y-69822856D01*
X193977200Y-69822856D02*
X193881961Y-69870475D01*
X193881961Y-69870475D02*
X193786723Y-69870475D01*
X193786723Y-69870475D02*
X193691485Y-69822856D01*
X193691485Y-69822856D02*
X193643866Y-69727618D01*
X193643866Y-69727618D02*
X193643866Y-69489523D01*
X193643866Y-69489523D02*
X193596247Y-69394285D01*
X194024819Y-68918094D02*
X193358152Y-68918094D01*
X193548628Y-68918094D02*
X193453390Y-68870475D01*
X193453390Y-68870475D02*
X193405771Y-68822856D01*
X193405771Y-68822856D02*
X193358152Y-68727618D01*
X193358152Y-68727618D02*
X193358152Y-68632380D01*
X193977200Y-67584760D02*
X194024819Y-67441903D01*
X194024819Y-67441903D02*
X194024819Y-67203808D01*
X194024819Y-67203808D02*
X193977200Y-67108570D01*
X193977200Y-67108570D02*
X193929580Y-67060951D01*
X193929580Y-67060951D02*
X193834342Y-67013332D01*
X193834342Y-67013332D02*
X193739104Y-67013332D01*
X193739104Y-67013332D02*
X193643866Y-67060951D01*
X193643866Y-67060951D02*
X193596247Y-67108570D01*
X193596247Y-67108570D02*
X193548628Y-67203808D01*
X193548628Y-67203808D02*
X193501009Y-67394284D01*
X193501009Y-67394284D02*
X193453390Y-67489522D01*
X193453390Y-67489522D02*
X193405771Y-67537141D01*
X193405771Y-67537141D02*
X193310533Y-67584760D01*
X193310533Y-67584760D02*
X193215295Y-67584760D01*
X193215295Y-67584760D02*
X193120057Y-67537141D01*
X193120057Y-67537141D02*
X193072438Y-67489522D01*
X193072438Y-67489522D02*
X193024819Y-67394284D01*
X193024819Y-67394284D02*
X193024819Y-67156189D01*
X193024819Y-67156189D02*
X193072438Y-67013332D01*
X194024819Y-66584760D02*
X193358152Y-66584760D01*
X193024819Y-66584760D02*
X193072438Y-66632379D01*
X193072438Y-66632379D02*
X193120057Y-66584760D01*
X193120057Y-66584760D02*
X193072438Y-66537141D01*
X193072438Y-66537141D02*
X193024819Y-66584760D01*
X193024819Y-66584760D02*
X193120057Y-66584760D01*
X194024819Y-65679999D02*
X193024819Y-65679999D01*
X193977200Y-65679999D02*
X194024819Y-65775237D01*
X194024819Y-65775237D02*
X194024819Y-65965713D01*
X194024819Y-65965713D02*
X193977200Y-66060951D01*
X193977200Y-66060951D02*
X193929580Y-66108570D01*
X193929580Y-66108570D02*
X193834342Y-66156189D01*
X193834342Y-66156189D02*
X193548628Y-66156189D01*
X193548628Y-66156189D02*
X193453390Y-66108570D01*
X193453390Y-66108570D02*
X193405771Y-66060951D01*
X193405771Y-66060951D02*
X193358152Y-65965713D01*
X193358152Y-65965713D02*
X193358152Y-65775237D01*
X193358152Y-65775237D02*
X193405771Y-65679999D01*
X193977200Y-64822856D02*
X194024819Y-64918094D01*
X194024819Y-64918094D02*
X194024819Y-65108570D01*
X194024819Y-65108570D02*
X193977200Y-65203808D01*
X193977200Y-65203808D02*
X193881961Y-65251427D01*
X193881961Y-65251427D02*
X193501009Y-65251427D01*
X193501009Y-65251427D02*
X193405771Y-65203808D01*
X193405771Y-65203808D02*
X193358152Y-65108570D01*
X193358152Y-65108570D02*
X193358152Y-64918094D01*
X193358152Y-64918094D02*
X193405771Y-64822856D01*
X193405771Y-64822856D02*
X193501009Y-64775237D01*
X193501009Y-64775237D02*
X193596247Y-64775237D01*
X193596247Y-64775237D02*
X193691485Y-65251427D01*
D11*
X121641428Y-84415273D02*
X121224762Y-83820035D01*
X120927143Y-84415273D02*
X120927143Y-83165273D01*
X120927143Y-83165273D02*
X121403333Y-83165273D01*
X121403333Y-83165273D02*
X121522381Y-83224797D01*
X121522381Y-83224797D02*
X121581904Y-83284321D01*
X121581904Y-83284321D02*
X121641428Y-83403369D01*
X121641428Y-83403369D02*
X121641428Y-83581940D01*
X121641428Y-83581940D02*
X121581904Y-83700988D01*
X121581904Y-83700988D02*
X121522381Y-83760511D01*
X121522381Y-83760511D02*
X121403333Y-83820035D01*
X121403333Y-83820035D02*
X120927143Y-83820035D01*
X121998571Y-83165273D02*
X122712857Y-83165273D01*
X122355714Y-84415273D02*
X122355714Y-83165273D01*
X123843809Y-84296226D02*
X123784285Y-84355750D01*
X123784285Y-84355750D02*
X123605714Y-84415273D01*
X123605714Y-84415273D02*
X123486666Y-84415273D01*
X123486666Y-84415273D02*
X123308095Y-84355750D01*
X123308095Y-84355750D02*
X123189047Y-84236702D01*
X123189047Y-84236702D02*
X123129524Y-84117654D01*
X123129524Y-84117654D02*
X123070000Y-83879559D01*
X123070000Y-83879559D02*
X123070000Y-83700988D01*
X123070000Y-83700988D02*
X123129524Y-83462892D01*
X123129524Y-83462892D02*
X123189047Y-83343845D01*
X123189047Y-83343845D02*
X123308095Y-83224797D01*
X123308095Y-83224797D02*
X123486666Y-83165273D01*
X123486666Y-83165273D02*
X123605714Y-83165273D01*
X123605714Y-83165273D02*
X123784285Y-83224797D01*
X123784285Y-83224797D02*
X123843809Y-83284321D01*
X124558095Y-83700988D02*
X124439047Y-83641464D01*
X124439047Y-83641464D02*
X124379524Y-83581940D01*
X124379524Y-83581940D02*
X124320000Y-83462892D01*
X124320000Y-83462892D02*
X124320000Y-83403369D01*
X124320000Y-83403369D02*
X124379524Y-83284321D01*
X124379524Y-83284321D02*
X124439047Y-83224797D01*
X124439047Y-83224797D02*
X124558095Y-83165273D01*
X124558095Y-83165273D02*
X124796190Y-83165273D01*
X124796190Y-83165273D02*
X124915238Y-83224797D01*
X124915238Y-83224797D02*
X124974762Y-83284321D01*
X124974762Y-83284321D02*
X125034285Y-83403369D01*
X125034285Y-83403369D02*
X125034285Y-83462892D01*
X125034285Y-83462892D02*
X124974762Y-83581940D01*
X124974762Y-83581940D02*
X124915238Y-83641464D01*
X124915238Y-83641464D02*
X124796190Y-83700988D01*
X124796190Y-83700988D02*
X124558095Y-83700988D01*
X124558095Y-83700988D02*
X124439047Y-83760511D01*
X124439047Y-83760511D02*
X124379524Y-83820035D01*
X124379524Y-83820035D02*
X124320000Y-83939083D01*
X124320000Y-83939083D02*
X124320000Y-84177178D01*
X124320000Y-84177178D02*
X124379524Y-84296226D01*
X124379524Y-84296226D02*
X124439047Y-84355750D01*
X124439047Y-84355750D02*
X124558095Y-84415273D01*
X124558095Y-84415273D02*
X124796190Y-84415273D01*
X124796190Y-84415273D02*
X124915238Y-84355750D01*
X124915238Y-84355750D02*
X124974762Y-84296226D01*
X124974762Y-84296226D02*
X125034285Y-84177178D01*
X125034285Y-84177178D02*
X125034285Y-83939083D01*
X125034285Y-83939083D02*
X124974762Y-83820035D01*
X124974762Y-83820035D02*
X124915238Y-83760511D01*
X124915238Y-83760511D02*
X124796190Y-83700988D01*
X125808095Y-83165273D02*
X125927142Y-83165273D01*
X125927142Y-83165273D02*
X126046190Y-83224797D01*
X126046190Y-83224797D02*
X126105714Y-83284321D01*
X126105714Y-83284321D02*
X126165238Y-83403369D01*
X126165238Y-83403369D02*
X126224761Y-83641464D01*
X126224761Y-83641464D02*
X126224761Y-83939083D01*
X126224761Y-83939083D02*
X126165238Y-84177178D01*
X126165238Y-84177178D02*
X126105714Y-84296226D01*
X126105714Y-84296226D02*
X126046190Y-84355750D01*
X126046190Y-84355750D02*
X125927142Y-84415273D01*
X125927142Y-84415273D02*
X125808095Y-84415273D01*
X125808095Y-84415273D02*
X125689047Y-84355750D01*
X125689047Y-84355750D02*
X125629523Y-84296226D01*
X125629523Y-84296226D02*
X125570000Y-84177178D01*
X125570000Y-84177178D02*
X125510476Y-83939083D01*
X125510476Y-83939083D02*
X125510476Y-83641464D01*
X125510476Y-83641464D02*
X125570000Y-83403369D01*
X125570000Y-83403369D02*
X125629523Y-83284321D01*
X125629523Y-83284321D02*
X125689047Y-83224797D01*
X125689047Y-83224797D02*
X125808095Y-83165273D01*
X126939047Y-83700988D02*
X126819999Y-83641464D01*
X126819999Y-83641464D02*
X126760476Y-83581940D01*
X126760476Y-83581940D02*
X126700952Y-83462892D01*
X126700952Y-83462892D02*
X126700952Y-83403369D01*
X126700952Y-83403369D02*
X126760476Y-83284321D01*
X126760476Y-83284321D02*
X126819999Y-83224797D01*
X126819999Y-83224797D02*
X126939047Y-83165273D01*
X126939047Y-83165273D02*
X127177142Y-83165273D01*
X127177142Y-83165273D02*
X127296190Y-83224797D01*
X127296190Y-83224797D02*
X127355714Y-83284321D01*
X127355714Y-83284321D02*
X127415237Y-83403369D01*
X127415237Y-83403369D02*
X127415237Y-83462892D01*
X127415237Y-83462892D02*
X127355714Y-83581940D01*
X127355714Y-83581940D02*
X127296190Y-83641464D01*
X127296190Y-83641464D02*
X127177142Y-83700988D01*
X127177142Y-83700988D02*
X126939047Y-83700988D01*
X126939047Y-83700988D02*
X126819999Y-83760511D01*
X126819999Y-83760511D02*
X126760476Y-83820035D01*
X126760476Y-83820035D02*
X126700952Y-83939083D01*
X126700952Y-83939083D02*
X126700952Y-84177178D01*
X126700952Y-84177178D02*
X126760476Y-84296226D01*
X126760476Y-84296226D02*
X126819999Y-84355750D01*
X126819999Y-84355750D02*
X126939047Y-84415273D01*
X126939047Y-84415273D02*
X127177142Y-84415273D01*
X127177142Y-84415273D02*
X127296190Y-84355750D01*
X127296190Y-84355750D02*
X127355714Y-84296226D01*
X127355714Y-84296226D02*
X127415237Y-84177178D01*
X127415237Y-84177178D02*
X127415237Y-83939083D01*
X127415237Y-83939083D02*
X127355714Y-83820035D01*
X127355714Y-83820035D02*
X127296190Y-83760511D01*
X127296190Y-83760511D02*
X127177142Y-83700988D01*
X128129523Y-83700988D02*
X128010475Y-83641464D01*
X128010475Y-83641464D02*
X127950952Y-83581940D01*
X127950952Y-83581940D02*
X127891428Y-83462892D01*
X127891428Y-83462892D02*
X127891428Y-83403369D01*
X127891428Y-83403369D02*
X127950952Y-83284321D01*
X127950952Y-83284321D02*
X128010475Y-83224797D01*
X128010475Y-83224797D02*
X128129523Y-83165273D01*
X128129523Y-83165273D02*
X128367618Y-83165273D01*
X128367618Y-83165273D02*
X128486666Y-83224797D01*
X128486666Y-83224797D02*
X128546190Y-83284321D01*
X128546190Y-83284321D02*
X128605713Y-83403369D01*
X128605713Y-83403369D02*
X128605713Y-83462892D01*
X128605713Y-83462892D02*
X128546190Y-83581940D01*
X128546190Y-83581940D02*
X128486666Y-83641464D01*
X128486666Y-83641464D02*
X128367618Y-83700988D01*
X128367618Y-83700988D02*
X128129523Y-83700988D01*
X128129523Y-83700988D02*
X128010475Y-83760511D01*
X128010475Y-83760511D02*
X127950952Y-83820035D01*
X127950952Y-83820035D02*
X127891428Y-83939083D01*
X127891428Y-83939083D02*
X127891428Y-84177178D01*
X127891428Y-84177178D02*
X127950952Y-84296226D01*
X127950952Y-84296226D02*
X128010475Y-84355750D01*
X128010475Y-84355750D02*
X128129523Y-84415273D01*
X128129523Y-84415273D02*
X128367618Y-84415273D01*
X128367618Y-84415273D02*
X128486666Y-84355750D01*
X128486666Y-84355750D02*
X128546190Y-84296226D01*
X128546190Y-84296226D02*
X128605713Y-84177178D01*
X128605713Y-84177178D02*
X128605713Y-83939083D01*
X128605713Y-83939083D02*
X128546190Y-83820035D01*
X128546190Y-83820035D02*
X128486666Y-83760511D01*
X128486666Y-83760511D02*
X128367618Y-83700988D01*
X130093809Y-83939083D02*
X131046190Y-83939083D01*
X132415237Y-83165273D02*
X132831904Y-84415273D01*
X132831904Y-84415273D02*
X133248570Y-83165273D01*
X134141428Y-84355750D02*
X134022380Y-84415273D01*
X134022380Y-84415273D02*
X133784285Y-84415273D01*
X133784285Y-84415273D02*
X133665238Y-84355750D01*
X133665238Y-84355750D02*
X133605714Y-84236702D01*
X133605714Y-84236702D02*
X133605714Y-83760511D01*
X133605714Y-83760511D02*
X133665238Y-83641464D01*
X133665238Y-83641464D02*
X133784285Y-83581940D01*
X133784285Y-83581940D02*
X134022380Y-83581940D01*
X134022380Y-83581940D02*
X134141428Y-83641464D01*
X134141428Y-83641464D02*
X134200952Y-83760511D01*
X134200952Y-83760511D02*
X134200952Y-83879559D01*
X134200952Y-83879559D02*
X133605714Y-83998607D01*
X134736667Y-84415273D02*
X134736667Y-83581940D01*
X134736667Y-83820035D02*
X134796190Y-83700988D01*
X134796190Y-83700988D02*
X134855714Y-83641464D01*
X134855714Y-83641464D02*
X134974762Y-83581940D01*
X134974762Y-83581940D02*
X135093809Y-83581940D01*
X135450953Y-84355750D02*
X135570000Y-84415273D01*
X135570000Y-84415273D02*
X135808096Y-84415273D01*
X135808096Y-84415273D02*
X135927143Y-84355750D01*
X135927143Y-84355750D02*
X135986667Y-84236702D01*
X135986667Y-84236702D02*
X135986667Y-84177178D01*
X135986667Y-84177178D02*
X135927143Y-84058130D01*
X135927143Y-84058130D02*
X135808096Y-83998607D01*
X135808096Y-83998607D02*
X135629524Y-83998607D01*
X135629524Y-83998607D02*
X135510477Y-83939083D01*
X135510477Y-83939083D02*
X135450953Y-83820035D01*
X135450953Y-83820035D02*
X135450953Y-83760511D01*
X135450953Y-83760511D02*
X135510477Y-83641464D01*
X135510477Y-83641464D02*
X135629524Y-83581940D01*
X135629524Y-83581940D02*
X135808096Y-83581940D01*
X135808096Y-83581940D02*
X135927143Y-83641464D01*
X136522382Y-84415273D02*
X136522382Y-83581940D01*
X136522382Y-83165273D02*
X136462858Y-83224797D01*
X136462858Y-83224797D02*
X136522382Y-83284321D01*
X136522382Y-83284321D02*
X136581905Y-83224797D01*
X136581905Y-83224797D02*
X136522382Y-83165273D01*
X136522382Y-83165273D02*
X136522382Y-83284321D01*
X137296191Y-84415273D02*
X137177143Y-84355750D01*
X137177143Y-84355750D02*
X137117620Y-84296226D01*
X137117620Y-84296226D02*
X137058096Y-84177178D01*
X137058096Y-84177178D02*
X137058096Y-83820035D01*
X137058096Y-83820035D02*
X137117620Y-83700988D01*
X137117620Y-83700988D02*
X137177143Y-83641464D01*
X137177143Y-83641464D02*
X137296191Y-83581940D01*
X137296191Y-83581940D02*
X137474762Y-83581940D01*
X137474762Y-83581940D02*
X137593810Y-83641464D01*
X137593810Y-83641464D02*
X137653334Y-83700988D01*
X137653334Y-83700988D02*
X137712858Y-83820035D01*
X137712858Y-83820035D02*
X137712858Y-84177178D01*
X137712858Y-84177178D02*
X137653334Y-84296226D01*
X137653334Y-84296226D02*
X137593810Y-84355750D01*
X137593810Y-84355750D02*
X137474762Y-84415273D01*
X137474762Y-84415273D02*
X137296191Y-84415273D01*
X138248572Y-83581940D02*
X138248572Y-84415273D01*
X138248572Y-83700988D02*
X138308095Y-83641464D01*
X138308095Y-83641464D02*
X138427143Y-83581940D01*
X138427143Y-83581940D02*
X138605714Y-83581940D01*
X138605714Y-83581940D02*
X138724762Y-83641464D01*
X138724762Y-83641464D02*
X138784286Y-83760511D01*
X138784286Y-83760511D02*
X138784286Y-84415273D01*
X140212857Y-83165273D02*
X140986666Y-83165273D01*
X140986666Y-83165273D02*
X140570000Y-83641464D01*
X140570000Y-83641464D02*
X140748571Y-83641464D01*
X140748571Y-83641464D02*
X140867619Y-83700988D01*
X140867619Y-83700988D02*
X140927143Y-83760511D01*
X140927143Y-83760511D02*
X140986666Y-83879559D01*
X140986666Y-83879559D02*
X140986666Y-84177178D01*
X140986666Y-84177178D02*
X140927143Y-84296226D01*
X140927143Y-84296226D02*
X140867619Y-84355750D01*
X140867619Y-84355750D02*
X140748571Y-84415273D01*
X140748571Y-84415273D02*
X140391428Y-84415273D01*
X140391428Y-84415273D02*
X140272381Y-84355750D01*
X140272381Y-84355750D02*
X140212857Y-84296226D01*
X141522381Y-84296226D02*
X141581904Y-84355750D01*
X141581904Y-84355750D02*
X141522381Y-84415273D01*
X141522381Y-84415273D02*
X141462857Y-84355750D01*
X141462857Y-84355750D02*
X141522381Y-84296226D01*
X141522381Y-84296226D02*
X141522381Y-84415273D01*
X142772380Y-84415273D02*
X142058095Y-84415273D01*
X142415238Y-84415273D02*
X142415238Y-83165273D01*
X142415238Y-83165273D02*
X142296190Y-83343845D01*
X142296190Y-83343845D02*
X142177142Y-83462892D01*
X142177142Y-83462892D02*
X142058095Y-83522416D01*
D10*
X162472785Y-58732009D02*
X162615642Y-58779628D01*
X162615642Y-58779628D02*
X162663261Y-58827247D01*
X162663261Y-58827247D02*
X162710880Y-58922485D01*
X162710880Y-58922485D02*
X162710880Y-59065342D01*
X162710880Y-59065342D02*
X162663261Y-59160580D01*
X162663261Y-59160580D02*
X162615642Y-59208200D01*
X162615642Y-59208200D02*
X162520404Y-59255819D01*
X162520404Y-59255819D02*
X162139452Y-59255819D01*
X162139452Y-59255819D02*
X162139452Y-58255819D01*
X162139452Y-58255819D02*
X162472785Y-58255819D01*
X162472785Y-58255819D02*
X162568023Y-58303438D01*
X162568023Y-58303438D02*
X162615642Y-58351057D01*
X162615642Y-58351057D02*
X162663261Y-58446295D01*
X162663261Y-58446295D02*
X162663261Y-58541533D01*
X162663261Y-58541533D02*
X162615642Y-58636771D01*
X162615642Y-58636771D02*
X162568023Y-58684390D01*
X162568023Y-58684390D02*
X162472785Y-58732009D01*
X162472785Y-58732009D02*
X162139452Y-58732009D01*
X162996595Y-58255819D02*
X163568023Y-58255819D01*
X163282309Y-59255819D02*
X163282309Y-58255819D01*
X164425166Y-59255819D02*
X163853738Y-59255819D01*
X164139452Y-59255819D02*
X164139452Y-58255819D01*
X164139452Y-58255819D02*
X164044214Y-58398676D01*
X164044214Y-58398676D02*
X163948976Y-58493914D01*
X163948976Y-58493914D02*
X163853738Y-58541533D01*
X161378737Y-60748080D02*
X161329928Y-60795700D01*
X161329928Y-60795700D02*
X161195404Y-60843319D01*
X161195404Y-60843319D02*
X161109690Y-60843319D01*
X161109690Y-60843319D02*
X160987071Y-60795700D01*
X160987071Y-60795700D02*
X160913261Y-60700461D01*
X160913261Y-60700461D02*
X160882309Y-60605223D01*
X160882309Y-60605223D02*
X160863261Y-60414747D01*
X160863261Y-60414747D02*
X160881118Y-60271890D01*
X160881118Y-60271890D02*
X160947785Y-60081414D01*
X160947785Y-60081414D02*
X161002547Y-59986176D01*
X161002547Y-59986176D02*
X161100166Y-59890938D01*
X161100166Y-59890938D02*
X161234690Y-59843319D01*
X161234690Y-59843319D02*
X161320404Y-59843319D01*
X161320404Y-59843319D02*
X161443023Y-59890938D01*
X161443023Y-59890938D02*
X161479928Y-59938557D01*
X162266833Y-60843319D02*
X162026356Y-60367128D01*
X161752547Y-60843319D02*
X161877547Y-59843319D01*
X161877547Y-59843319D02*
X162220404Y-59843319D01*
X162220404Y-59843319D02*
X162300166Y-59890938D01*
X162300166Y-59890938D02*
X162337071Y-59938557D01*
X162337071Y-59938557D02*
X162368023Y-60033795D01*
X162368023Y-60033795D02*
X162350166Y-60176652D01*
X162350166Y-60176652D02*
X162295404Y-60271890D01*
X162295404Y-60271890D02*
X162246594Y-60319509D01*
X162246594Y-60319509D02*
X162154928Y-60367128D01*
X162154928Y-60367128D02*
X161812071Y-60367128D01*
X162722785Y-59938557D02*
X162771594Y-59890938D01*
X162771594Y-59890938D02*
X162863261Y-59843319D01*
X162863261Y-59843319D02*
X163077547Y-59843319D01*
X163077547Y-59843319D02*
X163157309Y-59890938D01*
X163157309Y-59890938D02*
X163194214Y-59938557D01*
X163194214Y-59938557D02*
X163225166Y-60033795D01*
X163225166Y-60033795D02*
X163213261Y-60129033D01*
X163213261Y-60129033D02*
X163152547Y-60271890D01*
X163152547Y-60271890D02*
X162566833Y-60843319D01*
X162566833Y-60843319D02*
X163123975Y-60843319D01*
X163806118Y-59843319D02*
X163891833Y-59843319D01*
X163891833Y-59843319D02*
X163971595Y-59890938D01*
X163971595Y-59890938D02*
X164008499Y-59938557D01*
X164008499Y-59938557D02*
X164039452Y-60033795D01*
X164039452Y-60033795D02*
X164058499Y-60224271D01*
X164058499Y-60224271D02*
X164028737Y-60462366D01*
X164028737Y-60462366D02*
X163962071Y-60652842D01*
X163962071Y-60652842D02*
X163907309Y-60748080D01*
X163907309Y-60748080D02*
X163858499Y-60795700D01*
X163858499Y-60795700D02*
X163766833Y-60843319D01*
X163766833Y-60843319D02*
X163681118Y-60843319D01*
X163681118Y-60843319D02*
X163601357Y-60795700D01*
X163601357Y-60795700D02*
X163564452Y-60748080D01*
X163564452Y-60748080D02*
X163533499Y-60652842D01*
X163533499Y-60652842D02*
X163514452Y-60462366D01*
X163514452Y-60462366D02*
X163544214Y-60224271D01*
X163544214Y-60224271D02*
X163610880Y-60033795D01*
X163610880Y-60033795D02*
X163665642Y-59938557D01*
X163665642Y-59938557D02*
X163714452Y-59890938D01*
X163714452Y-59890938D02*
X163806118Y-59843319D01*
X164406119Y-59843319D02*
X164963261Y-59843319D01*
X164963261Y-59843319D02*
X164615642Y-60224271D01*
X164615642Y-60224271D02*
X164744214Y-60224271D01*
X164744214Y-60224271D02*
X164823976Y-60271890D01*
X164823976Y-60271890D02*
X164860880Y-60319509D01*
X164860880Y-60319509D02*
X164891833Y-60414747D01*
X164891833Y-60414747D02*
X164862071Y-60652842D01*
X164862071Y-60652842D02*
X164807309Y-60748080D01*
X164807309Y-60748080D02*
X164758500Y-60795700D01*
X164758500Y-60795700D02*
X164666833Y-60843319D01*
X164666833Y-60843319D02*
X164409690Y-60843319D01*
X164409690Y-60843319D02*
X164329928Y-60795700D01*
X164329928Y-60795700D02*
X164293023Y-60748080D01*
X165294214Y-59938557D02*
X165343023Y-59890938D01*
X165343023Y-59890938D02*
X165434690Y-59843319D01*
X165434690Y-59843319D02*
X165648976Y-59843319D01*
X165648976Y-59843319D02*
X165728738Y-59890938D01*
X165728738Y-59890938D02*
X165765643Y-59938557D01*
X165765643Y-59938557D02*
X165796595Y-60033795D01*
X165796595Y-60033795D02*
X165784690Y-60129033D01*
X165784690Y-60129033D02*
X165723976Y-60271890D01*
X165723976Y-60271890D02*
X165138262Y-60843319D01*
X165138262Y-60843319D02*
X165695404Y-60843319D01*
X151688848Y-79773986D02*
X152450753Y-79773986D01*
X152118266Y-60142071D02*
X152118266Y-59380167D01*
X152499219Y-59761119D02*
X151737314Y-59761119D01*
X171779819Y-72057904D02*
X172589342Y-72057904D01*
X172589342Y-72057904D02*
X172684580Y-72010285D01*
X172684580Y-72010285D02*
X172732200Y-71962666D01*
X172732200Y-71962666D02*
X172779819Y-71867428D01*
X172779819Y-71867428D02*
X172779819Y-71676952D01*
X172779819Y-71676952D02*
X172732200Y-71581714D01*
X172732200Y-71581714D02*
X172684580Y-71534095D01*
X172684580Y-71534095D02*
X172589342Y-71486476D01*
X172589342Y-71486476D02*
X171779819Y-71486476D01*
X172779819Y-70486476D02*
X172779819Y-71057904D01*
X172779819Y-70772190D02*
X171779819Y-70772190D01*
X171779819Y-70772190D02*
X171922676Y-70867428D01*
X171922676Y-70867428D02*
X172017914Y-70962666D01*
X172017914Y-70962666D02*
X172065533Y-71057904D01*
X111484819Y-70020476D02*
X111008628Y-70353809D01*
X111484819Y-70591904D02*
X110484819Y-70591904D01*
X110484819Y-70591904D02*
X110484819Y-70210952D01*
X110484819Y-70210952D02*
X110532438Y-70115714D01*
X110532438Y-70115714D02*
X110580057Y-70068095D01*
X110580057Y-70068095D02*
X110675295Y-70020476D01*
X110675295Y-70020476D02*
X110818152Y-70020476D01*
X110818152Y-70020476D02*
X110913390Y-70068095D01*
X110913390Y-70068095D02*
X110961009Y-70115714D01*
X110961009Y-70115714D02*
X111008628Y-70210952D01*
X111008628Y-70210952D02*
X111008628Y-70591904D01*
X111484819Y-69591904D02*
X110484819Y-69591904D01*
X110484819Y-69591904D02*
X111484819Y-69020476D01*
X111484819Y-69020476D02*
X110484819Y-69020476D01*
X111484819Y-68020476D02*
X111484819Y-68591904D01*
X111484819Y-68306190D02*
X110484819Y-68306190D01*
X110484819Y-68306190D02*
X110627676Y-68401428D01*
X110627676Y-68401428D02*
X110722914Y-68496666D01*
X110722914Y-68496666D02*
X110770533Y-68591904D01*
X180146666Y-59374819D02*
X180146666Y-60089104D01*
X180146666Y-60089104D02*
X180099047Y-60231961D01*
X180099047Y-60231961D02*
X180003809Y-60327200D01*
X180003809Y-60327200D02*
X179860952Y-60374819D01*
X179860952Y-60374819D02*
X179765714Y-60374819D01*
X180622857Y-60374819D02*
X180622857Y-59374819D01*
X180622857Y-59374819D02*
X181003809Y-59374819D01*
X181003809Y-59374819D02*
X181099047Y-59422438D01*
X181099047Y-59422438D02*
X181146666Y-59470057D01*
X181146666Y-59470057D02*
X181194285Y-59565295D01*
X181194285Y-59565295D02*
X181194285Y-59708152D01*
X181194285Y-59708152D02*
X181146666Y-59803390D01*
X181146666Y-59803390D02*
X181099047Y-59851009D01*
X181099047Y-59851009D02*
X181003809Y-59898628D01*
X181003809Y-59898628D02*
X180622857Y-59898628D01*
X182146666Y-60374819D02*
X181575238Y-60374819D01*
X181860952Y-60374819D02*
X181860952Y-59374819D01*
X181860952Y-59374819D02*
X181765714Y-59517676D01*
X181765714Y-59517676D02*
X181670476Y-59612914D01*
X181670476Y-59612914D02*
X181575238Y-59660533D01*
X180270237Y-63139580D02*
X180221428Y-63187200D01*
X180221428Y-63187200D02*
X180086904Y-63234819D01*
X180086904Y-63234819D02*
X180001190Y-63234819D01*
X180001190Y-63234819D02*
X179878571Y-63187200D01*
X179878571Y-63187200D02*
X179804761Y-63091961D01*
X179804761Y-63091961D02*
X179773809Y-62996723D01*
X179773809Y-62996723D02*
X179754761Y-62806247D01*
X179754761Y-62806247D02*
X179772618Y-62663390D01*
X179772618Y-62663390D02*
X179839285Y-62472914D01*
X179839285Y-62472914D02*
X179894047Y-62377676D01*
X179894047Y-62377676D02*
X179991666Y-62282438D01*
X179991666Y-62282438D02*
X180126190Y-62234819D01*
X180126190Y-62234819D02*
X180211904Y-62234819D01*
X180211904Y-62234819D02*
X180334523Y-62282438D01*
X180334523Y-62282438D02*
X180371428Y-62330057D01*
X180772618Y-63234819D02*
X180692856Y-63187200D01*
X180692856Y-63187200D02*
X180661904Y-63091961D01*
X180661904Y-63091961D02*
X180769047Y-62234819D01*
X181464285Y-63187200D02*
X181372619Y-63234819D01*
X181372619Y-63234819D02*
X181201190Y-63234819D01*
X181201190Y-63234819D02*
X181121428Y-63187200D01*
X181121428Y-63187200D02*
X181090476Y-63091961D01*
X181090476Y-63091961D02*
X181138095Y-62711009D01*
X181138095Y-62711009D02*
X181192857Y-62615771D01*
X181192857Y-62615771D02*
X181284523Y-62568152D01*
X181284523Y-62568152D02*
X181455952Y-62568152D01*
X181455952Y-62568152D02*
X181535714Y-62615771D01*
X181535714Y-62615771D02*
X181566666Y-62711009D01*
X181566666Y-62711009D02*
X181554762Y-62806247D01*
X181554762Y-62806247D02*
X181114285Y-62901485D01*
X182272619Y-63234819D02*
X182338095Y-62711009D01*
X182338095Y-62711009D02*
X182307143Y-62615771D01*
X182307143Y-62615771D02*
X182227381Y-62568152D01*
X182227381Y-62568152D02*
X182055952Y-62568152D01*
X182055952Y-62568152D02*
X181964286Y-62615771D01*
X182278572Y-63187200D02*
X182186905Y-63234819D01*
X182186905Y-63234819D02*
X181972619Y-63234819D01*
X181972619Y-63234819D02*
X181892857Y-63187200D01*
X181892857Y-63187200D02*
X181861905Y-63091961D01*
X181861905Y-63091961D02*
X181873810Y-62996723D01*
X181873810Y-62996723D02*
X181928572Y-62901485D01*
X181928572Y-62901485D02*
X182020238Y-62853866D01*
X182020238Y-62853866D02*
X182234524Y-62853866D01*
X182234524Y-62853866D02*
X182326191Y-62806247D01*
X182701191Y-63234819D02*
X182784524Y-62568152D01*
X182760715Y-62758628D02*
X182815477Y-62663390D01*
X182815477Y-62663390D02*
X182864286Y-62615771D01*
X182864286Y-62615771D02*
X182955953Y-62568152D01*
X182955953Y-62568152D02*
X183041667Y-62568152D01*
X184470238Y-63139580D02*
X184421429Y-63187200D01*
X184421429Y-63187200D02*
X184286905Y-63234819D01*
X184286905Y-63234819D02*
X184201191Y-63234819D01*
X184201191Y-63234819D02*
X184078572Y-63187200D01*
X184078572Y-63187200D02*
X184004762Y-63091961D01*
X184004762Y-63091961D02*
X183973810Y-62996723D01*
X183973810Y-62996723D02*
X183954762Y-62806247D01*
X183954762Y-62806247D02*
X183972619Y-62663390D01*
X183972619Y-62663390D02*
X184039286Y-62472914D01*
X184039286Y-62472914D02*
X184094048Y-62377676D01*
X184094048Y-62377676D02*
X184191667Y-62282438D01*
X184191667Y-62282438D02*
X184326191Y-62234819D01*
X184326191Y-62234819D02*
X184411905Y-62234819D01*
X184411905Y-62234819D02*
X184534524Y-62282438D01*
X184534524Y-62282438D02*
X184571429Y-62330057D01*
X184844048Y-63234819D02*
X184969048Y-62234819D01*
X184969048Y-62234819D02*
X185179762Y-62949104D01*
X185179762Y-62949104D02*
X185569048Y-62234819D01*
X185569048Y-62234819D02*
X185444048Y-63234819D01*
X186169047Y-62234819D02*
X186340476Y-62234819D01*
X186340476Y-62234819D02*
X186420238Y-62282438D01*
X186420238Y-62282438D02*
X186494047Y-62377676D01*
X186494047Y-62377676D02*
X186513095Y-62568152D01*
X186513095Y-62568152D02*
X186471428Y-62901485D01*
X186471428Y-62901485D02*
X186404762Y-63091961D01*
X186404762Y-63091961D02*
X186307143Y-63187200D01*
X186307143Y-63187200D02*
X186215476Y-63234819D01*
X186215476Y-63234819D02*
X186044047Y-63234819D01*
X186044047Y-63234819D02*
X185964286Y-63187200D01*
X185964286Y-63187200D02*
X185890476Y-63091961D01*
X185890476Y-63091961D02*
X185871428Y-62901485D01*
X185871428Y-62901485D02*
X185913095Y-62568152D01*
X185913095Y-62568152D02*
X185979762Y-62377676D01*
X185979762Y-62377676D02*
X186077381Y-62282438D01*
X186077381Y-62282438D02*
X186169047Y-62234819D01*
X186778571Y-63187200D02*
X186901190Y-63234819D01*
X186901190Y-63234819D02*
X187115476Y-63234819D01*
X187115476Y-63234819D02*
X187207143Y-63187200D01*
X187207143Y-63187200D02*
X187255952Y-63139580D01*
X187255952Y-63139580D02*
X187310714Y-63044342D01*
X187310714Y-63044342D02*
X187322619Y-62949104D01*
X187322619Y-62949104D02*
X187291666Y-62853866D01*
X187291666Y-62853866D02*
X187254762Y-62806247D01*
X187254762Y-62806247D02*
X187175000Y-62758628D01*
X187175000Y-62758628D02*
X187009523Y-62711009D01*
X187009523Y-62711009D02*
X186929762Y-62663390D01*
X186929762Y-62663390D02*
X186892857Y-62615771D01*
X186892857Y-62615771D02*
X186861904Y-62520533D01*
X186861904Y-62520533D02*
X186873809Y-62425295D01*
X186873809Y-62425295D02*
X186928571Y-62330057D01*
X186928571Y-62330057D02*
X186977381Y-62282438D01*
X186977381Y-62282438D02*
X187069047Y-62234819D01*
X187069047Y-62234819D02*
X187283333Y-62234819D01*
X187283333Y-62234819D02*
X187405952Y-62282438D01*
X114258095Y-82444819D02*
X114258095Y-83254342D01*
X114258095Y-83254342D02*
X114305714Y-83349580D01*
X114305714Y-83349580D02*
X114353333Y-83397200D01*
X114353333Y-83397200D02*
X114448571Y-83444819D01*
X114448571Y-83444819D02*
X114639047Y-83444819D01*
X114639047Y-83444819D02*
X114734285Y-83397200D01*
X114734285Y-83397200D02*
X114781904Y-83349580D01*
X114781904Y-83349580D02*
X114829523Y-83254342D01*
X114829523Y-83254342D02*
X114829523Y-82444819D01*
X115258095Y-82540057D02*
X115305714Y-82492438D01*
X115305714Y-82492438D02*
X115400952Y-82444819D01*
X115400952Y-82444819D02*
X115639047Y-82444819D01*
X115639047Y-82444819D02*
X115734285Y-82492438D01*
X115734285Y-82492438D02*
X115781904Y-82540057D01*
X115781904Y-82540057D02*
X115829523Y-82635295D01*
X115829523Y-82635295D02*
X115829523Y-82730533D01*
X115829523Y-82730533D02*
X115781904Y-82873390D01*
X115781904Y-82873390D02*
X115210476Y-83444819D01*
X115210476Y-83444819D02*
X115829523Y-83444819D01*
X124219475Y-77258104D02*
X124648046Y-77258104D01*
X124098046Y-77543819D02*
X124523046Y-76543819D01*
X124523046Y-76543819D02*
X124698046Y-77543819D01*
X124994475Y-76543819D02*
X125508761Y-76543819D01*
X125126618Y-77543819D02*
X125251618Y-76543819D01*
X126049237Y-77020009D02*
X125749237Y-77020009D01*
X125683761Y-77543819D02*
X125808761Y-76543819D01*
X125808761Y-76543819D02*
X126237332Y-76543819D01*
X126926618Y-77543819D02*
X126412333Y-77543819D01*
X126669476Y-77543819D02*
X126794476Y-76543819D01*
X126794476Y-76543819D02*
X126690904Y-76686676D01*
X126690904Y-76686676D02*
X126593285Y-76781914D01*
X126593285Y-76781914D02*
X126501618Y-76829533D01*
X127823047Y-76543819D02*
X127651619Y-76543819D01*
X127651619Y-76543819D02*
X127559952Y-76591438D01*
X127559952Y-76591438D02*
X127511142Y-76639057D01*
X127511142Y-76639057D02*
X127407571Y-76781914D01*
X127407571Y-76781914D02*
X127340904Y-76972390D01*
X127340904Y-76972390D02*
X127293285Y-77353342D01*
X127293285Y-77353342D02*
X127324238Y-77448580D01*
X127324238Y-77448580D02*
X127361142Y-77496200D01*
X127361142Y-77496200D02*
X127440904Y-77543819D01*
X127440904Y-77543819D02*
X127612333Y-77543819D01*
X127612333Y-77543819D02*
X127704000Y-77496200D01*
X127704000Y-77496200D02*
X127752809Y-77448580D01*
X127752809Y-77448580D02*
X127807571Y-77353342D01*
X127807571Y-77353342D02*
X127837333Y-77115247D01*
X127837333Y-77115247D02*
X127806380Y-77020009D01*
X127806380Y-77020009D02*
X127769476Y-76972390D01*
X127769476Y-76972390D02*
X127689714Y-76924771D01*
X127689714Y-76924771D02*
X127518285Y-76924771D01*
X127518285Y-76924771D02*
X127426619Y-76972390D01*
X127426619Y-76972390D02*
X127377809Y-77020009D01*
X127377809Y-77020009D02*
X127323047Y-77115247D01*
X128165904Y-76543819D02*
X128340904Y-77543819D01*
X128340904Y-77543819D02*
X128765904Y-76543819D01*
X129140905Y-76972390D02*
X129061143Y-76924771D01*
X129061143Y-76924771D02*
X129024238Y-76877152D01*
X129024238Y-76877152D02*
X128993286Y-76781914D01*
X128993286Y-76781914D02*
X128999238Y-76734295D01*
X128999238Y-76734295D02*
X129054000Y-76639057D01*
X129054000Y-76639057D02*
X129102810Y-76591438D01*
X129102810Y-76591438D02*
X129194476Y-76543819D01*
X129194476Y-76543819D02*
X129365905Y-76543819D01*
X129365905Y-76543819D02*
X129445667Y-76591438D01*
X129445667Y-76591438D02*
X129482572Y-76639057D01*
X129482572Y-76639057D02*
X129513524Y-76734295D01*
X129513524Y-76734295D02*
X129507572Y-76781914D01*
X129507572Y-76781914D02*
X129452810Y-76877152D01*
X129452810Y-76877152D02*
X129404000Y-76924771D01*
X129404000Y-76924771D02*
X129312333Y-76972390D01*
X129312333Y-76972390D02*
X129140905Y-76972390D01*
X129140905Y-76972390D02*
X129049238Y-77020009D01*
X129049238Y-77020009D02*
X129000429Y-77067628D01*
X129000429Y-77067628D02*
X128945667Y-77162866D01*
X128945667Y-77162866D02*
X128921857Y-77353342D01*
X128921857Y-77353342D02*
X128952810Y-77448580D01*
X128952810Y-77448580D02*
X128989714Y-77496200D01*
X128989714Y-77496200D02*
X129069476Y-77543819D01*
X129069476Y-77543819D02*
X129240905Y-77543819D01*
X129240905Y-77543819D02*
X129332572Y-77496200D01*
X129332572Y-77496200D02*
X129381381Y-77448580D01*
X129381381Y-77448580D02*
X129436143Y-77353342D01*
X129436143Y-77353342D02*
X129459952Y-77162866D01*
X129459952Y-77162866D02*
X129429000Y-77067628D01*
X129429000Y-77067628D02*
X129392095Y-77020009D01*
X129392095Y-77020009D02*
X129312333Y-76972390D01*
X130163524Y-77020009D02*
X130286143Y-77067628D01*
X130286143Y-77067628D02*
X130323048Y-77115247D01*
X130323048Y-77115247D02*
X130354000Y-77210485D01*
X130354000Y-77210485D02*
X130336143Y-77353342D01*
X130336143Y-77353342D02*
X130281381Y-77448580D01*
X130281381Y-77448580D02*
X130232572Y-77496200D01*
X130232572Y-77496200D02*
X130140905Y-77543819D01*
X130140905Y-77543819D02*
X129798048Y-77543819D01*
X129798048Y-77543819D02*
X129923048Y-76543819D01*
X129923048Y-76543819D02*
X130223048Y-76543819D01*
X130223048Y-76543819D02*
X130302810Y-76591438D01*
X130302810Y-76591438D02*
X130339715Y-76639057D01*
X130339715Y-76639057D02*
X130370667Y-76734295D01*
X130370667Y-76734295D02*
X130358762Y-76829533D01*
X130358762Y-76829533D02*
X130304000Y-76924771D01*
X130304000Y-76924771D02*
X130255191Y-76972390D01*
X130255191Y-76972390D02*
X130163524Y-77020009D01*
X130163524Y-77020009D02*
X129863524Y-77020009D01*
X112967200Y-63703332D02*
X113014819Y-63560475D01*
X113014819Y-63560475D02*
X113014819Y-63322380D01*
X113014819Y-63322380D02*
X112967200Y-63227142D01*
X112967200Y-63227142D02*
X112919580Y-63179523D01*
X112919580Y-63179523D02*
X112824342Y-63131904D01*
X112824342Y-63131904D02*
X112729104Y-63131904D01*
X112729104Y-63131904D02*
X112633866Y-63179523D01*
X112633866Y-63179523D02*
X112586247Y-63227142D01*
X112586247Y-63227142D02*
X112538628Y-63322380D01*
X112538628Y-63322380D02*
X112491009Y-63512856D01*
X112491009Y-63512856D02*
X112443390Y-63608094D01*
X112443390Y-63608094D02*
X112395771Y-63655713D01*
X112395771Y-63655713D02*
X112300533Y-63703332D01*
X112300533Y-63703332D02*
X112205295Y-63703332D01*
X112205295Y-63703332D02*
X112110057Y-63655713D01*
X112110057Y-63655713D02*
X112062438Y-63608094D01*
X112062438Y-63608094D02*
X112014819Y-63512856D01*
X112014819Y-63512856D02*
X112014819Y-63274761D01*
X112014819Y-63274761D02*
X112062438Y-63131904D01*
X112014819Y-62798570D02*
X113014819Y-62560475D01*
X113014819Y-62560475D02*
X112300533Y-62369999D01*
X112300533Y-62369999D02*
X113014819Y-62179523D01*
X113014819Y-62179523D02*
X112014819Y-61941428D01*
X113014819Y-61036666D02*
X113014819Y-61608094D01*
X113014819Y-61322380D02*
X112014819Y-61322380D01*
X112014819Y-61322380D02*
X112157676Y-61417618D01*
X112157676Y-61417618D02*
X112252914Y-61512856D01*
X112252914Y-61512856D02*
X112300533Y-61608094D01*
X168998809Y-73110628D02*
X168998809Y-73586819D01*
X168665476Y-72586819D02*
X168998809Y-73110628D01*
X168998809Y-73110628D02*
X169332142Y-72586819D01*
X170189285Y-73586819D02*
X169617857Y-73586819D01*
X169903571Y-73586819D02*
X169903571Y-72586819D01*
X169903571Y-72586819D02*
X169808333Y-72729676D01*
X169808333Y-72729676D02*
X169713095Y-72824914D01*
X169713095Y-72824914D02*
X169617857Y-72872533D01*
X167430714Y-83066819D02*
X167925952Y-83066819D01*
X167925952Y-83066819D02*
X167611666Y-83447771D01*
X167611666Y-83447771D02*
X167725952Y-83447771D01*
X167725952Y-83447771D02*
X167796190Y-83495390D01*
X167796190Y-83495390D02*
X167828333Y-83543009D01*
X167828333Y-83543009D02*
X167854523Y-83638247D01*
X167854523Y-83638247D02*
X167824761Y-83876342D01*
X167824761Y-83876342D02*
X167774761Y-83971580D01*
X167774761Y-83971580D02*
X167730714Y-84019200D01*
X167730714Y-84019200D02*
X167648571Y-84066819D01*
X167648571Y-84066819D02*
X167420000Y-84066819D01*
X167420000Y-84066819D02*
X167349761Y-84019200D01*
X167349761Y-84019200D02*
X167317619Y-83971580D01*
X168218809Y-83162057D02*
X168262857Y-83114438D01*
X168262857Y-83114438D02*
X168345000Y-83066819D01*
X168345000Y-83066819D02*
X168535476Y-83066819D01*
X168535476Y-83066819D02*
X168605714Y-83114438D01*
X168605714Y-83114438D02*
X168637857Y-83162057D01*
X168637857Y-83162057D02*
X168664047Y-83257295D01*
X168664047Y-83257295D02*
X168652143Y-83352533D01*
X168652143Y-83352533D02*
X168596190Y-83495390D01*
X168596190Y-83495390D02*
X168067619Y-84066819D01*
X168067619Y-84066819D02*
X168562857Y-84066819D01*
X168954524Y-83066819D02*
X169487857Y-83066819D01*
X169487857Y-83066819D02*
X169020000Y-84066819D01*
X170135476Y-83066819D02*
X169983096Y-83066819D01*
X169983096Y-83066819D02*
X169900953Y-83114438D01*
X169900953Y-83114438D02*
X169856905Y-83162057D01*
X169856905Y-83162057D02*
X169762857Y-83304914D01*
X169762857Y-83304914D02*
X169700953Y-83495390D01*
X169700953Y-83495390D02*
X169653334Y-83876342D01*
X169653334Y-83876342D02*
X169679524Y-83971580D01*
X169679524Y-83971580D02*
X169711667Y-84019200D01*
X169711667Y-84019200D02*
X169781905Y-84066819D01*
X169781905Y-84066819D02*
X169934286Y-84066819D01*
X169934286Y-84066819D02*
X170016429Y-84019200D01*
X170016429Y-84019200D02*
X170060476Y-83971580D01*
X170060476Y-83971580D02*
X170110476Y-83876342D01*
X170110476Y-83876342D02*
X170140238Y-83638247D01*
X170140238Y-83638247D02*
X170114048Y-83543009D01*
X170114048Y-83543009D02*
X170081905Y-83495390D01*
X170081905Y-83495390D02*
X170011667Y-83447771D01*
X170011667Y-83447771D02*
X169859286Y-83447771D01*
X169859286Y-83447771D02*
X169777143Y-83495390D01*
X169777143Y-83495390D02*
X169733096Y-83543009D01*
X169733096Y-83543009D02*
X169683096Y-83638247D01*
X170615239Y-83495390D02*
X170545001Y-83447771D01*
X170545001Y-83447771D02*
X170512858Y-83400152D01*
X170512858Y-83400152D02*
X170486667Y-83304914D01*
X170486667Y-83304914D02*
X170492620Y-83257295D01*
X170492620Y-83257295D02*
X170542620Y-83162057D01*
X170542620Y-83162057D02*
X170586667Y-83114438D01*
X170586667Y-83114438D02*
X170668810Y-83066819D01*
X170668810Y-83066819D02*
X170821191Y-83066819D01*
X170821191Y-83066819D02*
X170891429Y-83114438D01*
X170891429Y-83114438D02*
X170923572Y-83162057D01*
X170923572Y-83162057D02*
X170949762Y-83257295D01*
X170949762Y-83257295D02*
X170943810Y-83304914D01*
X170943810Y-83304914D02*
X170893810Y-83400152D01*
X170893810Y-83400152D02*
X170849762Y-83447771D01*
X170849762Y-83447771D02*
X170767620Y-83495390D01*
X170767620Y-83495390D02*
X170615239Y-83495390D01*
X170615239Y-83495390D02*
X170533096Y-83543009D01*
X170533096Y-83543009D02*
X170489048Y-83590628D01*
X170489048Y-83590628D02*
X170439048Y-83685866D01*
X170439048Y-83685866D02*
X170415239Y-83876342D01*
X170415239Y-83876342D02*
X170441429Y-83971580D01*
X170441429Y-83971580D02*
X170473572Y-84019200D01*
X170473572Y-84019200D02*
X170543810Y-84066819D01*
X170543810Y-84066819D02*
X170696191Y-84066819D01*
X170696191Y-84066819D02*
X170778334Y-84019200D01*
X170778334Y-84019200D02*
X170822381Y-83971580D01*
X170822381Y-83971580D02*
X170872381Y-83876342D01*
X170872381Y-83876342D02*
X170896191Y-83685866D01*
X170896191Y-83685866D02*
X170870001Y-83590628D01*
X170870001Y-83590628D02*
X170837858Y-83543009D01*
X170837858Y-83543009D02*
X170767620Y-83495390D01*
X171191429Y-84066819D02*
X171316429Y-83066819D01*
X171256906Y-83543009D02*
X171714048Y-83543009D01*
X171648572Y-84066819D02*
X171773572Y-83066819D01*
X172036667Y-83400152D02*
X172455715Y-83400152D01*
X172455715Y-83400152D02*
X171953334Y-84066819D01*
X171953334Y-84066819D02*
X172372381Y-84066819D01*
X168420580Y-63920666D02*
X168468200Y-63968285D01*
X168468200Y-63968285D02*
X168515819Y-64111142D01*
X168515819Y-64111142D02*
X168515819Y-64206380D01*
X168515819Y-64206380D02*
X168468200Y-64349237D01*
X168468200Y-64349237D02*
X168372961Y-64444475D01*
X168372961Y-64444475D02*
X168277723Y-64492094D01*
X168277723Y-64492094D02*
X168087247Y-64539713D01*
X168087247Y-64539713D02*
X167944390Y-64539713D01*
X167944390Y-64539713D02*
X167753914Y-64492094D01*
X167753914Y-64492094D02*
X167658676Y-64444475D01*
X167658676Y-64444475D02*
X167563438Y-64349237D01*
X167563438Y-64349237D02*
X167515819Y-64206380D01*
X167515819Y-64206380D02*
X167515819Y-64111142D01*
X167515819Y-64111142D02*
X167563438Y-63968285D01*
X167563438Y-63968285D02*
X167611057Y-63920666D01*
X168515819Y-62968285D02*
X168515819Y-63539713D01*
X168515819Y-63253999D02*
X167515819Y-63253999D01*
X167515819Y-63253999D02*
X167658676Y-63349237D01*
X167658676Y-63349237D02*
X167753914Y-63444475D01*
X167753914Y-63444475D02*
X167801533Y-63539713D01*
%TO.C,BT1*%
D12*
X165481000Y-73756520D02*
G75*
G02*
X142621000Y-73756520I-11430000J0D01*
G01*
X142621000Y-73756520D02*
G75*
G02*
X165481000Y-73756520I11430000J0D01*
G01*
X165100000Y-71851520D02*
G75*
G02*
X143002000Y-71851520I-11049000J0D01*
G01*
X143002000Y-71851520D02*
G75*
G02*
X165100000Y-71851520I11049000J0D01*
G01*
X165551000Y-79256520D02*
G75*
G02*
X165051000Y-79756520I-500000J0D01*
G01*
X157051000Y-84756520D02*
G75*
G02*
X156551000Y-85256520I-500000J0D01*
G01*
X157051000Y-80756520D02*
G75*
G02*
X158051000Y-79756520I1000000J0D01*
G01*
X154051000Y-58256520D02*
G75*
G02*
X159801000Y-59797228I0J-11499998D01*
G01*
X154051000Y-57757060D02*
G75*
G02*
X154551380Y-58257440I0J-500380D01*
G01*
X153550620Y-58257440D02*
G75*
G02*
X154051000Y-57757060I500380J0D01*
G01*
X151551000Y-85256520D02*
G75*
G02*
X151051000Y-84756520I0J500000D01*
G01*
X150051000Y-79756520D02*
G75*
G02*
X151051000Y-80756520I0J-1000000D01*
G01*
X148301000Y-59797228D02*
G75*
G02*
X154051000Y-58256520I5750000J-9959290D01*
G01*
X143051000Y-79756520D02*
G75*
G02*
X142551000Y-79256520I0J500000D01*
G01*
X165551000Y-69756520D02*
X165551000Y-79256520D01*
X159777500Y-59756520D02*
X165551000Y-69756520D01*
X158051000Y-79756520D02*
X165051000Y-79756520D01*
X157801000Y-58601520D02*
X157801000Y-61437520D01*
X157801000Y-58601520D02*
X150301000Y-58601520D01*
X157551120Y-62834520D02*
X157551120Y-58257440D01*
X157551120Y-58257440D02*
X150550880Y-58257440D01*
X157051000Y-80756520D02*
X157051000Y-84756520D01*
X156551000Y-85256520D02*
X151551000Y-85256520D01*
X151051000Y-80756520D02*
X151051000Y-84756520D01*
X150550880Y-58257440D02*
X150550880Y-62834520D01*
X150301000Y-58601520D02*
X150301000Y-61437520D01*
X148324500Y-59756520D02*
X142551000Y-69756520D01*
X143051000Y-79756520D02*
X150051000Y-79756520D01*
X142551000Y-69756520D02*
X142551000Y-79256520D01*
%TO.C,U1*%
X173165000Y-67436000D02*
X173430000Y-67436000D01*
X173165000Y-75156000D02*
X173165000Y-67436000D01*
X173430000Y-75156000D02*
X173165000Y-75156000D01*
X188520000Y-67436000D02*
X188785000Y-67436000D01*
X188785000Y-67436000D02*
X188785000Y-75156000D01*
X188785000Y-75156000D02*
X188520000Y-75156000D01*
X173425000Y-75946000D02*
X172955000Y-76286000D01*
X172955000Y-75606000D01*
X173425000Y-75946000D01*
G36*
X173425000Y-75946000D02*
G01*
X172955000Y-76286000D01*
X172955000Y-75606000D01*
X173425000Y-75946000D01*
G37*
%TO.C,RN1*%
X112141000Y-68326000D02*
X124841000Y-68326000D01*
X112141000Y-70866000D02*
X112141000Y-68326000D01*
X114681000Y-70866000D02*
X114681000Y-68326000D01*
X124841000Y-68326000D02*
X124841000Y-70866000D01*
X124841000Y-70866000D02*
X112141000Y-70866000D01*
%TO.C,JP1*%
X177165000Y-63754000D02*
X178435000Y-63754000D01*
X178435000Y-63754000D02*
X179070000Y-63119000D01*
X176530000Y-63119000D02*
X177165000Y-63754000D01*
X179070000Y-63119000D02*
X179070000Y-61849000D01*
X176530000Y-61849000D02*
X176530000Y-63119000D01*
X179070000Y-61849000D02*
X178435000Y-61214000D01*
X177165000Y-61214000D02*
X176530000Y-61849000D01*
X177165000Y-61214000D02*
X176530000Y-60579000D01*
X176530000Y-60579000D02*
X176530000Y-59309000D01*
X179070000Y-60579000D02*
X178435000Y-61214000D01*
X176530000Y-59309000D02*
X177165000Y-58674000D01*
X179070000Y-59309000D02*
X179070000Y-60579000D01*
X177165000Y-58674000D02*
X178435000Y-58674000D01*
X178435000Y-58674000D02*
X179070000Y-59309000D01*
%TO.C,U2*%
X114046000Y-74041000D02*
X140462000Y-74041000D01*
X114046000Y-80137000D02*
X114046000Y-74041000D01*
X140462000Y-74041000D02*
X140462000Y-80137000D01*
X140462000Y-80137000D02*
X114046000Y-80137000D01*
X114046000Y-76073000D02*
G75*
G02*
X115062000Y-77089000I-2J-1016002D01*
G01*
X115062000Y-77089000D02*
G75*
G02*
X114046000Y-78105000I-1016002J2D01*
G01*
%TO.C,C2*%
X110390000Y-73476000D02*
X110720000Y-73476000D01*
X110390000Y-78416000D02*
X110390000Y-73476000D01*
X110720000Y-78416000D02*
X110390000Y-78416000D01*
X112800000Y-73476000D02*
X113130000Y-73476000D01*
X113130000Y-73476000D02*
X113130000Y-78416000D01*
X113130000Y-78416000D02*
X112800000Y-78416000D01*
%TO.C,SW1*%
X113464000Y-57457000D02*
X123264000Y-57457000D01*
X113464000Y-67257000D02*
X113464000Y-57457000D01*
X113919000Y-64897000D02*
X114554000Y-64897000D01*
X113919000Y-65532000D02*
X113919000Y-64897000D01*
X114554000Y-64897000D02*
X114554000Y-65532000D01*
X114554000Y-65532000D02*
X113919000Y-65532000D01*
X115189000Y-60325000D02*
X116459000Y-60325000D01*
X115189000Y-64389000D02*
X115189000Y-60325000D01*
X115443000Y-62484000D02*
X115443000Y-64135000D01*
X115443000Y-64135000D02*
X116205000Y-64135000D01*
X116205000Y-62484000D02*
X115443000Y-62484000D01*
X116205000Y-64135000D02*
X116205000Y-62484000D01*
X116459000Y-60325000D02*
X116459000Y-64389000D01*
X116459000Y-64389000D02*
X115189000Y-64389000D01*
X117729000Y-60325000D02*
X118999000Y-60325000D01*
X117729000Y-64389000D02*
X117729000Y-60325000D01*
X117983000Y-62484000D02*
X117983000Y-64135000D01*
X117983000Y-64135000D02*
X118745000Y-64135000D01*
X118745000Y-62484000D02*
X117983000Y-62484000D01*
X118745000Y-64135000D02*
X118745000Y-62484000D01*
X118999000Y-60325000D02*
X118999000Y-64389000D01*
X118999000Y-64389000D02*
X117729000Y-64389000D01*
X120269000Y-60325000D02*
X121539000Y-60325000D01*
X120269000Y-64389000D02*
X120269000Y-60325000D01*
X120523000Y-62484000D02*
X120523000Y-64135000D01*
X120523000Y-64135000D02*
X121285000Y-64135000D01*
X121285000Y-62484000D02*
X120523000Y-62484000D01*
X121285000Y-64135000D02*
X121285000Y-62484000D01*
X121539000Y-60325000D02*
X121539000Y-64389000D01*
X121539000Y-64389000D02*
X120269000Y-64389000D01*
X123264000Y-57457000D02*
X123264000Y-67257000D01*
X123264000Y-67257000D02*
X113464000Y-67257000D01*
%TO.C,Y1*%
X167901500Y-70700685D02*
X167901500Y-78828685D01*
X167901500Y-78828685D02*
X170949500Y-78828685D01*
X168663500Y-78828685D02*
X168409500Y-79844685D01*
X170187500Y-78828685D02*
X170441500Y-79844685D01*
X170949500Y-70700685D02*
X167901500Y-70700685D01*
X170949500Y-78828685D02*
X170949500Y-70700685D01*
D10*
X169233131Y-80860685D02*
G75*
G02*
X167077869Y-80860685I-1077631J0D01*
G01*
X167077869Y-80860685D02*
G75*
G02*
X169233131Y-80860685I1077631J0D01*
G01*
D12*
X171773131Y-80860685D02*
G75*
G02*
X169617869Y-80860685I-1077631J0D01*
G01*
X169617869Y-80860685D02*
G75*
G02*
X171773131Y-80860685I1077631J0D01*
G01*
%TO.C,C1*%
X169191000Y-61284000D02*
X169521000Y-61284000D01*
X169191000Y-66224000D02*
X169191000Y-61284000D01*
X169521000Y-66224000D02*
X169191000Y-66224000D01*
X171601000Y-61284000D02*
X171931000Y-61284000D01*
X171931000Y-61284000D02*
X171931000Y-66224000D01*
X171931000Y-66224000D02*
X171601000Y-66224000D01*
%TD*%
M02*
